<?plantuml 1.2026.2beta3?><svg xmlns="http://www.w3.org/2000/svg" xmlns:xlink="http://www.w3.org/1999/xlink" contentStyleType="text/css" data-diagram-type="DESCRIPTION" height="1228.125px" preserveAspectRatio="none" style="width:1281px;height:1228px;background:#FFFFFF;" version="1.1" viewBox="0 0 1281 1228" width="1281.25px" zoomAndPan="magnify"><defs/><g><!--cluster ?????? ?????????--><g class="cluster" data-qualified-name="...... ........." data-source-line="10" id="ent0004"><rect fill="none" height="1104.6875" rx="3.9063" ry="3.9063" style="stroke:#181818;stroke-width:1.5625;" width="816.3594" x="456.1094" y="115.5"/><text fill="#000000" font-family="sans-serif" font-size="21.875" font-weight="bold" lengthAdjust="spacing" textLength="241.8747" x="743.3517" y="138.9299">&#1052;&#1086;&#1076;&#1077;&#1083;&#1100; &#1073;&#1072;&#1085;&#1082;&#1086;&#1084;&#1072;&#1090;&#1072;</text></g><!--entity Auth--><g class="entity" data-qualified-name="...... ..........Auth" data-source-line="12" id="ent0005"><ellipse cx="666.2311" cy="1154.5661" fill="#F1F1F1" rx="141.903" ry="40.1286" style="stroke:#181818;stroke-width:0.7813;"/><text fill="#000000" font-family="sans-serif" font-size="21.875" lengthAdjust="spacing" textLength="197.1741" x="567.6441" y="1149.9104">&#1040;&#1091;&#1090;&#1077;&#1085;&#1090;&#1080;&#1092;&#1080;&#1082;&#1072;&#1094;&#1080;&#1103;</text><text fill="#000000" font-family="sans-serif" font-size="21.875" lengthAdjust="spacing" textLength="184.1537" x="574.1542" y="1175.3742">(&#1074;&#1074;&#1086;&#1076; &#1087;&#1080;&#1085;-&#1082;&#1086;&#1076;&#1072;)</text></g><!--entity Balance--><g class="entity" data-qualified-name="...... ..........Balance" data-source-line="13" id="ent0006"><ellipse cx="666.2311" cy="421.7525" fill="#F1F1F1" rx="128.1374" ry="29.3775" style="stroke:#181818;stroke-width:0.7813;"/><text fill="#000000" font-family="sans-serif" font-size="21.875" lengthAdjust="spacing" textLength="211.5402" x="560.461" y="429.0157">&#1055;&#1088;&#1086;&#1074;&#1077;&#1088;&#1082;&#1072; &#1073;&#1072;&#1083;&#1072;&#1085;&#1089;&#1072;</text></g><!--entity Withdraw--><g class="entity" data-qualified-name="...... ..........Withdraw" data-source-line="14" id="ent0007"><ellipse cx="666.2385" cy="534.2508" fill="#F1F1F1" rx="124.6916" ry="28.6883" style="stroke:#181818;stroke-width:0.7813;"/><text fill="#000000" font-family="sans-serif" font-size="21.875" lengthAdjust="spacing" textLength="203.4546" x="564.5112" y="541.514">&#1057;&#1085;&#1103;&#1090;&#1080;&#1077; &#1085;&#1072;&#1083;&#1080;&#1095;&#1085;&#1099;&#1093;</text></g><!--entity Deposit--><g class="entity" data-qualified-name="...... ..........Deposit" data-source-line="15" id="ent0008"><ellipse cx="666.2391" cy="648.3197" fill="#F1F1F1" rx="136.3641" ry="31.0228" style="stroke:#181818;stroke-width:0.7813;"/><text fill="#000000" font-family="sans-serif" font-size="21.875" lengthAdjust="spacing" textLength="230.5313" x="550.9734" y="655.5829">&#1042;&#1085;&#1077;&#1089;&#1077;&#1085;&#1080;&#1077; &#1085;&#1072;&#1083;&#1080;&#1095;&#1085;&#1099;&#1093;</text></g><!--entity Transfer--><g class="entity" data-qualified-name="...... ..........Transfer" data-source-line="16" id="ent0009"><ellipse cx="666.2415" cy="870.192" fill="#F1F1F1" rx="122.2883" ry="28.2077" style="stroke:#181818;stroke-width:0.7813;"/><text fill="#000000" font-family="sans-serif" font-size="21.875" lengthAdjust="spacing" textLength="197.7615" x="567.3607" y="877.4552">&#1055;&#1077;&#1088;&#1077;&#1074;&#1086;&#1076; &#1089;&#1088;&#1077;&#1076;&#1089;&#1090;&#1074;</text></g><!--entity Payment--><g class="entity" data-qualified-name="...... ..........Payment" data-source-line="17" id="ent0010"><ellipse cx="666.2295" cy="195.1834" fill="#F1F1F1" rx="105.1357" ry="24.7771" style="stroke:#181818;stroke-width:0.7813;"/><text fill="#000000" font-family="sans-serif" font-size="21.875" lengthAdjust="spacing" textLength="155.4001" x="588.5295" y="202.4466">&#1054;&#1087;&#1083;&#1072;&#1090;&#1072; &#1091;&#1089;&#1083;&#1091;&#1075;</text></g><!--entity ChangePIN--><g class="entity" data-qualified-name="...... ..........ChangePIN" data-source-line="18" id="ent0011"><ellipse cx="666.2357" cy="760.819" fill="#F1F1F1" rx="114.4857" ry="26.6471" style="stroke:#181818;stroke-width:0.7813;"/><text fill="#000000" font-family="sans-serif" font-size="21.875" lengthAdjust="spacing" textLength="178.92" x="576.7757" y="768.0822">&#1057;&#1084;&#1077;&#1085;&#1072; PIN-&#1082;&#1086;&#1076;&#1072;</text></g><!--entity Receipt--><g class="entity" data-qualified-name="...... ..........Receipt" data-source-line="19" id="ent0012"><ellipse cx="1145.5199" cy="534.2509" fill="#F1F1F1" rx="101.9574" ry="24.1415" style="stroke:#181818;stroke-width:0.7813;"/><text fill="#000000" font-family="sans-serif" font-size="21.875" lengthAdjust="spacing" textLength="147.0901" x="1071.9748" y="541.514">&#1042;&#1099;&#1076;&#1072;&#1095;&#1072; &#1095;&#1077;&#1082;&#1072;</text></g><!--entity Logout--><g class="entity" data-qualified-name="...... ..........Logout" data-source-line="20" id="ent0013"><ellipse cx="666.2293" cy="306.1177" fill="#F1F1F1" rx="135.2762" ry="30.8052" style="stroke:#181818;stroke-width:0.7813;"/><text fill="#000000" font-family="sans-serif" font-size="21.875" lengthAdjust="spacing" textLength="228.0426" x="552.208" y="313.3809">&#1047;&#1072;&#1074;&#1077;&#1088;&#1096;&#1077;&#1085;&#1080;&#1077; &#1089;&#1077;&#1089;&#1089;&#1080;&#1080;</text></g><!--entity RetainBlock--><g class="entity" data-qualified-name="...... ..........RetainBlock" data-source-line="22" id="ent0014"><ellipse cx="666.2416" cy="993.6202" fill="#F1F1F1" rx="185.1322" ry="40.7764" style="stroke:#181818;stroke-width:0.7813;"/><text fill="#000000" font-family="sans-serif" font-size="21.875" lengthAdjust="spacing" textLength="337.6846" x="497.3992" y="1000.8834">&#1048;&#1079;&#1098;&#1103;&#1090;&#1080;&#1077; &#1080; &#1073;&#1083;&#1086;&#1082;&#1080;&#1088;&#1086;&#1074;&#1082;&#1072; &#1082;&#1072;&#1088;&#1090;&#1099;</text></g><!--entity Client--><g class="entity" data-qualified-name="Client" data-source-line="7" id="ent0002"><ellipse cx="51.4908" cy="487.9219" fill="#F1F1F1" rx="12.5" ry="12.5" style="stroke:#181818;stroke-width:0.7813;"/><path d="M51.4908,500.4219 L51.4908,542.6094 M31.1783,512.9219 L71.8033,512.9219 M51.4908,542.6094 L31.1783,566.0469 M51.4908,542.6094 L71.8033,566.0469" fill="none" style="stroke:#181818;stroke-width:0.7813;"/><text fill="#000000" font-family="sans-serif" font-size="21.875" lengthAdjust="spacing" textLength="84.2316" x="9.375" y="588.6955">&#1050;&#1083;&#1080;&#1077;&#1085;&#1090;</text></g><!--entity Bank--><g class="entity" data-qualified-name="Bank" data-source-line="8" id="ent0003"><ellipse cx="51.4945" cy="1108.2344" fill="#F1F1F1" rx="12.5" ry="12.5" style="stroke:#181818;stroke-width:0.7813;"/><path d="M51.4945,1120.7344 L51.4945,1162.9219 M31.182,1133.2344 L71.807,1133.2344 M51.4945,1162.9219 L31.182,1186.3594 M51.4945,1162.9219 L71.807,1186.3594" fill="none" style="stroke:#181818;stroke-width:0.7813;"/><text fill="#000000" font-family="sans-serif" font-size="21.875" lengthAdjust="spacing" textLength="55.9265" x="23.5313" y="1209.008">&#1041;&#1072;&#1085;&#1082;</text></g><!--link Client to Auth--><g class="link" data-entity-1="ent0002" data-entity-2="ent0005" data-link-type="dependency" data-source-line="25" id="lnk15"><path d="M54.75,594.3437 C59.5,717.2969 77.125,991.5156 140.4844,1056.125 C168,1084.1875 380.21,1117.053 526.3506,1136.8655" fill="none" id="Client-to-Auth" style="stroke:#181818;stroke-width:1.5625;"/><polygon fill="#181818" points="535.6406,1138.125,522.5452,1130.0425,527.8989,1137.0754,520.866,1142.4292,535.6406,1138.125" style="stroke:#181818;stroke-width:1.5625;"/></g><!--link Client to Balance--><g class="link" data-entity-1="ent0002" data-entity-2="ent0006" data-link-type="dependency" data-source-line="26" id="lnk16"><path d="M94.3125,512 C108.5781,505.1406 124.9063,498.2031 140.4844,493.625 C274,454.4219 423.7298,437.1446 531.3548,429.004" fill="none" id="Client-to-Balance" style="stroke:#181818;stroke-width:1.5625;"/><polygon fill="#181818" points="540.7031,428.2969,526.2093,423.1253,532.9129,428.8861,527.1521,435.5897,540.7031,428.2969" style="stroke:#181818;stroke-width:1.5625;"/></g><!--link Client to Withdraw--><g class="link" data-entity-1="ent0002" data-entity-2="ent0007" data-link-type="dependency" data-source-line="27" id="lnk17"><path d="M94.1406,534.25 C184.2656,534.25 392.9844,534.25 531.9219,534.25" fill="none" id="Client-to-Withdraw" style="stroke:#181818;stroke-width:1.5625;"/><polygon fill="#181818" points="541.2969,534.25,527.2344,528,533.4844,534.25,527.2344,540.5,541.2969,534.25" style="stroke:#181818;stroke-width:1.5625;"/></g><!--link Client to Deposit--><g class="link" data-entity-1="ent0002" data-entity-2="ent0008" data-link-type="dependency" data-source-line="28" id="lnk18"><path d="M94.1406,541.9062 C188.1406,559.4375 412.1745,601.2188 549.5808,626.8438" fill="none" id="Client-to-Deposit" style="stroke:#181818;stroke-width:1.5625;"/><polygon fill="#181818" points="558.7969,628.5625,546.1185,619.8403,551.1168,627.1302,543.8269,632.1285,558.7969,628.5625" style="stroke:#181818;stroke-width:1.5625;"/></g><!--link Client to Transfer--><g class="link" data-entity-1="ent0002" data-entity-2="ent0009" data-link-type="dependency" data-source-line="29" id="lnk19"><path d="M55.4375,594.5312 C61.2656,706.7813 80.5,940.9219 140.4844,990.5 C240.0469,1072.7969 331.5938,1072.8438 431.1094,990.5 C453.9844,971.5781 423.1875,946.4375 443.6094,924.875 C469.9844,897.0313 498.9142,884.2649 536.1017,876.8743" fill="none" id="Client-to-Transfer" style="stroke:#181818;stroke-width:1.5625;"/><polygon fill="#181818" points="545.2969,875.0469,530.2858,871.6579,537.6342,876.5697,532.7224,883.9181,545.2969,875.0469" style="stroke:#181818;stroke-width:1.5625;"/></g><!--link Client to Payment--><g class="link" data-entity-1="ent0002" data-entity-2="ent0010" data-link-type="dependency" data-source-line="30" id="lnk20"><path d="M65.4844,474.0937 C77.5313,430.3125 100.1094,372.7344 140.4844,337.375 C258.7656,233.7813 436.0046,205.4276 551.7389,197.8182" fill="none" id="Client-to-Payment" style="stroke:#181818;stroke-width:1.5625;"/><polygon fill="#181818" points="561.0938,197.2031,546.6515,191.8892,553.2981,197.7157,547.4716,204.3623,561.0938,197.2031" style="stroke:#181818;stroke-width:1.5625;"/></g><!--link Client to ChangePIN--><g class="link" data-entity-1="ent0002" data-entity-2="ent0011" data-link-type="dependency" data-source-line="31" id="lnk21"><path d="M57.4844,594.2813 C66.2188,693.6562 89.3906,885.4844 140.4844,926.4375 C241.2656,1007.2344 334.8594,1012.5781 431.1094,926.4375 C449.8437,909.6562 426.9688,832.7969 443.6094,813.9375 C470.625,783.2969 502.6844,770.2569 542.3094,763.8038" fill="none" id="Client-to-ChangePIN" style="stroke:#181818;stroke-width:1.5625;"/><polygon fill="#181818" points="551.5625,762.2969,536.6782,758.3885,543.8516,763.5526,538.6875,770.726,551.5625,762.2969" style="stroke:#181818;stroke-width:1.5625;"/></g><!--link Client to Receipt--><g class="link" data-entity-1="ent0002" data-entity-2="ent0012" data-link-type="dependency" data-source-line="32" id="lnk22"><path d="M54.4063,474.3594 C59.1719,407.375 77.0625,299.8906 140.4844,235.8125 C364.6094,9.375 547.8281,46.8594 851.375,143.625 C1023.3281,198.4375 1108.8131,423.5296 1133.6412,500.6078" fill="none" id="Client-to-Receipt" style="stroke:#181818;stroke-width:1.5625;"/><polygon fill="#181818" points="1136.5156,509.5312,1138.153,494.2298,1134.1203,502.095,1126.255,498.0623,1136.5156,509.5312" style="stroke:#181818;stroke-width:1.5625;"/></g><!--link Client to Logout--><g class="link" data-entity-1="ent0002" data-entity-2="ent0013" data-link-type="dependency" data-source-line="33" id="lnk23"><path d="M90.25,474.3281 C104,456.5156 121.0625,438.5469 140.4844,426.4375 C260.3281,351.7187 412.1992,324.1936 524.0742,313.4436" fill="none" id="Client-to-Logout" style="stroke:#181818;stroke-width:1.5625;"/><polygon fill="#181818" points="533.4063,312.5469,518.8104,307.6706,525.6296,313.2941,520.006,320.1133,533.4063,312.5469" style="stroke:#181818;stroke-width:1.5625;"/></g><!--link Auth to Balance--><g class="link" data-entity-1="ent0005" data-entity-2="ent0006" data-link-type="dependency" data-source-line="35" id="lnk24"><path d="M555.9063,1128.7969 C516.2031,1114.7969 473.7969,1093.7031 443.6094,1062.375 C312.7969,926.625 244.6719,840.3125 304.6719,661.5937 C337.2344,564.5938 358.3125,534.5313 443.6094,478 C475.5156,456.8594 505.65,445.7119 542.2906,437.4775" fill="none" id="Auth-to-Balance" style="stroke:#181818;stroke-width:1.5625;stroke-dasharray:10.9375,10.9375;"/><polygon fill="#181818" points="551.4375,435.4219,536.3468,432.4074,543.8151,437.1349,539.0876,444.6032,551.4375,435.4219" style="stroke:#181818;stroke-width:1.5625;"/><text fill="#000000" font-family="sans-serif" font-size="20.3125" lengthAdjust="spacing" textLength="98.4482" x="236.5781" y="682.0108">&#171;include&#187;</text></g><!--link Auth to Withdraw--><g class="link" data-entity-1="ent0005" data-entity-2="ent0007" data-link-type="dependency" data-source-line="36" id="lnk25"><path d="M558.375,1127.875 C518.5,1113.7031 475.3438,1092.75 443.6094,1062.375 C330.3281,954 246.8906,883.8906 304.6719,738.1562 C337.8906,654.3906 365.9375,636.1875 443.6094,590.5 C478.1406,570.1875 510.7187,559.1692 548.6718,550.8255" fill="none" id="Auth-to-Withdraw" style="stroke:#181818;stroke-width:1.5625;stroke-dasharray:10.9375,10.9375;"/><polygon fill="#181818" points="557.8281,548.8125,542.7516,545.7277,550.1978,550.49,545.4356,557.9362,557.8281,548.8125" style="stroke:#181818;stroke-width:1.5625;"/><text fill="#000000" font-family="sans-serif" font-size="20.3125" lengthAdjust="spacing" textLength="98.4482" x="236.5781" y="758.5733">&#171;include&#187;</text></g><!--link Auth to Deposit--><g class="link" data-entity-1="ent0005" data-entity-2="ent0008" data-link-type="dependency" data-source-line="37" id="lnk26"><path d="M560.5,1127.2031 C520.4531,1112.8906 476.6094,1091.9844 443.6094,1062.375 C340.0781,969.4687 233.6563,901.5312 304.6719,781.9062 C351.3906,703.2187 442.1046,671.9651 525.1202,658.5432" fill="none" id="Auth-to-Deposit" style="stroke:#181818;stroke-width:1.5625;stroke-dasharray:10.9375,10.9375;"/><polygon fill="#181818" points="534.375,657.0469,519.4952,653.1215,526.6627,658.2938,521.4903,665.4612,534.375,657.0469" style="stroke:#181818;stroke-width:1.5625;"/><text fill="#000000" font-family="sans-serif" font-size="20.3125" lengthAdjust="spacing" textLength="98.4482" x="236.5781" y="802.3233">&#171;include&#187;</text></g><!--link Auth to Transfer--><g class="link" data-entity-1="ent0005" data-entity-2="ent0009" data-link-type="dependency" data-source-line="38" id="lnk27"><path d="M562.9219,1126.4063 C425.6563,1084.25 210.8125,998.7656 304.6719,897.5312 C374.4375,822.2813 492.7472,829.9294 576.1847,846.7419" fill="none" id="Auth-to-Transfer" style="stroke:#181818;stroke-width:1.5625;stroke-dasharray:10.9375,10.9375;"/><polygon fill="#181818" points="585.375,848.5937,572.8241,839.6892,577.7164,847.0506,570.355,851.9429,585.375,848.5937" style="stroke:#181818;stroke-width:1.5625;"/><text fill="#000000" font-family="sans-serif" font-size="20.3125" lengthAdjust="spacing" textLength="98.4482" x="236.5781" y="917.9483">&#171;include&#187;</text></g><!--link Auth to Payment--><g class="link" data-entity-1="ent0005" data-entity-2="ent0010" data-link-type="dependency" data-source-line="39" id="lnk28"><path d="M557.0625,1128.4219 C517.2656,1114.3438 474.5,1093.3125 443.6094,1062.375 C329.2031,947.8281 336.1406,884.4531 304.6719,725.6562 C261.7188,508.9219 282.3906,399.4219 443.6094,248.3125 C475.2031,218.6875 510.9992,206.0948 552.3117,199.751" fill="none" id="Auth-to-Payment" style="stroke:#181818;stroke-width:1.5625;stroke-dasharray:10.9375,10.9375;"/><polygon fill="#181818" points="561.5781,198.3281,546.7299,194.2849,553.8561,199.5139,548.6271,206.6401,561.5781,198.3281" style="stroke:#181818;stroke-width:1.5625;"/><text fill="#000000" font-family="sans-serif" font-size="20.3125" lengthAdjust="spacing" textLength="98.4482" x="236.5781" y="719.5108">&#171;include&#187;</text></g><!--link Auth to ChangePIN--><g class="link" data-entity-1="ent0005" data-entity-2="ent0011" data-link-type="dependency" data-source-line="40" id="lnk29"><path d="M576.8438,1122.8906 C440.6719,1069.8438 206.9219,956.9687 304.6719,836.5937 C364.5156,762.9062 466.6264,748.9305 550.0639,750.3836" fill="none" id="Auth-to-ChangePIN" style="stroke:#181818;stroke-width:1.5625;stroke-dasharray:10.9375,10.9375;"/><polygon fill="#181818" points="559.4375,750.5469,545.486,744.053,551.6262,750.4108,545.2683,756.5511,559.4375,750.5469" style="stroke:#181818;stroke-width:1.5625;"/><text fill="#000000" font-family="sans-serif" font-size="20.3125" lengthAdjust="spacing" textLength="98.4482" x="236.5781" y="857.0108">&#171;include&#187;</text></g><!--link Balance to Receipt--><g class="link" data-entity-1="ent0006" data-entity-2="ent0012" data-link-type="dependency" data-source-line="42" id="lnk30"><path d="M762.3125,441.8125 C828.1563,456.0469 917.9688,475.9687 996.6875,495.1875 C1022.8906,501.5938 1042.5375,506.6701 1067.5843,513.3732" fill="none" id="Balance-to-Receipt" style="stroke:#181818;stroke-width:1.5625;stroke-dasharray:10.9375,10.9375;"/><polygon fill="#181818" points="1076.6406,515.7969,1064.672,506.1238,1069.0937,513.7771,1061.4404,518.1989,1076.6406,515.7969" style="stroke:#181818;stroke-width:1.5625;"/><text fill="#000000" font-family="sans-serif" font-size="20.3125" lengthAdjust="spacing" textLength="95.6017" x="899.8125" y="468.7295">&#171;extend&#187;</text></g><!--link Withdraw to Receipt--><g class="link" data-entity-1="ent0007" data-entity-2="ent0012" data-link-type="dependency" data-source-line="43" id="lnk31"><path d="M791.6563,534.25 C869.9219,534.25 960.375,534.25 1033.7656,534.25" fill="none" id="Withdraw-to-Receipt" style="stroke:#181818;stroke-width:1.5625;stroke-dasharray:10.9375,10.9375;"/><polygon fill="#181818" points="1043.1406,534.25,1029.0781,528,1035.3281,534.25,1029.0781,540.5,1043.1406,534.25" style="stroke:#181818;stroke-width:1.5625;"/><text fill="#000000" font-family="sans-serif" font-size="20.3125" lengthAdjust="spacing" textLength="95.6017" x="899.8125" y="528.1045">&#171;extend&#187;</text></g><!--link Deposit to Receipt--><g class="link" data-entity-1="ent0008" data-entity-2="ent0012" data-link-type="dependency" data-source-line="44" id="lnk32"><path d="M766.5938,626.7344 C832.0156,612.2031 919.6406,592.3125 996.6875,573.3125 C1022.875,566.8594 1042.5218,561.7674 1067.5687,555.0643" fill="none" id="Deposit-to-Receipt" style="stroke:#181818;stroke-width:1.5625;stroke-dasharray:10.9375,10.9375;"/><polygon fill="#181818" points="1076.625,552.6406,1061.4248,550.2386,1069.0781,554.6604,1064.6563,562.3137,1076.625,552.6406" style="stroke:#181818;stroke-width:1.5625;"/><text fill="#000000" font-family="sans-serif" font-size="20.3125" lengthAdjust="spacing" textLength="95.6017" x="899.8125" y="567.167">&#171;extend&#187;</text></g><!--link Transfer to Receipt--><g class="link" data-entity-1="ent0009" data-entity-2="ent0012" data-link-type="dependency" data-source-line="45" id="lnk33"><path d="M753.0781,849.7656 C784.6094,840.9219 820.25,829.3906 851.375,815.5 C920.5469,784.6406 940.4063,777.1406 996.6875,726.4375 C1054.4531,674.375 1100.7193,605.1826 1124.6568,566.3701" fill="none" id="Transfer-to-Receipt" style="stroke:#181818;stroke-width:1.5625;stroke-dasharray:10.9375,10.9375;"/><polygon fill="#181818" points="1129.5781,558.3906,1116.8766,567.0789,1125.477,565.0402,1127.5158,573.6406,1129.5781,558.3906" style="stroke:#181818;stroke-width:1.5625;"/><text fill="#000000" font-family="sans-serif" font-size="20.3125" lengthAdjust="spacing" textLength="95.6017" x="899.8125" y="720.292">&#171;extend&#187;</text></g><!--link Payment to Receipt--><g class="link" data-entity-1="ent0010" data-entity-2="ent0012" data-link-type="dependency" data-source-line="46" id="lnk34"><path d="M751.2656,210.1719 C783.9531,218.3281 820.8438,230.5156 851.375,248.3125 C974.3906,320.0312 1078.5165,447.3472 1120.3446,502.4097" fill="none" id="Payment-to-Receipt" style="stroke:#181818;stroke-width:1.5625;stroke-dasharray:10.9375,10.9375;"/><polygon fill="#181818" points="1126.0156,509.875,1122.486,494.8964,1121.2898,503.6539,1112.5323,502.4577,1126.0156,509.875" style="stroke:#181818;stroke-width:1.5625;"/><text fill="#000000" font-family="sans-serif" font-size="20.3125" lengthAdjust="spacing" textLength="95.6017" x="899.8125" y="279.667">&#171;extend&#187;</text></g><!--link ChangePIN to Receipt--><g class="link" data-entity-1="ent0011" data-entity-2="ent0012" data-link-type="dependency" data-source-line="47" id="lnk35"><path d="M745.1563,740.9219 C778.2969,731.5938 817.1719,719.5625 851.375,706.125 C918.4375,679.7656 934.4375,670.5469 996.6875,634.25 C1037.7969,610.2813 1075.132,584.439 1104.4289,563.2984" fill="none" id="ChangePIN-to-Receipt" style="stroke:#181818;stroke-width:1.5625;stroke-dasharray:10.9375,10.9375;"/><polygon fill="#181818" points="1112.0313,557.8125,1096.9705,560.9731,1105.6959,562.3841,1104.2849,571.1095,1112.0313,557.8125" style="stroke:#181818;stroke-width:1.5625;"/><text fill="#000000" font-family="sans-serif" font-size="20.3125" lengthAdjust="spacing" textLength="95.6017" x="899.8125" y="628.1045">&#171;extend&#187;</text></g><!--link Auth to RetainBlock--><g class="link" data-entity-1="ent0005" data-entity-2="ent0014" data-link-type="dependency" data-source-line="49" id="lnk36"><path d="M666.2344,1113.9531 C666.2344,1089.7344 666.2344,1068.4688 666.2344,1044.1563" fill="none" id="Auth-to-RetainBlock" style="stroke:#181818;stroke-width:1.5625;stroke-dasharray:10.9375,10.9375;"/><polygon fill="#181818" points="666.2344,1034.7813,659.9844,1048.8438,666.2344,1042.5938,672.4844,1048.8438,666.2344,1034.7813" style="stroke:#181818;stroke-width:1.5625;"/><text fill="#000000" font-family="sans-serif" font-size="20.3125" lengthAdjust="spacing" textLength="95.6017" x="600.6094" y="1081.5576">&#171;extend&#187;</text></g><!--link Bank to Auth--><g class="link" data-entity-1="ent0003" data-entity-2="ent0005" data-link-type="dependency" data-source-line="51" id="lnk37"><path d="M79.8281,1155.7656 C97.125,1156.4844 120.125,1157.3281 140.4844,1157.6875 C270.375,1160.0156 409.0166,1158.903 514.5635,1157.3561" fill="none" id="Bank-to-Auth" style="stroke:#181818;stroke-width:1.5625;"/><polygon fill="#181818" points="523.9375,1157.2188,509.7849,1151.1755,516.1258,1157.3332,509.9681,1163.6742,523.9375,1157.2188" style="stroke:#181818;stroke-width:1.5625;"/><text fill="#000000" font-family="sans-serif" font-size="20.3125" lengthAdjust="spacing" textLength="288.7985" x="142.0469" y="1151.542">&#1072;&#1074;&#1090;&#1086;&#1088;&#1080;&#1079;&#1072;&#1094;&#1080;&#1103; &#1080; &#1073;&#1083;&#1086;&#1082;&#1080;&#1088;&#1086;&#1074;&#1082;&#1072;</text></g><?plantuml-src TLJ1YXD14BttLpGvwI513rva2RXw4KGM4RnuQMOwcIQJxZ3JOHKHDbbrnGYhNXIHNVo361DsI3RhBrJ_aTKzcSxGCCbXfglUgtxrgfXy8EI8PMn8XqggACdKa5ETZJd9VIPFMAoEXUpJ7alpUYOU2NhttXr2KjxJL2kQYNwYQImo7ccX924iqYgZBVW96oXW1LipRL6MquUfu5Bxz5UOmnRMBdN8v80GMu79Vien-mjkO8daZVbCuKy9nT0rpCqKvYtwXX2Alt7E8vPRmXTpYXbt6nJc7TwyHkm7V3z_AM_10lzOaS8_p6pRhjWIvhVTzG_6EWdANPeJH2nWXKyiL6hOM1rcOkztebCc8nuGVoFYt6g05KNHbbIOCmpEp7j7Uo5q4cViEE1zG_0AQsC7pTn7VAHoeKEjJkLgrw6PkCCIdrDOEDhpZCcynxE0Tu5cR4f3ARetGRDFuQzZ7B7NGpkiiBThfszEZnu_zHwMmqrmSXp3OLjcPZ7O1TvnXkprZl2CHroCmXk-OzFETFFHEs5DmMOcU2WSzOdggx4E5-07N9bFU-iBEx8DAboZX-KitHpjLfoOgPdjL6Wcv66geW5vIqYvehJTxfOxKJjNqww5_2HhiMf2jP1tlnQh_As5zWxMWfLBjL3LlHL8EruOUd6V7Xm86QNZc7UxFb-fRChl53VoA_bD-LqhZNpVLv0dbV1En_Vf8FoLvZ96X5VUYAYqDmAy-4P49RyHiDVV2F6zrjOfGDWldDyhpDaznrMzmTKiuAhwKZMjxNy0?></g></svg>