<?plantuml 1.2026.2beta3?><svg xmlns="http://www.w3.org/2000/svg" xmlns:xlink="http://www.w3.org/1999/xlink" contentStyleType="text/css" data-diagram-type="STATE" height="1885.9375px" preserveAspectRatio="none" style="width:5210px;height:1885px;background:#FFFFFF;" version="1.1" viewBox="0 0 5210 1885" width="5210.9375px" zoomAndPan="magnify"><defs/><g><!--cluster PIN_Entry--><g class="cluster" data-qualified-name="PIN_Entry" data-source-line="15" id="ent0004"><path d="M30.4688,10.9375 L378.9063,10.9375 A19.5313,19.5313 0 0 1 398.4375,30.4688 L398.4375,44.2139 L10.9375,44.2139 L10.9375,30.4688 A19.5313,19.5313 0 0 1 30.4688,10.9375" fill="#F1F1F1"/><rect fill="none" height="563.0625" rx="19.5313" ry="19.5313" style="stroke:#181818;stroke-width:0.7813;" width="387.5" x="10.9375" y="10.9375"/><line style="stroke:#181818;stroke-width:0.7813;" x1="10.9375" x2="398.4375" y1="44.2139" y2="44.2139"/><text fill="#000000" font-family="sans-serif" font-size="21.875" lengthAdjust="spacing" textLength="105.1453" x="152.1149" y="37.4924">PIN_Entry</text></g><!--cluster Authenticated--><g class="cluster" data-qualified-name="Authenticated" data-source-line="23" id="ent0005"><path d="M963.2813,448.4375 L3710.1563,448.4375 A19.5313,19.5313 0 0 1 3729.6875,467.9687 L3729.6875,481.7139 L943.75,481.7139 L943.75,467.9687 A19.5313,19.5313 0 0 1 963.2813,448.4375" fill="#F1F1F1"/><rect fill="none" height="666.0469" rx="19.5313" ry="19.5313" style="stroke:#181818;stroke-width:0.7813;" width="2785.9375" x="943.75" y="448.4375"/><line style="stroke:#181818;stroke-width:0.7813;" x1="943.75" x2="3729.6875" y1="481.7139" y2="481.7139"/><text fill="#000000" font-family="sans-serif" font-size="21.875" lengthAdjust="spacing" textLength="154.599" x="2259.4193" y="474.9924">Authenticated</text></g><!--cluster SessionEnding--><g class="cluster" data-qualified-name="SessionEnding" data-source-line="39" id="ent0006"><path d="M3811.7188,726.9844 L4116.4063,726.9844 A19.5313,19.5313 0 0 1 4135.9375,746.5156 L4135.9375,760.2607 L3792.1875,760.2607 L3792.1875,746.5156 A19.5313,19.5313 0 0 1 3811.7188,726.9844" fill="#F1F1F1"/><rect fill="none" height="387.5" rx="19.5313" ry="19.5313" style="stroke:#181818;stroke-width:0.7813;" width="343.75" x="3792.1875" y="726.9844"/><line style="stroke:#181818;stroke-width:0.7813;" x1="3792.1875" x2="4135.9375" y1="760.2607" y2="760.2607"/><text fill="#000000" font-family="sans-serif" font-size="21.875" lengthAdjust="spacing" textLength="158.8608" x="3884.6321" y="753.5392">SessionEnding</text></g><!--cluster CardRetainedBlocked--><g class="cluster" data-qualified-name="CardRetainedBlocked" data-source-line="44" id="ent0007"><path d="M480.4688,448.4375 L817.9688,448.4375 A19.5313,19.5313 0 0 1 837.5,467.9687 L837.5,481.7139 L460.9375,481.7139 L460.9375,467.9687 A19.5313,19.5313 0 0 1 480.4688,448.4375" fill="#F1F1F1"/><rect fill="none" height="666.0469" rx="19.5313" ry="19.5313" style="stroke:#181818;stroke-width:0.7813;" width="376.5625" x="460.9375" y="448.4375"/><line style="stroke:#181818;stroke-width:0.7813;" x1="460.9375" x2="837.5" y1="481.7139" y2="481.7139"/><text fill="#000000" font-family="sans-serif" font-size="21.875" lengthAdjust="spacing" textLength="235.9894" x="531.2241" y="474.9924">CardRetainedBlocked</text></g><g class="start_entity" data-qualified-name="PIN_Entry..start.PIN_Entry" data-source-line="16" id="ent0010"><ellipse cx="265.625" cy="123.4375" fill="#222222" rx="15.625" ry="15.625" style="stroke:#222222;stroke-width:1.5625;"/></g><g class="entity" data-qualified-name="PIN_Entry.EnteringPIN" id="ent0011"><rect fill="#F1F1F1" height="78.125" rx="19.5313" ry="19.5313" style="stroke:#181818;stroke-width:0.7813;" width="159.7977" x="201.3438" y="259.375"/><line style="stroke:#181818;stroke-width:0.7813;" x1="201.3438" x2="361.1414" y1="300.4639" y2="300.4639"/><text fill="#000000" font-family="sans-serif" font-size="21.875" lengthAdjust="spacing" textLength="128.5477" x="216.9688" y="287.4924">EnteringPIN</text></g><g class="start_entity" data-qualified-name="Authenticated..start.Authenticated" data-source-line="24" id="ent0017"><ellipse cx="2723.4375" cy="560.9375" fill="#222222" rx="15.625" ry="15.625" style="stroke:#222222;stroke-width:1.5625;"/></g><g class="entity" data-qualified-name="Authenticated.Menu" id="ent0018"><rect fill="#F1F1F1" height="78.125" rx="19.5313" ry="19.5313" style="stroke:#181818;stroke-width:0.7813;" width="91.3101" x="2448.0938" y="800.4219"/><line style="stroke:#181818;stroke-width:0.7813;" x1="2448.0938" x2="2539.4039" y1="841.5107" y2="841.5107"/><text fill="#000000" font-family="sans-serif" font-size="21.875" lengthAdjust="spacing" textLength="60.0601" x="2463.7188" y="828.5392">Menu</text></g><g class="entity" data-qualified-name="Authenticated.CheckBalance" id="ent0020"><rect fill="#F1F1F1" height="78.125" rx="19.5313" ry="19.5313" style="stroke:#181818;stroke-width:0.7813;" width="185.7849" x="1082.1094" y="998.8594"/><line style="stroke:#181818;stroke-width:0.7813;" x1="1082.1094" x2="1267.8943" y1="1039.9482" y2="1039.9482"/><text fill="#000000" font-family="sans-serif" font-size="21.875" lengthAdjust="spacing" textLength="154.5349" x="1097.7344" y="1026.9767">CheckBalance</text></g><g class="entity" data-qualified-name="Authenticated.Withdraw" id="ent0022"><rect fill="#F1F1F1" height="78.125" rx="19.5313" ry="19.5313" style="stroke:#181818;stroke-width:0.7813;" width="135.5728" x="1560.3438" y="998.8594"/><line style="stroke:#181818;stroke-width:0.7813;" x1="1560.3438" x2="1695.9166" y1="1039.9482" y2="1039.9482"/><text fill="#000000" font-family="sans-serif" font-size="21.875" lengthAdjust="spacing" textLength="104.3228" x="1575.9688" y="1026.9767">Withdraw</text></g><g class="entity" data-qualified-name="Authenticated.Deposit" id="ent0024"><rect fill="#F1F1F1" height="78.125" rx="19.5313" ry="19.5313" style="stroke:#181818;stroke-width:0.7813;" width="114.8727" x="2006.625" y="998.8594"/><line style="stroke:#181818;stroke-width:0.7813;" x1="2006.625" x2="2121.4977" y1="1039.9482" y2="1039.9482"/><text fill="#000000" font-family="sans-serif" font-size="21.875" lengthAdjust="spacing" textLength="83.6227" x="2022.25" y="1026.9767">Deposit</text></g><g class="entity" data-qualified-name="Authenticated.Transfer" id="ent0026"><rect fill="#F1F1F1" height="78.125" rx="19.5313" ry="19.5313" style="stroke:#181818;stroke-width:0.7813;" width="122.4243" x="2432.5313" y="998.8594"/><line style="stroke:#181818;stroke-width:0.7813;" x1="2432.5313" x2="2554.9556" y1="1039.9482" y2="1039.9482"/><text fill="#000000" font-family="sans-serif" font-size="21.875" lengthAdjust="spacing" textLength="91.1743" x="2448.1563" y="1026.9767">Transfer</text></g><g class="entity" data-qualified-name="Authenticated.Payment" id="ent0028"><rect fill="#F1F1F1" height="78.125" rx="19.5313" ry="19.5313" style="stroke:#181818;stroke-width:0.7813;" width="127.9999" x="2865.6875" y="998.8594"/><line style="stroke:#181818;stroke-width:0.7813;" x1="2865.6875" x2="2993.6874" y1="1039.9482" y2="1039.9482"/><text fill="#000000" font-family="sans-serif" font-size="21.875" lengthAdjust="spacing" textLength="96.7499" x="2881.3125" y="1026.9767">Payment</text></g><g class="entity" data-qualified-name="Authenticated.PinChange" id="ent0030"><rect fill="#F1F1F1" height="78.125" rx="19.5313" ry="19.5313" style="stroke:#181818;stroke-width:0.7813;" width="148.1339" x="3307.1875" y="998.8594"/><line style="stroke:#181818;stroke-width:0.7813;" x1="3307.1875" x2="3455.3214" y1="1039.9482" y2="1039.9482"/><text fill="#000000" font-family="sans-serif" font-size="21.875" lengthAdjust="spacing" textLength="116.8839" x="3322.8125" y="1026.9767">PinChange</text></g><g class="start_entity" data-qualified-name="SessionEnding..start.SessionEnding" data-source-line="40" id="ent0038"><ellipse cx="3884.375" cy="839.4844" fill="#222222" rx="15.625" ry="15.625" style="stroke:#222222;stroke-width:1.5625;"/></g><g class="entity" data-qualified-name="SessionEnding.EjectCard" id="ent0039"><rect fill="#F1F1F1" height="78.125" rx="19.5313" ry="19.5313" style="stroke:#181818;stroke-width:0.7813;" width="136.7691" x="3830.0469" y="998.8594"/><line style="stroke:#181818;stroke-width:0.7813;" x1="3830.0469" x2="3966.816" y1="1039.9482" y2="1039.9482"/><text fill="#000000" font-family="sans-serif" font-size="21.875" lengthAdjust="spacing" textLength="105.5191" x="3845.6719" y="1026.9767">EjectCard</text></g><g class="start_entity" data-qualified-name="CardRetainedBlocked..start.CardRetainedBlocked" data-source-line="45" id="ent0042"><ellipse cx="562.5" cy="560.9375" fill="#222222" rx="15.625" ry="15.625" style="stroke:#222222;stroke-width:1.5625;"/></g><g class="entity" data-qualified-name="CardRetainedBlocked.Retained" id="ent0043"><rect fill="#F1F1F1" height="78.125" rx="19.5313" ry="19.5313" style="stroke:#181818;stroke-width:0.7813;" width="129.1748" x="497.9063" y="800.4219"/><line style="stroke:#181818;stroke-width:0.7813;" x1="497.9063" x2="627.0811" y1="841.5107" y2="841.5107"/><text fill="#000000" font-family="sans-serif" font-size="21.875" lengthAdjust="spacing" textLength="97.9248" x="513.5313" y="828.5392">Retained</text></g><g class="entity" data-qualified-name="CardRetainedBlocked.Blocked" id="ent0045"><rect fill="#F1F1F1" height="78.125" rx="19.5313" ry="19.5313" style="stroke:#181818;stroke-width:0.7813;" width="117.7567" x="525.5" y="998.8594"/><line style="stroke:#181818;stroke-width:0.7813;" x1="525.5" x2="643.2567" y1="1039.9482" y2="1039.9482"/><text fill="#000000" font-family="sans-serif" font-size="21.875" lengthAdjust="spacing" textLength="86.5067" x="541.125" y="1026.9767">Blocked</text></g><path d="M651.2656,1225.4219 L798.7433,1225.4219 A19.5313,19.5313 0 0 1 818.2746,1244.9531 L818.2746,1266.5107 L631.7344,1266.5107 L631.7344,1244.9531 A19.5313,19.5313 0 0 1 651.2656,1225.4219" fill="#F1F1F1"/><rect fill="none" height="266.0889" rx="19.5313" ry="19.5313" style="stroke:#181818;stroke-width:0.7813;" width="186.5402" x="631.7344" y="1225.4219"/><line style="stroke:#181818;stroke-width:0.7813;" x1="631.7344" x2="818.2746" y1="1266.5107" y2="1266.5107"/><text fill="#000000" font-family="sans-serif" font-size="21.875" lengthAdjust="spacing" textLength="81.3049" x="684.352" y="1253.5392">NoCard</text><g class="start_entity" data-qualified-name="NoCard..start.NoCard" data-source-line="8" id="ent0004"><ellipse cx="689.5469" cy="1299.3232" fill="#222222" rx="15.625" ry="15.625" style="stroke:#222222;stroke-width:1.5625;"/></g><g class="entity" data-qualified-name="NoCard.Idle" id="ent0005"><rect fill="#F1F1F1" height="78.125" rx="19.5313" ry="19.5313" style="stroke:#181818;stroke-width:0.7813;" width="78.125" x="650.4844" y="1397.7607"/><line style="stroke:#181818;stroke-width:0.7813;" x1="650.4844" x2="728.6094" y1="1438.8496" y2="1438.8496"/><text fill="#000000" font-family="sans-serif" font-size="21.875" lengthAdjust="spacing" textLength="39.8727" x="669.6105" y="1425.8781">Idle</text></g><!--link *start*NoCard to Idle--><g class="link" data-entity-1="ent0004" data-entity-2="ent0005" data-link-type="dependency" data-source-line="8" id="lnk6"><path d="M689.5469,1315.2607 C689.5469,1334.6357 689.5469,1360.4326 689.5469,1387.6982" fill="none" id="*start*NoCard-to-Idle" style="stroke:#181818;stroke-width:1.5625;"/><polygon fill="#181818" points="689.5469,1397.0732,695.7969,1383.0107,689.5469,1389.2607,683.2969,1383.0107,689.5469,1397.0732" style="stroke:#181818;stroke-width:1.5625;"/><text fill="#000000" font-family="sans-serif" font-size="20.3125" lengthAdjust="spacing" textLength="111.5402" x="691.1094" y="1363.4903">&#1053;&#1077;&#1090; &#1082;&#1072;&#1088;&#1090;&#1099;</text></g><path d="M202.7188,1611.8125 L544.1502,1611.8125 A19.5313,19.5313 0 0 1 563.6814,1631.3438 L563.6814,1652.9014 L183.1875,1652.9014 L183.1875,1631.3438 A19.5313,19.5313 0 0 1 202.7188,1611.8125" fill="#F1F1F1"/><rect fill="none" height="266.0889" rx="19.5313" ry="19.5313" style="stroke:#181818;stroke-width:0.7813;" width="380.4939" x="183.1875" y="1611.8125"/><line style="stroke:#181818;stroke-width:0.7813;" x1="183.1875" x2="563.6814" y1="1652.9014" y2="1652.9014"/><text fill="#000000" font-family="sans-serif" font-size="21.875" lengthAdjust="spacing" textLength="141.6428" x="302.6131" y="1639.9299">CardInserted</text><g class="start_entity" data-qualified-name="CardInserted..start.CardInserted" data-source-line="12" id="ent0007"><ellipse cx="253.5" cy="1685.7139" fill="#222222" rx="15.625" ry="15.625" style="stroke:#222222;stroke-width:1.5625;"/></g><g class="entity" data-qualified-name="CardInserted.CardIn" id="ent0008"><rect fill="#F1F1F1" height="78.125" rx="19.5313" ry="19.5313" style="stroke:#181818;stroke-width:0.7813;" width="103.1235" x="201.9375" y="1784.1514"/><line style="stroke:#181818;stroke-width:0.7813;" x1="201.9375" x2="305.061" y1="1825.2402" y2="1825.2402"/><text fill="#000000" font-family="sans-serif" font-size="21.875" lengthAdjust="spacing" textLength="71.8735" x="217.5625" y="1812.2687">CardIn</text></g><!--link *start*CardInserted to CardIn--><g class="link" data-entity-1="ent0007" data-entity-2="ent0008" data-link-type="dependency" data-source-line="12" id="lnk9"><path d="M253.5,1701.6514 C253.5,1721.0264 253.5,1746.8232 253.5,1774.0889" fill="none" id="*start*CardInserted-to-CardIn" style="stroke:#181818;stroke-width:1.5625;"/><polygon fill="#181818" points="253.5,1783.4639,259.75,1769.4014,253.5,1775.6514,247.25,1769.4014,253.5,1783.4639" style="stroke:#181818;stroke-width:1.5625;"/><text fill="#000000" font-family="sans-serif" font-size="20.3125" lengthAdjust="spacing" textLength="292.9939" x="255.0625" y="1749.8809">&#1050;&#1072;&#1088;&#1090;&#1072; &#1074;&#1089;&#1090;&#1072;&#1074;&#1083;&#1077;&#1085;&#1072; (16 &#1094;&#1080;&#1092;&#1088;)</text></g><g class="start_entity" data-qualified-name=".start." data-source-line="5" id="ent0002"><ellipse cx="890.625" cy="1037.9219" fill="#222222" rx="15.625" ry="15.625" style="stroke:#222222;stroke-width:1.5625;"/></g><g class="entity" data-qualified-name="GMN2" data-source-line="56" id="ent0003"><path d="M3771.9531,541.2969 L3771.9531,580.5669 L4121.7914,580.5669 L4121.7914,556.9219 L4106.1664,541.2969 L3771.9531,541.2969" fill="#FAFAFA" style="stroke:#181818;stroke-width:0.7813;"/><path d="M4106.1664,541.2969 L4106.1664,556.9219 L4121.7914,556.9219 L4106.1664,541.2969" fill="#FAFAFA" style="stroke:#181818;stroke-width:1.5625;"/><text fill="#000000" font-family="sans-serif" font-size="20.3125" lengthAdjust="spacing" textLength="317.0258" x="3781.3281" y="567.9639">&#1055;&#1088;&#1086;&#1074;&#1077;&#1088;&#1082;&#1072; &#1095;&#1077;&#1088;&#1077;&#1079; BankGateway</text></g><g class="entity" data-qualified-name="GMN5" data-source-line="60" id="ent0006"><path d="M4176.5625,541.2969 L4176.5625,580.5669 L4614.0778,580.5669 L4614.0778,556.9219 L4598.4528,541.2969 L4176.5625,541.2969" fill="#FAFAFA" style="stroke:#181818;stroke-width:0.7813;"/><path d="M4598.4528,541.2969 L4598.4528,556.9219 L4614.0778,556.9219 L4598.4528,541.2969" fill="#FAFAFA" style="stroke:#181818;stroke-width:1.5625;"/><text fill="#000000" font-family="sans-serif" font-size="20.3125" lengthAdjust="spacing" textLength="404.7028" x="4185.9375" y="567.9639">&#1041;&#1083;&#1086;&#1082;&#1080;&#1088;&#1086;&#1074;&#1082;&#1072; &#1074; &#1073;&#1072;&#1085;&#1082;&#1077; + &#1080;&#1079;&#1098;&#1103;&#1090;&#1080;&#1077; &#1082;&#1072;&#1088;&#1090;&#1099;</text></g><g class="entity" data-qualified-name="GMN8" data-source-line="64" id="ent0009"><path d="M4668.5313,505.8437 L4668.5313,616.0488 L5200.21,616.0488 L5200.21,521.4687 L5184.585,505.8437 L4668.5313,505.8437" fill="#FAFAFA" style="stroke:#181818;stroke-width:0.7813;"/><path d="M5184.585,505.8437 L5184.585,521.4687 L5200.21,521.4687 L5184.585,505.8437" fill="#FAFAFA" style="stroke:#181818;stroke-width:1.5625;"/><text fill="#000000" font-family="sans-serif" font-size="20.3125" lengthAdjust="spacing" textLength="270.5688" x="4677.9063" y="532.5108">&#1055;&#1086;&#1089;&#1083;&#1077; &#1082;&#1072;&#1078;&#1076;&#1086;&#1081; &#1086;&#1087;&#1077;&#1088;&#1072;&#1094;&#1080;&#1080;:</text><text fill="#000000" font-family="sans-serif" font-size="20.3125" lengthAdjust="spacing" textLength="383.696" x="4677.9063" y="556.1558">&#1088;&#1077;&#1079;&#1091;&#1083;&#1100;&#1090;&#1072;&#1090; &#1085;&#1072; &#1101;&#1082;&#1088;&#1072;&#1085;, *Beep*, &#1076;&#1080;&#1072;&#1083;&#1086;&#1075;</text><text fill="#000000" font-family="sans-serif" font-size="20.3125" lengthAdjust="spacing" textLength="498.8663" x="4677.9063" y="579.8008">"Print receipt? (y/n)" &#8212; &#1074;&#1099;&#1076;&#1072;&#1095;&#1072; &#1095;&#1077;&#1082;&#1072; &#1087;&#1086; &#1074;&#1099;&#1073;&#1086;&#1088;&#1091;,</text><text fill="#000000" font-family="sans-serif" font-size="20.3125" lengthAdjust="spacing" textLength="123.8785" x="4677.9063" y="603.4458">&#1079;&#1072;&#1090;&#1077;&#1084; Enter</text></g><!--link *start* to NoCard--><g class="link" data-entity-1="ent0002" data-entity-2="ent0002" data-link-type="dependency" data-source-line="5" id="lnk3"><path d="M887.5937,1053.8125 C881.8125,1079.6406 867.8906,1135.2813 846.875,1178.5469 C838.6875,1195.4063 833.9662,1204.5037 823.7474,1221.0818" fill="none" id="*start*-to-NoCard" style="stroke:#181818;stroke-width:1.5625;"/><polygon fill="#181818" points="818.8281,1229.0625,831.5275,1220.371,822.9275,1222.4119,820.8866,1213.812,818.8281,1229.0625" style="stroke:#181818;stroke-width:1.5625;"/></g><!--link *start*PIN_Entry to EnteringPIN--><g class="link" data-entity-1="ent0010" data-entity-2="ent0011" data-link-type="dependency" data-source-line="16" id="lnk12"><path d="M266.9531,139.6562 C269.3281,165.7969 273.5283,211.8977 276.9346,249.4602" fill="none" id="*start*PIN_Entry-to-EnteringPIN" style="stroke:#181818;stroke-width:1.5625;"/><polygon fill="#181818" points="277.7813,258.7969,282.7357,244.2274,277.0757,251.0163,270.2868,245.3563,277.7813,258.7969" style="stroke:#181818;stroke-width:1.5625;"/><text fill="#000000" font-family="sans-serif" font-size="20.3125" lengthAdjust="spacing" textLength="92.2691" x="275" y="206.3545">&#1042;&#1074;&#1086;&#1076; PIN</text></g><!--link EnteringPIN to PIN_Entry--><g class="link" data-entity-1="ent0011" data-entity-2="ent0004" data-link-type="dependency" data-source-line="17" id="lnk13"><path d="M201.0781,311.2969 C129.6094,325.2344 40.9375,354.375 73.4375,410.9375 C137.6875,522.7656 313.0199,556.5379 318.7699,557.616" fill="none" id="EnteringPIN-to-PIN_Entry" style="stroke:#181818;stroke-width:1.5625;"/><polygon fill="#181818" points="327.9844,559.3437,315.3145,550.6092,320.3057,557.904,313.0109,562.8951,327.9844,559.3437" style="stroke:#181818;stroke-width:1.5625;"/><text fill="#000000" font-family="sans-serif" font-size="20.3125" lengthAdjust="spacing" textLength="305.0346" x="75" y="404.792">&#1053;&#1077;&#1074;&#1077;&#1088;&#1085;&#1099;&#1081; PIN [&#1087;&#1086;&#1087;&#1099;&#1090;&#1082;&#1080; &lt; 3]</text></g><!--link EnteringPIN to Authenticated--><g class="link" data-entity-1="ent0011" data-entity-2="ent0005" data-link-type="dependency" data-source-line="18" id="lnk14"><path d="M361.75,299.9219 C866.6406,299.8281 3579.3125,304.8594 3704.6875,423.4375 C3710.1113,428.5684 3714.3896,434.4946 3717.7222,440.9429 C3718.5554,442.555 3719.3294,444.1997 3720.0475,445.8727 C3720.4065,446.7092 3717.3464,438.8181 3717.6779,439.6682" fill="none" id="EnteringPIN-to-Authenticated" style="stroke:#181818;stroke-width:1.5625;"/><polygon fill="#181818" points="3721.0829,448.403,3721.7985,433.0308,3718.2454,441.124,3710.1521,437.5709,3721.0829,448.403" style="stroke:#181818;stroke-width:1.5625;"/><text fill="#000000" font-family="sans-serif" font-size="20.3125" lengthAdjust="spacing" textLength="171.6446" x="3673.4375" y="404.792">&#1050;&#1086;&#1088;&#1088;&#1077;&#1082;&#1090;&#1085;&#1099;&#1081; PIN</text></g><!--link EnteringPIN to CardRetainedBlocked--><g class="link" data-entity-1="ent0011" data-entity-2="ent0007" data-link-type="dependency" data-source-line="19" id="lnk15"><path d="M330.0156,337.7969 C368.4844,366.7344 419.5625,403.0156 443.75,410.9375 C463.2344,417.3125 797.5938,409.375 812.5,423.4375 C817.9297,428.5625 822.2124,434.4844 825.5482,440.9294 C826.3821,442.5407 827.1569,444.1847 827.8756,445.8571 C828.235,446.6933 825.1716,438.8032 825.5033,439.6531" fill="none" id="EnteringPIN-to-CardRetainedBlocked" style="stroke:#181818;stroke-width:1.5625;"/><polygon fill="#181818" points="828.912,448.3864,829.6212,433.0139,826.0714,441.1087,817.9767,437.5589,828.912,448.3864" style="stroke:#181818;stroke-width:1.5625;"/><text fill="#000000" font-family="sans-serif" font-size="20.3125" lengthAdjust="spacing" textLength="322.0543" x="445.3125" y="404.792">&#1053;&#1077;&#1074;&#1077;&#1088;&#1085;&#1099;&#1081; PIN [&#1087;&#1086;&#1087;&#1099;&#1090;&#1082;&#1080; &gt;= 3]</text></g><!--link EnteringPIN to CardRetainedBlocked--><g class="link" data-entity-1="ent0011" data-entity-2="ent0007" data-link-type="dependency" data-source-line="20" id="lnk16"><path d="M361.8281,298.6406 C463.8438,300.1875 642.2813,314 775,384.375 C796.2656,395.6562 802.5,401.5469 812.5,423.4375 C815.5508,430.1211 818.0459,437.1794 820.0752,444.4238 C820.3289,445.3293 820.5752,446.2378 820.8145,447.1487 C820.8743,447.3765 818.5881,438.5276 818.647,438.7556" fill="none" id="EnteringPIN-to-CardRetainedBlocked-1" style="stroke:#181818;stroke-width:1.5625;"/><polygon fill="#181818" points="820.9927,447.8324,823.5254,432.6535,819.0379,440.2684,811.423,435.781,820.9927,447.8324" style="stroke:#181818;stroke-width:1.5625;"/><text fill="#000000" font-family="sans-serif" font-size="20.3125" lengthAdjust="spacing" textLength="281.8954" x="807.8125" y="404.792">&#1050;&#1072;&#1088;&#1090;&#1072; &#1091;&#1078;&#1077; &#1079;&#1072;&#1073;&#1083;&#1086;&#1082;&#1080;&#1088;&#1086;&#1074;&#1072;&#1085;&#1072;</text></g><!--link *start*Authenticated to Menu--><g class="link" data-entity-1="ent0017" data-entity-2="ent0018" data-link-type="dependency" data-source-line="24" id="lnk19"><path d="M2718.9688,576.0781 C2710.5313,600.4375 2690.5625,652.4531 2662.5,689.4844 C2627.625,735.5 2584.1696,772.2938 2547.3883,799.9032" fill="none" id="*start*Authenticated-to-Menu" style="stroke:#181818;stroke-width:1.5625;"/><polygon fill="#181818" points="2539.8906,805.5312,2554.8892,802.0876,2546.1387,800.8412,2547.3851,792.0907,2539.8906,805.5312" style="stroke:#181818;stroke-width:1.5625;"/><text fill="#000000" font-family="sans-serif" font-size="20.3125" lengthAdjust="spacing" textLength="170.6329" x="2679.6875" y="683.3389">&#1052;&#1077;&#1085;&#1102; &#1086;&#1087;&#1077;&#1088;&#1072;&#1094;&#1080;&#1081;</text></g><!--link Menu to CheckBalance--><g class="link" data-entity-1="ent0018" data-entity-2="ent0020" data-link-type="dependency" data-source-line="25" id="lnk21"><path d="M2447.6719,841.9375 C2204.6719,846.9062 1081.0625,872.6562 1031.25,925.4219 C1003.7656,954.5312 1030.4848,978.0075 1072.8911,998.3512" fill="none" id="Menu-to-CheckBalance" style="stroke:#181818;stroke-width:1.5625;"/><polygon fill="#181818" points="1081.3438,1002.4062,1071.3681,990.6886,1074.2999,999.0271,1065.9614,1001.9588,1081.3438,1002.4062" style="stroke:#181818;stroke-width:1.5625;"/><text fill="#000000" font-family="sans-serif" font-size="20.3125" lengthAdjust="spacing" textLength="175.7904" x="1032.8125" y="945.8389">1. Check Balance</text></g><!--link CheckBalance to Menu--><g class="link" data-entity-1="ent0020" data-entity-2="ent0018" data-link-type="dependency" data-source-line="31" id="lnk32"><path d="M1209.5,998.3594 C1235.1719,972.8594 1272.5469,941.1406 1312.5,925.4219 C1524.6094,841.9062 2246.2032,839.7206 2437.9845,840.6424" fill="none" id="CheckBalance-to-Menu" style="stroke:#181818;stroke-width:1.5625;"/><polygon fill="#181818" points="2447.3594,840.6875,2433.3271,834.37,2439.547,840.6499,2433.267,846.8698,2447.3594,840.6875" style="stroke:#181818;stroke-width:1.5625;"/><text fill="#000000" font-family="sans-serif" font-size="20.3125" lengthAdjust="spacing" textLength="193.7325" x="1314.0625" y="945.8389">&#1088;&#1077;&#1079;&#1091;&#1083;&#1100;&#1090;&#1072;&#1090; + Enter</text></g><!--link Menu to Withdraw--><g class="link" data-entity-1="ent0018" data-entity-2="ent0022" data-link-type="dependency" data-source-line="26" id="lnk23"><path d="M2447.5156,841.5156 C2263.7813,843.8437 1592.3281,857.0469 1529.6875,925.4219 C1507.7656,949.3437 1523.6884,971.0576 1553.2197,992.5732" fill="none" id="Menu-to-Withdraw" style="stroke:#181818;stroke-width:1.5625;"/><polygon fill="#181818" points="1560.7969,998.0937,1553.1114,984.7615,1554.4825,993.4933,1545.7507,994.8644,1560.7969,998.0937" style="stroke:#181818;stroke-width:1.5625;"/><text fill="#000000" font-family="sans-serif" font-size="20.3125" lengthAdjust="spacing" textLength="122.7081" x="1531.25" y="945.8389">2. Withdraw</text></g><!--link Withdraw to Menu--><g class="link" data-entity-1="ent0022" data-entity-2="ent0018" data-link-type="dependency" data-source-line="32" id="lnk33"><path d="M1660.9688,998.3281 C1685.0625,973.1562 1720.0625,941.8594 1757.8125,925.4219 C1882.9375,870.9062 2297.1021,849.1774 2438.2115,843.2087" fill="none" id="Withdraw-to-Menu" style="stroke:#181818;stroke-width:1.5625;"/><polygon fill="#181818" points="2447.5781,842.8125,2433.2641,837.1624,2439.7726,843.1427,2433.7923,849.6512,2447.5781,842.8125" style="stroke:#181818;stroke-width:1.5625;"/><text fill="#000000" font-family="sans-serif" font-size="20.3125" lengthAdjust="spacing" textLength="193.7325" x="1759.375" y="945.8389">&#1088;&#1077;&#1079;&#1091;&#1083;&#1100;&#1090;&#1072;&#1090; + Enter</text></g><!--link Menu to Deposit--><g class="link" data-entity-1="ent0018" data-entity-2="ent0024" data-link-type="dependency" data-source-line="27" id="lnk25"><path d="M2447.4063,841.2656 C2331.7969,842.9219 2035.5938,854.1719 1975,925.4219 C1954.0313,950.0625 1970.4376,972.7832 1998.7032,994.7207" fill="none" id="Menu-to-Deposit" style="stroke:#181818;stroke-width:1.5625;"/><polygon fill="#181818" points="2006.1094,1000.4687,1998.8322,986.9093,1999.9376,995.6787,1991.1682,996.7841,2006.1094,1000.4687" style="stroke:#181818;stroke-width:1.5625;"/><text fill="#000000" font-family="sans-serif" font-size="20.3125" lengthAdjust="spacing" textLength="103.4866" x="1976.5625" y="945.8389">3. Deposit</text></g><!--link Deposit to Menu--><g class="link" data-entity-1="ent0024" data-entity-2="ent0018" data-link-type="dependency" data-source-line="33" id="lnk34"><path d="M2097.8594,998.5 C2121.2813,974.3906 2154.3906,944.2656 2189.0625,925.4219 C2273.6875,879.4062 2376.2213,858.2723 2438.1588,848.616" fill="none" id="Deposit-to-Menu" style="stroke:#181818;stroke-width:1.5625;"/><polygon fill="#181818" points="2447.4219,847.1719,2432.5645,843.1627,2439.7026,848.3753,2434.49,855.5135,2447.4219,847.1719" style="stroke:#181818;stroke-width:1.5625;"/><text fill="#000000" font-family="sans-serif" font-size="20.3125" lengthAdjust="spacing" textLength="193.7325" x="2190.625" y="945.8389">&#1088;&#1077;&#1079;&#1091;&#1083;&#1100;&#1090;&#1072;&#1090; + Enter</text></g><!--link Menu to Transfer--><g class="link" data-entity-1="ent0018" data-entity-2="ent0026" data-link-type="dependency" data-source-line="28" id="lnk27"><path d="M2447.375,870.75 C2429.5469,884.9219 2411.1875,903.5781 2401.5625,925.4219 C2389.5469,952.6875 2401.4241,972.575 2425.2835,992.4656" fill="none" id="Menu-to-Transfer" style="stroke:#181818;stroke-width:1.5625;"/><polygon fill="#181818" points="2432.4844,998.4687,2425.6851,984.6635,2426.4836,993.4661,2417.6809,994.2647,2432.4844,998.4687" style="stroke:#181818;stroke-width:1.5625;"/><text fill="#000000" font-family="sans-serif" font-size="20.3125" lengthAdjust="spacing" textLength="110.4988" x="2403.125" y="945.8389">4. Transfer</text></g><!--link Transfer to Menu--><g class="link" data-entity-1="ent0026" data-entity-2="ent0018" data-link-type="dependency" data-source-line="34" id="lnk35"><path d="M2510.4531,998.1562 C2517.8281,976.9062 2524.0781,949.8906 2520.3125,925.4219 C2517.9375,909.9375 2516.2165,902.2787 2511.4196,887.9818" fill="none" id="Transfer-to-Menu" style="stroke:#181818;stroke-width:1.5625;"/><polygon fill="#181818" points="2508.4375,879.0937,2506.9853,894.4139,2510.9226,886.5005,2518.836,890.4378,2508.4375,879.0937" style="stroke:#181818;stroke-width:1.5625;"/><text fill="#000000" font-family="sans-serif" font-size="20.3125" lengthAdjust="spacing" textLength="193.7325" x="2521.875" y="945.8389">&#1088;&#1077;&#1079;&#1091;&#1083;&#1100;&#1090;&#1072;&#1090; + Enter</text></g><!--link Menu to Payment--><g class="link" data-entity-1="ent0018" data-entity-2="ent0028" data-link-type="dependency" data-source-line="29" id="lnk29"><path d="M2539.9688,855.2969 C2587.8594,870.6094 2664.4688,896.6562 2728.125,925.4219 C2775.8125,946.9531 2819.3659,970.7847 2858.4596,993.5347" fill="none" id="Menu-to-Payment" style="stroke:#181818;stroke-width:1.5625;"/><polygon fill="#181818" points="2866.5625,998.25,2857.5518,985.7751,2859.8101,994.3206,2851.2647,996.5789,2866.5625,998.25" style="stroke:#181818;stroke-width:1.5625;"/><text fill="#000000" font-family="sans-serif" font-size="20.3125" lengthAdjust="spacing" textLength="115.6761" x="2779.6875" y="945.8389">5. Payment</text></g><!--link Payment to Menu--><g class="link" data-entity-1="ent0028" data-entity-2="ent0018" data-link-type="dependency" data-source-line="35" id="lnk36"><path d="M2932.7656,998.0781 C2932.5156,974.1094 2927.8906,944.2812 2909.375,925.4219 C2858.2031,873.25 2645.8489,851.9486 2548.8333,844.6986" fill="none" id="Payment-to-Menu" style="stroke:#181818;stroke-width:1.5625;"/><polygon fill="#181818" points="2539.4844,844,2553.042,851.2806,2547.2752,844.5822,2553.9735,838.8154,2539.4844,844" style="stroke:#181818;stroke-width:1.5625;"/><text fill="#000000" font-family="sans-serif" font-size="20.3125" lengthAdjust="spacing" textLength="193.7325" x="2925" y="945.8389">&#1088;&#1077;&#1079;&#1091;&#1083;&#1100;&#1090;&#1072;&#1090; + Enter</text></g><!--link Menu to PinChange--><g class="link" data-entity-1="ent0018" data-entity-2="ent0030" data-link-type="dependency" data-source-line="30" id="lnk31"><path d="M2539.875,842.6406 C2646.1094,847.2969 2915.5313,864.6406 3131.25,925.4219 C3193.8594,943.0625 3252.6837,969.3883 3301.6212,993.9508" fill="none" id="Menu-to-PinChange" style="stroke:#181818;stroke-width:1.5625;"/><polygon fill="#181818" points="3310,998.1562,3300.2354,986.2622,3303.0176,994.6517,3294.6281,997.4339,3310,998.1562" style="stroke:#181818;stroke-width:1.5625;"/><text fill="#000000" font-family="sans-serif" font-size="20.3125" lengthAdjust="spacing" textLength="140.8287" x="3203.125" y="945.8389">6. Pin Change</text></g><!--link PinChange to Menu--><g class="link" data-entity-1="ent0030" data-entity-2="ent0018" data-link-type="dependency" data-source-line="36" id="lnk37"><path d="M3383.7969,998.3906 C3383.2031,973.9062 3377.9063,943.4062 3357.8125,925.4219 C3296.4531,870.5156 2719.7452,848.1593 2549.3546,842.7061" fill="none" id="PinChange-to-Menu" style="stroke:#181818;stroke-width:1.5625;"/><polygon fill="#181818" points="2539.9844,842.4062,2553.8398,849.1029,2547.7929,842.6562,2554.2396,836.6093,2539.9844,842.4062" style="stroke:#181818;stroke-width:1.5625;"/><text fill="#000000" font-family="sans-serif" font-size="20.3125" lengthAdjust="spacing" textLength="193.7325" x="3375" y="945.8389">&#1088;&#1077;&#1079;&#1091;&#1083;&#1100;&#1090;&#1072;&#1090; + Enter</text></g><!--link *start*SessionEnding to EjectCard--><g class="link" data-entity-1="ent0038" data-entity-2="ent0039" data-link-type="dependency" data-source-line="40" id="lnk40"><path d="M3885.4375,855.7187 C3887.5938,885.7031 3891.8876,945.4774 3895.0283,988.9931" fill="none" id="*start*SessionEnding-to-EjectCard" style="stroke:#181818;stroke-width:1.5625;"/><polygon fill="#181818" points="3895.7031,998.3437,3900.9246,983.8678,3895.1407,990.5515,3888.457,984.7676,3895.7031,998.3437" style="stroke:#181818;stroke-width:1.5625;"/><text fill="#000000" font-family="sans-serif" font-size="20.3125" lengthAdjust="spacing" textLength="198.8602" x="3893.75" y="945.8389">&#1048;&#1079;&#1074;&#1083;&#1077;&#1095;&#1077;&#1085;&#1080;&#1077; &#1082;&#1072;&#1088;&#1090;&#1099;</text></g><!--link EjectCard to NoCard--><g class="link" data-entity-1="ent0039" data-entity-2="ent0002" data-link-type="dependency" data-source-line="41" id="lnk41"><path d="M3839.9531,1077.5937 C3802.7969,1099.7656 3752.7813,1125.9219 3704.6875,1139.4844 C3142.1094,1298 1270.0449,1345.7271 827.9511,1354.9146" fill="none" id="EjectCard-to-NoCard" style="stroke:#181818;stroke-width:1.5625;"/><polygon fill="#181818" points="818.5781,1355.1094,832.7674,1361.0658,826.3889,1354.9471,832.5077,1348.5685,818.5781,1355.1094" style="stroke:#181818;stroke-width:1.5625;"/><text fill="#000000" font-family="sans-serif" font-size="20.3125" lengthAdjust="spacing" textLength="182.1777" x="3620.3125" y="1172.4014">&#1050;&#1072;&#1088;&#1090;&#1072; &#1080;&#1079;&#1074;&#1083;&#1077;&#1095;&#1077;&#1085;&#1072;</text></g><!--link *start*CardRetainedBlocked to Retained--><g class="link" data-entity-1="ent0042" data-entity-2="ent0043" data-link-type="dependency" data-source-line="45" id="lnk44"><path d="M562.5,577.3125 C562.5,618.9844 562.5,728.875 562.5,790.5625" fill="none" id="*start*CardRetainedBlocked-to-Retained" style="stroke:#181818;stroke-width:1.5625;"/><polygon fill="#181818" points="562.5,799.9375,568.75,785.875,562.5,792.125,556.25,785.875,562.5,799.9375" style="stroke:#181818;stroke-width:1.5625;"/><text fill="#000000" font-family="sans-serif" font-size="20.3125" lengthAdjust="spacing" textLength="145.3514" x="564.0625" y="683.3389">&#1050;&#1072;&#1088;&#1090;&#1072; &#1080;&#1079;&#1098;&#1103;&#1090;&#1072;</text></g><!--link Retained to Blocked--><g class="link" data-entity-1="ent0043" data-entity-2="ent0045" data-link-type="dependency" data-source-line="46" id="lnk46"><path d="M566.7656,879.1562 C570.625,913.5781 575.2243,954.6205 579.068,989.0111" fill="none" id="Retained-to-Blocked" style="stroke:#181818;stroke-width:1.5625;"/><polygon fill="#181818" points="580.1094,998.3281,584.7587,983.6584,579.2416,990.564,572.336,985.0469,580.1094,998.3281" style="stroke:#181818;stroke-width:1.5625;"/><text fill="#000000" font-family="sans-serif" font-size="20.3125" lengthAdjust="spacing" textLength="232.6218" x="576.5625" y="945.8389">&#1050;&#1072;&#1088;&#1090;&#1072; &#1079;&#1072;&#1073;&#1083;&#1086;&#1082;&#1080;&#1088;&#1086;&#1074;&#1072;&#1085;&#1072;</text></g><!--link Blocked to NoCard--><g class="link" data-entity-1="ent0045" data-entity-2="ent0002" data-link-type="dependency" data-source-line="47" id="lnk47"><path d="M601.0625,1077.1406 C617.2813,1113.7656 639.0935,1162.9753 662.8279,1216.5534" fill="none" id="Blocked-to-NoCard" style="stroke:#181818;stroke-width:1.5625;"/><polygon fill="#181818" points="666.625,1225.125,666.6437,1209.7362,663.4607,1217.982,655.2149,1214.799,666.625,1225.125" style="stroke:#181818;stroke-width:1.5625;"/><text fill="#000000" font-family="sans-serif" font-size="20.3125" lengthAdjust="spacing" textLength="189.6858" x="643.75" y="1172.4014">&#1055;&#1086;&#1089;&#1083;&#1077; &#1089;&#1086;&#1086;&#1073;&#1097;&#1077;&#1085;&#1080;&#1103;</text></g><!--link NoCard to CardInserted--><g class="link" data-entity-1="ent0002" data-entity-2="ent0003" data-link-type="dependency" data-source-line="50" id="lnk48"><path d="M631.25,1462.2344 C589.3438,1507.9063 545.7579,1555.4183 501.0704,1604.1527" fill="none" id="NoCard-to-CardInserted" style="stroke:#181818;stroke-width:1.5625;"/><polygon fill="#181818" points="494.7344,1611.0625,508.8449,1604.9218,500.0144,1605.3043,499.6319,1596.4738,494.7344,1611.0625" style="stroke:#181818;stroke-width:1.5625;"/><text fill="#000000" font-family="sans-serif" font-size="20.3125" lengthAdjust="spacing" textLength="269.9043" x="562.5" y="1558.792">&#1042;&#1089;&#1090;&#1072;&#1074;&#1082;&#1072; &#1082;&#1072;&#1088;&#1090;&#1099; (16 &#1094;&#1080;&#1092;&#1088;)</text></g><!--link CardInserted to PIN_Entry--><g class="link" data-entity-1="ent0003" data-entity-2="ent0004" data-link-type="dependency" data-source-line="51" id="lnk49"><path d="M350.0469,1611.1562 C338.9688,1537.5 328.125,1443.9531 328.125,1360.0156 C328.125,837.9219 328.125,837.9219 328.125,837.9219 C328.125,777.6719 328.125,710.0117 328.125,656.8301 C328.125,630.2393 328.125,607.2681 328.125,590.6526 C328.125,586.4987 328.125,582.7421 328.125,579.4254 C328.125,577.7671 328.125,576.2188 328.125,574.7858 C328.125,574.6067 328.125,583.8043 328.125,583.6288" fill="none" id="CardInserted-to-PIN_Entry" style="stroke:#181818;stroke-width:1.5625;"/><polygon fill="#181818" points="328.125,574.2538,321.875,588.3163,328.125,582.0663,334.375,588.3163,328.125,574.2538" style="stroke:#181818;stroke-width:1.5625;"/><text fill="#000000" font-family="sans-serif" font-size="20.3125" lengthAdjust="spacing" textLength="92.2691" x="329.6875" y="1045.0576">&#1042;&#1074;&#1086;&#1076; PIN</text></g><!--link Authenticated to SessionEnding--><g class="link" data-entity-1="ent0005" data-entity-2="ent0006" data-link-type="dependency" data-source-line="52" id="lnk50"><path d="M3729.7526,597.0244 C3730.554,598.457 3731.3998,599.878 3732.2917,601.2747 C3735.8594,606.8613 3740.1641,612.0586 3745.3125,616.0469 C3877.2813,718.25 4001.3906,576.0156 4110.9375,701.9844 C4115.7598,707.5273 4119.5974,713.7212 4122.6182,720.327 C4123.3734,721.9784 4124.0775,723.6556 4124.7332,725.3549 C4124.8972,725.7797 4121.8096,717.4116 4121.9675,717.8391" fill="none" id="Authenticated-to-SessionEnding" style="stroke:#181818;stroke-width:1.5625;"/><polygon fill="#181818" points="4125.216,726.6333,4126.206,711.2764,4122.5089,719.3048,4114.4804,715.6077,4125.216,726.6333" style="stroke:#181818;stroke-width:1.5625;"/><text fill="#000000" font-family="sans-serif" font-size="20.3125" lengthAdjust="spacing" textLength="173.7373" x="4098.4375" y="683.3389">7. Exit / &#1058;&#1072;&#1081;&#1084;&#1072;&#1091;&#1090;</text></g><!--link Menu to SessionEnding--><g class="link" data-entity-1="ent0018" data-entity-2="ent0006" data-link-type="dependency" data-source-line="53" id="lnk51"><path d="M2540.0625,833.0625 C2708.9375,810.0625 3307.7656,731.6719 3804.6875,706.5312 C3940.625,699.6562 4010.2813,614.9062 4110.9375,706.5312 C4116.0801,711.2129 4120.189,716.623 4123.4358,722.5267 C4123.8417,723.2646 4124.2341,724.0103 4124.6133,724.7632 C4124.8029,725.1397 4124.9893,725.5179 4125.1724,725.898 C4125.2639,726.088 4121.3589,717.7976 4121.4488,717.9885" fill="none" id="Menu-to-SessionEnding" style="stroke:#181818;stroke-width:1.5625;"/><polygon fill="#181818" points="4125.4446,726.4693,4125.1048,711.0842,4122.1148,719.4019,4113.7971,716.4119,4125.4446,726.4693" style="stroke:#181818;stroke-width:1.5625;"/><text fill="#000000" font-family="sans-serif" font-size="20.3125" lengthAdjust="spacing" textLength="64.2998" x="2594.5313" y="683.3389">7. Exit</text></g><!--link PIN_Entry to GMN2--><g class="link" data-entity-1="ent0004" data-entity-2="ent0003" data-link-type="association" data-source-line="56" id="lnk4"><path d="M399.1007,467.4389 C399.3679,467.1568 399.6358,466.8749 399.9043,466.593 C402.0522,464.3376 404.2394,462.086 406.4644,459.8436 C415.3648,450.8743 424.8724,442.0542 434.9065,433.7471 C454.9746,417.1328 477.1484,402.5703 500.7813,392.9687 C583.5,359.375 3629.9063,365.4531 3714.8438,392.9687 C3806.1563,422.5469 3891.6719,503 3928.2188,540.7969" fill="none" id="PIN_Entry-GMN2" style="stroke:#181818;stroke-width:1.5625;stroke-dasharray:10.9375,10.9375;"/></g><!--link CardRetainedBlocked to GMN5--><g class="link" data-entity-1="ent0007" data-entity-2="ent0006" data-link-type="association" data-source-line="60" id="lnk7"><path d="M837.7037,538.4404 C837.9378,538.0521 838.1749,537.6599 838.4151,537.2638 C838.8954,536.4716 839.3879,535.6641 839.8926,534.8418 C847.9668,521.6855 859.1367,504.7656 872.9375,486.9766 C900.5391,451.3984 938.6641,412.3437 983.5938,392.9687 C1063.625,358.4687 4037.2031,369.3281 4121.0938,392.9687 C4224.7969,422.2031 4328,502.8281 4372.5,540.7344" fill="none" id="CardRetainedBlocked-GMN5" style="stroke:#181818;stroke-width:1.5625;stroke-dasharray:10.9375,10.9375;"/></g><!--link Authenticated to GMN8--><g class="link" data-entity-1="ent0005" data-entity-2="ent0009" data-link-type="association" data-source-line="64" id="lnk10"><path d="M3727.3685,447.8224 C3727.5626,447.2715 3727.7598,446.7221 3727.9601,446.1743 C3728.3606,445.0788 3728.7734,443.9896 3729.1989,442.9077 C3730.9007,438.5798 3732.8049,434.3672 3734.9333,430.3206 C3743.4473,414.1338 3755.5508,400.6016 3772.6563,392.9687 C3858.1094,354.8437 4524,370.5469 4614.8438,392.9687 C4702.7656,414.6719 4793.2344,465.3906 4855.375,505.4531" fill="none" id="Authenticated-GMN8" style="stroke:#181818;stroke-width:1.5625;stroke-dasharray:10.9375,10.9375;"/></g><?plantuml-src bLNTJXD15BxVfpZXYjz5H30XYX4aXWi9KHCl236JtO6kRMURtINO69DIZ4Qh4eqNncX8V8A2LDe2vHLcNi4dyPpPxcvtQKrjBzgP-SutvtndvXi_xuWIyrWHYgvmhPpd5Za4tWut_7Z5pp7RtNN4DconWj-xOfSSc9cxPXWRuvimDRK8Q-uoysp3y0CMyEu8NXY0dmYoQXSuB83y8Hkg2h8jwwgYggfcl8p2A6XL-DmBU3OuNABmRs6Sh8CyLdlqHnxBCzcG5pWrEZCFwhLigbUgCfOGhw-kFLqHWLVEiE8Szx0-N2VgpyZKaIS4rx3UPO8dD64P26-eYhnGDTcYHTYGbqXmgMgOLbisuHRCRlPbkhiJvBW878jHgRgg3bPLGSusniQCVOD9YuSyO8xWzbB1jV8XnJ09BTuUbD40qaHjjIz_omR8KnJy20Nl425kri5DwoH-8dUwkhJa3xZO8UBlr37r4IWzdNIT-YPR6gn1EgiSj_9BhC24HMTdnWnde3kL1ZznWfpjiLq4NZVZKHfpZvTStmaGCcj6WpJYiSU4lyKzXDmmur4QiyxAHImG8NDcDCWW7B6SOsARifutQGZXMCDIPVMeeW_0AIfzfjwJw7XF9i9EwR2umE53edg7ZuZh7puaakC_8c9vXek9ZzOZxlkEArQ4JRQKkStFk1Leuy7pzHKFglO5zKPxGvFERk8v-Wh4-CJ1CWxJpB3KqsQLlJ3fVABLgvpgdJgWWOR7C8hfU_N-SUU888f9Lt68Zh97gGF-TF1xfDw6IgW3ggABJCorwxlaWx6ljcdtMBMClQR2hlXZhvcc3O6WwJukm4qJLfxZEPq6-HDtRibpt7HVLOtuHWs8C0pXOZSyPpiNWBkLvA2baOTTjSXXg1ZgOtZEq4D4_ZucjClA1XSs44-MhK-JGzvFcMveeOu1kqHzQQFg4xsTpfo-GTkbTEeM4BUHuj62Jt2_LjOscmiQtUS6wMTHVS1dfKAfJSBu4kUbyKb0eYREK1c_TF38Ehu70NZSuaufk0EZvManDW9_Ab_efQqXlexgXHA6zUBR4YuTwTThVp9C-PGsHinvz_96rVu5?></g></svg>