<?plantuml 1.2026.2beta3?><svg xmlns="http://www.w3.org/2000/svg" xmlns:xlink="http://www.w3.org/1999/xlink" contentStyleType="text/css" data-diagram-type="DESCRIPTION" height="1148.4375px" preserveAspectRatio="none" style="width:884px;height:1148px;background:#FFFFFF;" version="1.1" viewBox="0 0 884 1148" width="884.375px" zoomAndPan="magnify"><defs/><g><!--cluster ?????? ?????????--><g class="cluster" data-qualified-name="...... ........." data-source-line="10" id="ent0004"><rect fill="none" height="1081.25" rx="3.9063" ry="3.9063" style="stroke:#181818;stroke-width:1.5625;" width="420.2656" x="456.1094" y="10.9375"/><text fill="#000000" font-family="sans-serif" font-size="21.875" font-weight="bold" lengthAdjust="spacing" textLength="241.8747" x="545.3048" y="34.3674">&#1052;&#1086;&#1076;&#1077;&#1083;&#1100; &#1073;&#1072;&#1085;&#1082;&#1086;&#1084;&#1072;&#1090;&#1072;</text></g><!--entity Auth--><g class="entity" data-qualified-name="...... ..........Auth" data-source-line="12" id="ent0005"><ellipse cx="666.229" cy="1039.0645" fill="#F1F1F1" rx="122.0415" ry="28.1583" style="stroke:#181818;stroke-width:0.7813;"/><text fill="#000000" font-family="sans-serif" font-size="21.875" lengthAdjust="spacing" textLength="197.1741" x="567.6419" y="1046.3277">&#1040;&#1091;&#1090;&#1077;&#1085;&#1090;&#1080;&#1092;&#1080;&#1082;&#1072;&#1094;&#1080;&#1103;</text></g><!--entity Balance--><g class="entity" data-qualified-name="...... ..........Balance" data-source-line="13" id="ent0006"><ellipse cx="666.2361" cy="320.3191" fill="#F1F1F1" rx="128.8611" ry="29.5222" style="stroke:#181818;stroke-width:0.7813;"/><text fill="#000000" font-family="sans-serif" font-size="21.875" lengthAdjust="spacing" textLength="213.2278" x="559.6222" y="327.5823">&#1055;&#1088;&#1086;&#1089;&#1084;&#1086;&#1090;&#1088; &#1073;&#1072;&#1083;&#1072;&#1085;&#1089;&#1072;</text></g><!--entity Withdraw--><g class="entity" data-qualified-name="...... ..........Withdraw" data-source-line="14" id="ent0007"><ellipse cx="666.2385" cy="432.8133" fill="#F1F1F1" rx="124.6916" ry="28.6883" style="stroke:#181818;stroke-width:0.7813;"/><text fill="#000000" font-family="sans-serif" font-size="21.875" lengthAdjust="spacing" textLength="203.4546" x="564.5112" y="440.0765">&#1057;&#1085;&#1103;&#1090;&#1080;&#1077; &#1085;&#1072;&#1083;&#1080;&#1095;&#1085;&#1099;&#1093;</text></g><!--entity Deposit--><g class="entity" data-qualified-name="...... ..........Deposit" data-source-line="15" id="ent0008"><ellipse cx="666.2391" cy="546.8822" fill="#F1F1F1" rx="136.3641" ry="31.0228" style="stroke:#181818;stroke-width:0.7813;"/><text fill="#000000" font-family="sans-serif" font-size="21.875" lengthAdjust="spacing" textLength="230.5313" x="550.9734" y="554.1454">&#1042;&#1085;&#1077;&#1089;&#1077;&#1085;&#1080;&#1077; &#1085;&#1072;&#1083;&#1080;&#1095;&#1085;&#1099;&#1093;</text></g><!--entity Transfer--><g class="entity" data-qualified-name="...... ..........Transfer" data-source-line="16" id="ent0009"><ellipse cx="666.2415" cy="660.942" fill="#F1F1F1" rx="122.2883" ry="28.2077" style="stroke:#181818;stroke-width:0.7813;"/><text fill="#000000" font-family="sans-serif" font-size="21.875" lengthAdjust="spacing" textLength="197.7615" x="567.3607" y="668.2052">&#1055;&#1077;&#1088;&#1077;&#1074;&#1086;&#1076; &#1089;&#1088;&#1077;&#1076;&#1089;&#1090;&#1074;</text></g><!--entity Payment--><g class="entity" data-qualified-name="...... ..........Payment" data-source-line="17" id="ent0010"><ellipse cx="666.2295" cy="768.7459" fill="#F1F1F1" rx="105.1357" ry="24.7771" style="stroke:#181818;stroke-width:0.7813;"/><text fill="#000000" font-family="sans-serif" font-size="21.875" lengthAdjust="spacing" textLength="155.4001" x="588.5295" y="776.0091">&#1054;&#1087;&#1083;&#1072;&#1090;&#1072; &#1091;&#1089;&#1083;&#1091;&#1075;</text></g><!--entity ChangePIN--><g class="entity" data-qualified-name="...... ..........ChangePIN" data-source-line="18" id="ent0011"><ellipse cx="666.2357" cy="92.194" fill="#F1F1F1" rx="114.4857" ry="26.6471" style="stroke:#181818;stroke-width:0.7813;"/><text fill="#000000" font-family="sans-serif" font-size="21.875" lengthAdjust="spacing" textLength="178.92" x="576.7757" y="99.4572">&#1057;&#1084;&#1077;&#1085;&#1072; PIN-&#1082;&#1086;&#1076;&#1072;</text></g><!--entity Logout--><g class="entity" data-qualified-name="...... ..........Logout" data-source-line="19" id="ent0012"><ellipse cx="666.2293" cy="204.6802" fill="#F1F1F1" rx="135.2762" ry="30.8052" style="stroke:#181818;stroke-width:0.7813;"/><text fill="#000000" font-family="sans-serif" font-size="21.875" lengthAdjust="spacing" textLength="228.0426" x="552.208" y="211.9434">&#1047;&#1072;&#1074;&#1077;&#1088;&#1096;&#1077;&#1085;&#1080;&#1077; &#1089;&#1077;&#1089;&#1089;&#1080;&#1080;</text></g><!--entity RetainBlock--><g class="entity" data-qualified-name="...... ..........RetainBlock" data-source-line="21" id="ent0013"><ellipse cx="666.2416" cy="889.0577" fill="#F1F1F1" rx="185.1322" ry="40.7764" style="stroke:#181818;stroke-width:0.7813;"/><text fill="#000000" font-family="sans-serif" font-size="21.875" lengthAdjust="spacing" textLength="337.6846" x="497.3992" y="896.3209">&#1048;&#1079;&#1098;&#1103;&#1090;&#1080;&#1077; &#1080; &#1073;&#1083;&#1086;&#1082;&#1080;&#1088;&#1086;&#1074;&#1082;&#1072; &#1082;&#1072;&#1088;&#1090;&#1099;</text></g><!--entity Client--><g class="entity" data-qualified-name="Client" data-source-line="7" id="ent0002"><ellipse cx="51.4908" cy="444.2969" fill="#F1F1F1" rx="12.5" ry="12.5" style="stroke:#181818;stroke-width:0.7813;"/><path d="M51.4908,456.7969 L51.4908,498.9844 M31.1783,469.2969 L71.8033,469.2969 M51.4908,498.9844 L31.1783,522.4219 M51.4908,498.9844 L71.8033,522.4219" fill="none" style="stroke:#181818;stroke-width:0.7813;"/><text fill="#000000" font-family="sans-serif" font-size="21.875" lengthAdjust="spacing" textLength="84.2316" x="9.375" y="545.0705">&#1050;&#1083;&#1080;&#1077;&#1085;&#1090;</text></g><!--entity Bank--><g class="entity" data-qualified-name="Bank" data-source-line="8" id="ent0003"><ellipse cx="51.4945" cy="1034.9219" fill="#F1F1F1" rx="12.5" ry="12.5" style="stroke:#181818;stroke-width:0.7813;"/><path d="M51.4945,1047.4219 L51.4945,1089.6094 M31.182,1059.9219 L71.807,1059.9219 M51.4945,1089.6094 L31.182,1113.0469 M51.4945,1089.6094 L71.807,1113.0469" fill="none" style="stroke:#181818;stroke-width:0.7813;"/><text fill="#000000" font-family="sans-serif" font-size="21.875" lengthAdjust="spacing" textLength="55.9265" x="23.5313" y="1135.6955">&#1041;&#1072;&#1085;&#1082;</text></g><!--link Client to Auth--><g class="link" data-entity-1="ent0002" data-entity-2="ent0005" data-link-type="dependency" data-source-line="24" id="lnk14"><path d="M54.9531,550.6094 C60.0625,669.0156 78.2031,926.3906 140.4844,984.375 C197.1563,1037.1406 398.6411,1044.1425 535.0317,1042.7518" fill="none" id="Client-to-Auth" style="stroke:#181818;stroke-width:1.5625;"/><polygon fill="#181818" points="544.4063,1042.6563,530.2808,1036.5499,536.5942,1042.7359,530.4082,1049.0493,544.4063,1042.6563" style="stroke:#181818;stroke-width:1.5625;"/></g><!--link Client to Balance--><g class="link" data-entity-1="ent0002" data-entity-2="ent0006" data-link-type="dependency" data-source-line="25" id="lnk15"><path d="M94.3438,454.7188 C108.2187,444.25 124.2969,433.7188 140.4844,426.5625 C271.2813,368.75 425.0883,343.08 534.3071,330.9706" fill="none" id="Client-to-Balance" style="stroke:#181818;stroke-width:1.5625;"/><polygon fill="#181818" points="543.625,329.9375,528.9594,325.2752,535.8601,330.7984,530.3369,337.6991,543.625,329.9375" style="stroke:#181818;stroke-width:1.5625;"/></g><!--link Client to Withdraw--><g class="link" data-entity-1="ent0002" data-entity-2="ent0007" data-link-type="dependency" data-source-line="26" id="lnk16"><path d="M94.375,485.1563 C108.9375,483.3125 125.4219,481.2969 140.4844,479.6875 C280.1563,464.7187 431.7969,451.5774 538.1094,442.8743" fill="none" id="Client-to-Withdraw" style="stroke:#181818;stroke-width:1.5625;"/><polygon fill="#181818" points="547.4531,442.1094,532.9276,437.0276,539.6667,442.7468,533.9475,449.4859,547.4531,442.1094" style="stroke:#181818;stroke-width:1.5625;"/></g><!--link Client to Deposit--><g class="link" data-entity-1="ent0002" data-entity-2="ent0008" data-link-type="dependency" data-source-line="27" id="lnk17"><path d="M94.1406,494.4062 C183.7188,502.6406 390.4456,521.6574 529.4769,534.4386" fill="none" id="Client-to-Deposit" style="stroke:#181818;stroke-width:1.5625;"/><polygon fill="#181818" points="538.8125,535.2969,525.3812,527.7858,531.0328,534.5817,524.2369,540.2333,538.8125,535.2969" style="stroke:#181818;stroke-width:1.5625;"/></g><!--link Client to Transfer--><g class="link" data-entity-1="ent0002" data-entity-2="ent0009" data-link-type="dependency" data-source-line="28" id="lnk18"><path d="M58.5625,550.7656 C68.5313,644.5625 93.0938,818.8594 140.4844,856.25 C241.875,936.2656 335.7656,943.4063 431.1094,856.25 C454,835.3125 423.4844,740.8125 443.6094,717.1875 C468.7813,687.6406 497.8821,674.3076 535.554,666.8388" fill="none" id="Client-to-Transfer" style="stroke:#181818;stroke-width:1.5625;"/><polygon fill="#181818" points="544.75,665.0156,529.7405,661.6197,537.0867,666.5349,532.1714,673.8811,544.75,665.0156" style="stroke:#181818;stroke-width:1.5625;"/></g><!--link Client to Payment--><g class="link" data-entity-1="ent0002" data-entity-2="ent0010" data-link-type="dependency" data-source-line="29" id="lnk19"><path d="M56.2188,550.7656 C63.2188,657.7656 84.1875,874.3125 140.4844,920.3125 C240.5156,1002.0312 334.2656,1005.7969 431.1094,920.3125 C464.6875,890.6719 413.6406,853.6094 443.6094,820.3125 C472.875,787.8125 509.0308,775.0013 551.1246,769.5482" fill="none" id="Client-to-Payment" style="stroke:#181818;stroke-width:1.5625;"/><polygon fill="#181818" points="560.4219,768.3438,545.673,763.9522,552.6741,769.3474,547.2789,776.3486,560.4219,768.3438" style="stroke:#181818;stroke-width:1.5625;"/></g><!--link Client to ChangePIN--><g class="link" data-entity-1="ent0002" data-entity-2="ent0011" data-link-type="dependency" data-source-line="30" id="lnk20"><path d="M59.9063,430.4219 C69.1875,375.9375 90.7656,297.0156 140.4844,248.4375 C251.5312,139.9219 425.2065,107.1024 542.9722,96.9461" fill="none" id="Client-to-ChangePIN" style="stroke:#181818;stroke-width:1.5625;"/><polygon fill="#181818" points="552.3125,96.1406,537.765,91.122,544.5289,96.8119,538.839,103.5758,552.3125,96.1406" style="stroke:#181818;stroke-width:1.5625;"/></g><!--link Client to Logout--><g class="link" data-entity-1="ent0002" data-entity-2="ent0012" data-link-type="dependency" data-source-line="31" id="lnk21"><path d="M76.7969,430.6094 C91.1719,401.4219 112.25,368.1406 140.4844,346.875 C256.0938,259.7969 412.2175,227.1016 526.155,214.0078" fill="none" id="Client-to-Logout" style="stroke:#181818;stroke-width:1.5625;"/><polygon fill="#181818" points="535.4688,212.9375,520.7846,208.3339,527.7073,213.8294,522.2118,220.7521,535.4688,212.9375" style="stroke:#181818;stroke-width:1.5625;"/></g><!--link Auth to Balance--><g class="link" data-entity-1="ent0005" data-entity-2="ent0006" data-link-type="dependency" data-source-line="33" id="lnk22"><path d="M567.9219,1021.8281 C525.2344,1010.0156 477.3906,990.3437 443.6094,957.8125 C312.7656,831.8281 242.1719,748.5 298.4219,575.7813 C332.3594,471.6094 352.8281,437.9063 443.6094,376.5625 C475.1563,355.25 504.9955,344.0788 541.4955,335.8444" fill="none" id="Auth-to-Balance" style="stroke:#181818;stroke-width:1.5625;stroke-dasharray:10.9375,10.9375;"/><polygon fill="#181818" points="550.6406,333.7813,535.5474,330.7792,543.0197,335.5005,538.2983,342.9727,550.6406,333.7813" style="stroke:#181818;stroke-width:1.5625;"/><text fill="#000000" font-family="sans-serif" font-size="20.3125" lengthAdjust="spacing" textLength="98.4482" x="236.5781" y="596.1983">&#171;include&#187;</text></g><!--link Auth to Withdraw--><g class="link" data-entity-1="ent0005" data-entity-2="ent0007" data-link-type="dependency" data-source-line="34" id="lnk23"><path d="M569.75,1021.3906 C526.9375,1009.4531 478.4688,989.7969 443.6094,957.8125 C323.0469,847.2031 231.7969,768.9688 298.4219,619.5313 C343.9063,517.5 461.4104,472.5857 553.3948,451.4295" fill="none" id="Auth-to-Withdraw" style="stroke:#181818;stroke-width:1.5625;stroke-dasharray:10.9375,10.9375;"/><polygon fill="#181818" points="562.5313,449.3281,547.4256,446.3892,554.9175,451.0793,550.2275,458.5712,562.5313,449.3281" style="stroke:#181818;stroke-width:1.5625;"/><text fill="#000000" font-family="sans-serif" font-size="20.3125" lengthAdjust="spacing" textLength="98.4482" x="236.5781" y="639.9483">&#171;include&#187;</text></g><!--link Auth to Deposit--><g class="link" data-entity-1="ent0005" data-entity-2="ent0008" data-link-type="dependency" data-source-line="35" id="lnk24"><path d="M588.2031,1016.9062 C463.0469,976.75 237.3438,882.8125 298.4219,741.4063 C333.5625,660.0469 366.0313,647.5469 443.6094,604.6875 C477.1563,586.1563 507.7407,575.5679 544.2563,566.8491" fill="none" id="Auth-to-Deposit" style="stroke:#181818;stroke-width:1.5625;stroke-dasharray:10.9375,10.9375;"/><polygon fill="#181818" points="553.375,564.6719,538.2455,561.8586,545.7761,566.4862,541.1485,574.0169,553.375,564.6719" style="stroke:#181818;stroke-width:1.5625;"/><text fill="#000000" font-family="sans-serif" font-size="20.3125" lengthAdjust="spacing" textLength="98.4482" x="236.5781" y="761.8233">&#171;include&#187;</text></g><!--link Auth to Transfer--><g class="link" data-entity-1="ent0005" data-entity-2="ent0009" data-link-type="dependency" data-source-line="36" id="lnk25"><path d="M562.3906,1023.6719 C434.5625,999.5312 241,943 298.4219,827.3438 C345.7188,732.0781 456.9824,693.0579 547.248,675.636" fill="none" id="Auth-to-Transfer" style="stroke:#181818;stroke-width:1.5625;stroke-dasharray:10.9375,10.9375;"/><polygon fill="#181818" points="556.4531,673.8594,541.461,670.3876,548.7822,675.3399,543.8299,682.6611,556.4531,673.8594" style="stroke:#181818;stroke-width:1.5625;"/><text fill="#000000" font-family="sans-serif" font-size="20.3125" lengthAdjust="spacing" textLength="98.4482" x="236.5781" y="847.7608">&#171;include&#187;</text></g><!--link Auth to Payment--><g class="link" data-entity-1="ent0005" data-entity-2="ent0010" data-link-type="dependency" data-source-line="37" id="lnk26"><path d="M580.7188,1018.375 C443.6875,981.4844 199.8281,898.2656 298.4219,792.9688 C374.0938,712.1563 506.3442,727.3474 590.063,747.0974" fill="none" id="Auth-to-Payment" style="stroke:#181818;stroke-width:1.5625;stroke-dasharray:10.9375,10.9375;"/><polygon fill="#181818" points="599.1875,749.25,586.9357,739.9381,591.5837,747.4562,584.0657,752.1042,599.1875,749.25" style="stroke:#181818;stroke-width:1.5625;"/><text fill="#000000" font-family="sans-serif" font-size="20.3125" lengthAdjust="spacing" textLength="98.4482" x="236.5781" y="813.3858">&#171;include&#187;</text></g><!--link Auth to ChangePIN--><g class="link" data-entity-1="ent0005" data-entity-2="ent0011" data-link-type="dependency" data-source-line="38" id="lnk27"><path d="M572.4531,1020.6719 C529.4688,1008.5312 480.0938,988.9063 443.6094,957.8125 C342.8281,871.9219 331.75,825.8125 298.4219,697.6563 C234.6875,452.6563 262,323.2344 443.6094,146.875 C472.7344,118.5937 504.7612,105.8522 543.8706,98.7272" fill="none" id="Auth-to-ChangePIN" style="stroke:#181818;stroke-width:1.5625;stroke-dasharray:10.9375,10.9375;"/><polygon fill="#181818" points="553.0938,97.0469,538.1388,93.4185,545.4078,98.4471,540.3792,105.7161,553.0938,97.0469" style="stroke:#181818;stroke-width:1.5625;"/><text fill="#000000" font-family="sans-serif" font-size="20.3125" lengthAdjust="spacing" textLength="98.4482" x="236.5781" y="691.5108">&#171;include&#187;</text></g><!--link Auth to RetainBlock--><g class="link" data-entity-1="ent0005" data-entity-2="ent0013" data-link-type="dependency" data-source-line="40" id="lnk28"><path d="M666.2344,1010.1406 C666.2344,987.5 666.2344,965.0781 666.2344,939.75" fill="none" id="Auth-to-RetainBlock" style="stroke:#181818;stroke-width:1.5625;stroke-dasharray:10.9375,10.9375;"/><polygon fill="#181818" points="666.2344,930.375,659.9844,944.4375,666.2344,938.1875,672.4844,944.4375,666.2344,930.375" style="stroke:#181818;stroke-width:1.5625;"/><text fill="#000000" font-family="sans-serif" font-size="20.3125" lengthAdjust="spacing" textLength="95.6017" x="600.6094" y="977.5108">&#171;extend&#187;</text></g><!--link Bank to Auth--><g class="link" data-entity-1="ent0003" data-entity-2="ent0005" data-link-type="dependency" data-source-line="42" id="lnk29"><path d="M79.8281,1083.0625 C97.125,1084.1406 120.125,1085.3906 140.4844,1085.9375 C269.6094,1089.4063 302.5781,1098.7031 431.1094,1085.9375 C481.5156,1080.9375 528.0295,1072.0597 572.3576,1061.9972" fill="none" id="Bank-to-Auth" style="stroke:#181818;stroke-width:1.5625;"/><polygon fill="#181818" points="581.5,1059.9219,566.4028,1056.9399,573.8813,1061.6513,569.1699,1069.1298,581.5,1059.9219" style="stroke:#181818;stroke-width:1.5625;"/><text fill="#000000" font-family="sans-serif" font-size="20.3125" lengthAdjust="spacing" textLength="288.7985" x="142.0469" y="1079.792">&#1072;&#1074;&#1090;&#1086;&#1088;&#1080;&#1079;&#1072;&#1094;&#1080;&#1103; &#1080; &#1073;&#1083;&#1086;&#1082;&#1080;&#1088;&#1086;&#1074;&#1082;&#1072;</text></g><?plantuml-src TLDDYnD14BtthoXoZ-Z1Yom1Txq8YomYU6vcEfaca-umqyCg8YHPlt25LI-AYE8_oCQ47PBT-1Ug_v7LdKplC32vJBfUlQvNxytaGwd6FECZ66cbeoJJ8m4cAmJB0v8dFDQdKWsWpzEyZiHZ2VVktsKi5Nq3HaCc1uc1M6OYCb8hndXaT0OT_84RB765DtRM0Px3KIg5CW7-WdEymRM73haQCkPku6gG2a9_uXQNHDxOJu2NkrOgNUFSpd3UWLUC0VsAN4GyTuJFzemGFmrB-uOchwdt7Vs_y2CU5YPfK7xR2Mxjb2xTsfcTxEPit2mgplV2KguYqI3-eOuBDmTNGC8SgRJlgNXktthQSscIEEEd3TvNQbxHtQIodVj8Z7KkJLCh4IT4N3XVm4xzOKdF6IuyxLd6LTuNMOFt2_-vbPnfG0vDoT0p_EiP9_pbo0NItEtQwvl3oUCdNM_wSc_6KKBf22etADzeYuNJPp-4rToMf6vAXzAJZ_L05wQPsdUyiXzllInT1XiQkIPJA1owbb847-M4CZhtLpqLXajrcEfeo5upjdkleDljxKAkdQluQgKGJQrMMLuh1JjhjSgmMkdMabgnMjMfWJj11It-00uEf8hI8XQzNi0hIMtuNbuhlzBQXkzrj_B34WqyDDGCzotYXH4gTXtkmmtE4-RU10fpI-6LU5LzW6t1_WS0?></g></svg>