<?plantuml 1.2026.2beta3?><svg xmlns="http://www.w3.org/2000/svg" xmlns:xlink="http://www.w3.org/1999/xlink" contentStyleType="text/css" data-diagram-type="STATE" height="1501.5625px" preserveAspectRatio="none" style="width:1123px;height:1501px;background:#FFFFFF;" version="1.1" viewBox="0 0 1123 1501" width="1123.4375px" zoomAndPan="magnify"><defs/><g><!--cluster NoAccess--><g class="cluster" data-qualified-name="NoAccess" data-source-line="7" id="ent0002"><path d="M262.5313,446.875 L501.5938,446.875 A19.5313,19.5313 0 0 1 521.125,466.4063 L521.125,480.1514 L243,480.1514 L243,466.4063 A19.5313,19.5313 0 0 1 262.5313,446.875" fill="#F1F1F1"/><rect fill="none" height="334.375" rx="19.5313" ry="19.5313" style="stroke:#181818;stroke-width:0.7813;" width="278.125" x="243" y="446.875"/><line style="stroke:#181818;stroke-width:0.7813;" x1="243" x2="521.125" y1="480.1514" y2="480.1514"/><text fill="#000000" font-family="sans-serif" font-size="21.875" lengthAdjust="spacing" textLength="105.0171" x="329.554" y="473.4299">NoAccess</text></g><!--cluster TechnicianEnding--><g class="cluster" data-qualified-name="TechnicianEnding" data-source-line="24" id="ent0005"><path d="M357.8438,10.9375 L535.9688,10.9375 A19.5313,19.5313 0 0 1 555.5,30.4688 L555.5,44.2139 L338.3125,44.2139 L338.3125,30.4688 A19.5313,19.5313 0 0 1 357.8438,10.9375" fill="#F1F1F1"/><rect fill="none" height="334.375" rx="19.5313" ry="19.5313" style="stroke:#181818;stroke-width:0.7813;" width="217.1875" x="338.3125" y="10.9375"/><line style="stroke:#181818;stroke-width:0.7813;" x1="338.3125" x2="555.5" y1="44.2139" y2="44.2139"/><text fill="#000000" font-family="sans-serif" font-size="21.875" lengthAdjust="spacing" textLength="193.425" x="350.1938" y="37.4924">TechnicianEnding</text></g><g class="start_entity" data-qualified-name="NoAccess..start.NoAccess" data-source-line="8" id="ent0004"><ellipse cx="335.1875" cy="529.6875" fill="#222222" rx="15.625" ry="15.625" style="stroke:#222222;stroke-width:1.5625;"/></g><g class="entity" data-qualified-name="NoAccess.Idle" id="ent0005"><rect fill="#F1F1F1" height="78.125" rx="19.5313" ry="19.5313" style="stroke:#181818;stroke-width:0.7813;" width="78.125" x="296.125" y="665.625"/><line style="stroke:#181818;stroke-width:0.7813;" x1="296.125" x2="374.25" y1="706.7139" y2="706.7139"/><text fill="#000000" font-family="sans-serif" font-size="21.875" lengthAdjust="spacing" textLength="39.8727" x="315.2511" y="693.7424">Idle</text></g><g class="start_entity" data-qualified-name="TechnicianEnding..start.TechnicianEnding" data-source-line="25" id="ent0018"><ellipse cx="438.3125" cy="93.75" fill="#222222" rx="15.625" ry="15.625" style="stroke:#222222;stroke-width:1.5625;"/></g><g class="entity" data-qualified-name="TechnicianEnding.Logout" id="ent0019"><rect fill="#F1F1F1" height="78.125" rx="19.5313" ry="19.5313" style="stroke:#181818;stroke-width:0.7813;" width="106.5308" x="391.2969" y="229.6875"/><line style="stroke:#181818;stroke-width:0.7813;" x1="391.2969" x2="497.8276" y1="270.7764" y2="270.7764"/><text fill="#000000" font-family="sans-serif" font-size="21.875" lengthAdjust="spacing" textLength="75.2808" x="406.9219" y="257.8049">Logout</text></g><g class="entity" data-qualified-name="Authenticated" id="ent0003"><rect fill="#F1F1F1" height="78.125" rx="19.5313" ry="19.5313" style="stroke:#181818;stroke-width:0.7813;" width="185.849" x="279.75" y="892.1875"/><line style="stroke:#181818;stroke-width:0.7813;" x1="279.75" x2="465.599" y1="933.2764" y2="933.2764"/><text fill="#000000" font-family="sans-serif" font-size="21.875" lengthAdjust="spacing" textLength="154.599" x="295.375" y="920.3049">Authenticated</text></g><path d="M30.4688,1090.625 L1083.6421,1090.625 A19.5313,19.5313 0 0 1 1103.1733,1110.1563 L1103.1733,1131.7139 L10.9375,1131.7139 L10.9375,1110.1563 A19.5313,19.5313 0 0 1 30.4688,1090.625" fill="#F1F1F1"/><rect fill="none" height="402.0264" rx="19.5313" ry="19.5313" style="stroke:#181818;stroke-width:0.7813;" width="1092.2358" x="10.9375" y="1090.625"/><line style="stroke:#181818;stroke-width:0.7813;" x1="10.9375" x2="1103.1733" y1="1131.7139" y2="1131.7139"/><text fill="#000000" font-family="sans-serif" font-size="21.875" lengthAdjust="spacing" textLength="112.7716" x="500.6696" y="1118.7424">TechMenu</text><g class="start_entity" data-qualified-name="TechMenu..start.TechMenu" data-source-line="17" id="ent0009"><ellipse cx="553.6563" cy="1164.5264" fill="#222222" rx="15.625" ry="15.625" style="stroke:#222222;stroke-width:1.5625;"/></g><g class="entity" data-qualified-name="TechMenu.Available" id="ent0010"><rect fill="#F1F1F1" height="78.125" rx="19.5313" ry="19.5313" style="stroke:#181818;stroke-width:0.7813;" width="131.546" x="487.875" y="1237.9639"/><line style="stroke:#181818;stroke-width:0.7813;" x1="487.875" x2="619.421" y1="1279.0527" y2="1279.0527"/><text fill="#000000" font-family="sans-serif" font-size="21.875" lengthAdjust="spacing" textLength="100.296" x="503.5" y="1266.0812">Available</text></g><g class="entity" data-qualified-name="TechMenu.RetrieveCards" id="ent0012"><rect fill="#F1F1F1" height="78.125" rx="19.5313" ry="19.5313" style="stroke:#181818;stroke-width:0.7813;" width="186.3724" x="279.2188" y="1398.9014"/><line style="stroke:#181818;stroke-width:0.7813;" x1="279.2188" x2="465.5911" y1="1439.9902" y2="1439.9902"/><text fill="#000000" font-family="sans-serif" font-size="21.875" lengthAdjust="spacing" textLength="155.1224" x="294.8438" y="1427.0187">RetrieveCards</text></g><g class="entity" data-qualified-name="TechMenu.Reboot" id="ent0014"><rect fill="#F1F1F1" height="78.125" rx="19.5313" ry="19.5313" style="stroke:#181818;stroke-width:0.7813;" width="109.137" x="680.3437" y="1398.9014"/><line style="stroke:#181818;stroke-width:0.7813;" x1="680.3437" x2="789.4807" y1="1439.9902" y2="1439.9902"/><text fill="#000000" font-family="sans-serif" font-size="21.875" lengthAdjust="spacing" textLength="77.887" x="695.9687" y="1427.0187">Reboot</text></g><!--link *start*TechMenu to Available--><g class="link" data-entity-1="ent0009" data-entity-2="ent0010" data-link-type="dependency" data-source-line="17" id="lnk11"><path d="M553.6563,1180.8389 C553.6563,1195.3076 553.6563,1208.5732 553.6563,1228.0889" fill="none" id="*start*TechMenu-to-Available" style="stroke:#181818;stroke-width:1.5625;"/><polygon fill="#181818" points="553.6563,1237.4639,559.9063,1223.4014,553.6563,1229.6514,547.4063,1223.4014,553.6563,1237.4639" style="stroke:#181818;stroke-width:1.5625;"/></g><!--link Available to RetrieveCards--><g class="link" data-entity-1="ent0010" data-entity-2="ent0012" data-link-type="dependency" data-source-line="18" id="lnk13"><path d="M487.1406,1277.7139 C370.75,1277.7607 137.5781,1285.417 86.4688,1344.2139 C28.125,1411.3232 164.9637,1429.4874 269.1356,1434.4405" fill="none" id="Available-to-RetrieveCards" style="stroke:#181818;stroke-width:1.5625;"/><polygon fill="#181818" points="278.5,1434.8857,264.7502,1427.9749,270.6963,1434.5147,264.1565,1440.4608,278.5,1434.8857" style="stroke:#181818;stroke-width:1.5625;"/><text fill="#000000" font-family="sans-serif" font-size="20.3125" lengthAdjust="spacing" textLength="351.9379" x="88.0313" y="1364.6309">1. &#1048;&#1079;&#1074;&#1083;&#1077;&#1095;&#1077;&#1085;&#1080;&#1077; &#1091;&#1076;&#1077;&#1088;&#1078;&#1072;&#1085;&#1085;&#1099;&#1093; &#1082;&#1072;&#1088;&#1090;</text></g><!--link Available to Reboot--><g class="link" data-entity-1="ent0010" data-entity-2="ent0014" data-link-type="dependency" data-source-line="19" id="lnk15"><path d="M583.2031,1316.5889 C597.7813,1334.1045 616.2188,1354.5576 634.9063,1370.7764 C648.7031,1382.7451 656.994,1389.1194 672.2128,1399.0569" fill="none" id="Available-to-Reboot" style="stroke:#181818;stroke-width:1.5625;"/><polygon fill="#181818" points="680.0625,1404.1826,671.7051,1391.2609,673.5211,1399.9112,664.8708,1401.7272,680.0625,1404.1826" style="stroke:#181818;stroke-width:1.5625;"/><text fill="#000000" font-family="sans-serif" font-size="20.3125" lengthAdjust="spacing" textLength="173.3505" x="636.4688" y="1364.6309">2. &#1055;&#1077;&#1088;&#1077;&#1079;&#1072;&#1075;&#1088;&#1091;&#1079;&#1082;&#1072;</text></g><!--link RetrieveCards to Available--><g class="link" data-entity-1="ent0012" data-entity-2="ent0010" data-link-type="dependency" data-source-line="20" id="lnk16"><path d="M415.875,1398.5576 C444.2969,1373.8076 474.2105,1347.7604 502.7105,1322.9479" fill="none" id="RetrieveCards-to-Available" style="stroke:#181818;stroke-width:1.5625;"/><polygon fill="#181818" points="509.7813,1316.792,495.0712,1321.312,503.889,1321.9219,503.2791,1330.7397,509.7813,1316.792" style="stroke:#181818;stroke-width:1.5625;"/><text fill="#000000" font-family="sans-serif" font-size="20.3125" lengthAdjust="spacing" textLength="119.6236" x="475.5313" y="1364.6309">&#1047;&#1072;&#1074;&#1077;&#1088;&#1096;&#1077;&#1085;&#1086;</text></g><!--link Reboot to Available--><g class="link" data-entity-1="ent0014" data-entity-2="ent0010" data-link-type="dependency" data-source-line="21" id="lnk17"><path d="M789.7969,1401.6826 C810.0625,1384.542 824.8281,1363.4482 809.9063,1344.2139 C786.8125,1314.4639 697.4253,1297.1997 629.4878,1287.6997" fill="none" id="Reboot-to-Available" style="stroke:#181818;stroke-width:1.5625;"/><polygon fill="#181818" points="620.2031,1286.4014,633.2646,1294.5386,627.9403,1287.4833,634.9957,1282.1591,620.2031,1286.4014" style="stroke:#181818;stroke-width:1.5625;"/><text fill="#000000" font-family="sans-serif" font-size="20.3125" lengthAdjust="spacing" textLength="271.3921" x="816.1563" y="1364.6309">&#1055;&#1077;&#1088;&#1077;&#1079;&#1072;&#1075;&#1088;&#1091;&#1079;&#1082;&#1072; &#1079;&#1072;&#1074;&#1077;&#1088;&#1096;&#1077;&#1085;&#1072;</text></g><g class="start_entity" data-qualified-name=".start." data-source-line="5" id="ent0002"><ellipse cx="608.625" cy="268.75" fill="#222222" rx="15.625" ry="15.625" style="stroke:#222222;stroke-width:1.5625;"/></g><!--link *start* to NoAccess--><g class="link" data-entity-1="ent0002" data-entity-2="ent0002" data-link-type="dependency" data-source-line="5" id="lnk3"><path d="M606.3125,284.9219 C601.9531,310.6719 591.3906,365.625 574.25,409.375 C563.5859,436.5703 547.8555,465.2812 534.4688,487.6602 C531.1221,493.2549 527.9219,498.4539 524.9839,503.1345 C524.2495,504.3046 523.5314,505.4424 522.8315,506.5458 C522.4815,507.0975 522.1361,507.6407 521.7955,508.175 C521.6252,508.4421 526.5044,500.8074 526.3365,501.0701" fill="none" id="*start*-to-NoAccess" style="stroke:#181818;stroke-width:1.5625;"/><polygon fill="#181818" points="521.2882,508.9698,534.1271,500.4858,525.4951,502.3867,523.5942,493.7547,521.2882,508.9698" style="stroke:#181818;stroke-width:1.5625;"/></g><!--link *start*NoAccess to Idle--><g class="link" data-entity-1="ent0004" data-entity-2="ent0005" data-link-type="dependency" data-source-line="8" id="lnk6"><path d="M335.1875,545.9063 C335.1875,572.0469 335.1875,618.125 335.1875,655.6719" fill="none" id="*start*NoAccess-to-Idle" style="stroke:#181818;stroke-width:1.5625;"/><polygon fill="#181818" points="335.1875,665.0469,341.4375,650.9844,335.1875,657.2344,328.9375,650.9844,335.1875,665.0469" style="stroke:#181818;stroke-width:1.5625;"/><text fill="#000000" font-family="sans-serif" font-size="20.3125" lengthAdjust="spacing" textLength="133.2809" x="336.75" y="612.6045">&#1053;&#1077;&#1090; &#1076;&#1086;&#1089;&#1090;&#1091;&#1087;&#1072;</text></g><!--link Idle to Authenticated--><g class="link" data-entity-1="ent0005" data-entity-2="ent0003" data-link-type="dependency" data-source-line="9" id="lnk7"><path d="M328.6094,743.9687 C324.9531,772.25 322.5625,811.7031 330.5,845.3125 C334.25,861.25 337.1139,869.3476 344.567,883.3632" fill="none" id="Idle-to-Authenticated" style="stroke:#181818;stroke-width:1.5625;"/><polygon fill="#181818" points="348.9688,891.6406,347.8845,876.29,345.3007,884.7428,336.8479,882.159,348.9688,891.6406" style="stroke:#181818;stroke-width:1.5625;"/><text fill="#000000" font-family="sans-serif" font-size="20.3125" lengthAdjust="spacing" textLength="333.3115" x="332.0625" y="839.167">&#1050;&#1072;&#1088;&#1090;&#1072; &#1090;&#1077;&#1093;&#1085;&#1080;&#1082;&#1072; (16 &#1094;&#1080;&#1092;&#1088;) + PIN</text></g><!--link Authenticated to TechMenu--><g class="link" data-entity-1="ent0003" data-entity-2="ent0004" data-link-type="dependency" data-source-line="13" id="lnk8"><path d="M392.4063,971.0469 C407.7344,1000.75 425.9805,1036.1072 449.5117,1081.6853" fill="none" id="Authenticated-to-TechMenu" style="stroke:#181818;stroke-width:1.5625;"/><polygon fill="#181818" points="453.8125,1090.0156,452.9148,1074.653,450.2285,1083.0737,441.8078,1080.3874,453.8125,1090.0156" style="stroke:#181818;stroke-width:1.5625;"/><text fill="#000000" font-family="sans-serif" font-size="20.3125" lengthAdjust="spacing" textLength="188.9519" x="428.9375" y="1037.6045">&#1044;&#1086;&#1089;&#1090;&#1091;&#1087; &#1088;&#1072;&#1079;&#1088;&#1077;&#1096;&#1105;&#1085;</text></g><!--link *start*TechnicianEnding to Logout--><g class="link" data-entity-1="ent0018" data-entity-2="ent0019" data-link-type="dependency" data-source-line="25" id="lnk20"><path d="M438.8438,109.9688 C439.7812,136.1094 441.4733,182.1936 442.8327,219.7405" fill="none" id="*start*TechnicianEnding-to-Logout" style="stroke:#181818;stroke-width:1.5625;"/><polygon fill="#181818" points="443.1719,229.1094,448.909,214.83,442.8892,221.302,436.4172,215.2822,443.1719,229.1094" style="stroke:#181818;stroke-width:1.5625;"/><text fill="#000000" font-family="sans-serif" font-size="20.3125" lengthAdjust="spacing" textLength="64.2998" x="443" y="176.667">3. Exit</text></g><!--link Logout to NoAccess--><g class="link" data-entity-1="ent0019" data-entity-2="ent0002" data-link-type="dependency" data-source-line="26" id="lnk21"><path d="M459.9688,308.2969 C471.6563,338.5625 487.1562,382.2969 496.125,421.875 C497.3945,427.4922 498.5398,433.3071 499.5723,439.1895 C499.8304,440.6601 500.0815,442.135 500.3256,443.612 C500.4477,444.3505 500.5681,445.0895 500.6868,445.8289 C500.7165,446.0137 499.2707,436.9404 499.3001,437.1252" fill="none" id="Logout-to-NoAccess" style="stroke:#181818;stroke-width:1.5625;"/><polygon fill="#181818" points="500.7755,446.3834,504.7346,431.5126,499.546,438.6683,492.3903,433.4797,500.7755,446.3834" style="stroke:#181818;stroke-width:1.5625;"/><text fill="#000000" font-family="sans-serif" font-size="20.3125" lengthAdjust="spacing" textLength="68.4654" x="494.5625" y="403.2295">&#1042;&#1099;&#1093;&#1086;&#1076;</text></g><!--link TechMenu to TechnicianEnding--><g class="link" data-entity-1="ent0004" data-entity-2="ent0005" data-link-type="dependency" data-source-line="29" id="lnk22"><path d="M673.0156,1090.0938 C692.7656,1040.3281 707.0625,985.9531 707.0625,932.8125 C707.0625,267.1875 707.0625,267.1875 707.0625,267.1875 C707.0625,215.2109 667.3164,172.7617 626.9492,143.0527 C606.7656,128.1982 586.4268,116.5288 570.8232,108.446 C566.9224,106.4254 563.3174,104.6288 560.0849,103.0627 C558.4686,102.2797 565.4315,105.539 564.0109,104.872" fill="none" id="TechMenu-to-TechnicianEnding" style="stroke:#181818;stroke-width:1.5625;"/><polygon fill="#181818" points="555.5249,100.8872,565.5974,112.5217,562.5966,104.2079,570.9104,101.207,555.5249,100.8872" style="stroke:#181818;stroke-width:1.5625;"/><text fill="#000000" font-family="sans-serif" font-size="20.3125" lengthAdjust="spacing" textLength="64.2998" x="708.625" y="612.6045">3. Exit</text></g><?plantuml-src TPBFIiD04CRlUOev-eSMg-Z1Wr2aXu8M4M_YOPkixMARBKcgWWYrjLhmf0YA8Bv2g8qjbTPNc7qZPnUR9gYNi3ipt--RcQn_8jm6yrWTwjALTjMJTGw1r-IM7sVyAdFacN0hSCngVZBZD0JarbSiwt3f23APBIZ9l6rptxSiFs01Z-zmOG7CYefEZSCcu2j6gWqumAcwKctLmIyCgSoaTLs-6LIv6mYRI8uMl62eMggD8T0dKbsSu0Z7T5t8RO2wmP6wLgr5M8QzOicwdFMGnkX6qX5jTS3jwYvtczhbSTuFg1Q6EAHlf7hg7YTpQgn8JfO_PQB6oZMkJMPdazddWIVuATzcdkEJIouB-8n3xECdiMynChD4GAu32hJmWumdE55tgWjwHZtu7zIob07XLWdtPdGHGKDyf_8EdSPcesdpLADwu2SIzBLOzKmVKoCnv5-r_vY02IGXONfLhh05SmkkevzHScKxiYARUeIrB1JEHK2fdr3oFMdh1xqBdE90a-Frp_vUoY2cVGC0?></g></svg>