<?plantuml 1.2026.2beta3?><svg xmlns="http://www.w3.org/2000/svg" xmlns:xlink="http://www.w3.org/1999/xlink" contentStyleType="text/css" data-diagram-type="STATE" height="1501.5625px" preserveAspectRatio="none" style="width:1692px;height:1501px;background:#FFFFFF;" version="1.1" viewBox="0 0 1692 1501" width="1692.1875px" zoomAndPan="magnify"><defs/><g><!--cluster NoAccess--><g class="cluster" data-qualified-name="NoAccess" data-source-line="7" id="ent0002"><path d="M353.1563,446.875 L592.2188,446.875 A19.5313,19.5313 0 0 1 611.75,466.4063 L611.75,480.1514 L333.625,480.1514 L333.625,466.4063 A19.5313,19.5313 0 0 1 353.1563,446.875" fill="#F1F1F1"/><rect fill="none" height="334.375" rx="19.5313" ry="19.5313" style="stroke:#181818;stroke-width:0.7813;" width="278.125" x="333.625" y="446.875"/><line style="stroke:#181818;stroke-width:0.7813;" x1="333.625" x2="611.75" y1="480.1514" y2="480.1514"/><text fill="#000000" font-family="sans-serif" font-size="21.875" lengthAdjust="spacing" textLength="105.0171" x="420.179" y="473.4299">NoAccess</text></g><!--cluster TechnicianEnding--><g class="cluster" data-qualified-name="TechnicianEnding" data-source-line="24" id="ent0005"><path d="M521.9063,10.9375 L700.0313,10.9375 A19.5313,19.5313 0 0 1 719.5625,30.4688 L719.5625,44.2139 L502.375,44.2139 L502.375,30.4688 A19.5313,19.5313 0 0 1 521.9063,10.9375" fill="#F1F1F1"/><rect fill="none" height="334.375" rx="19.5313" ry="19.5313" style="stroke:#181818;stroke-width:0.7813;" width="217.1875" x="502.375" y="10.9375"/><line style="stroke:#181818;stroke-width:0.7813;" x1="502.375" x2="719.5625" y1="44.2139" y2="44.2139"/><text fill="#000000" font-family="sans-serif" font-size="21.875" lengthAdjust="spacing" textLength="193.425" x="514.2563" y="37.4924">TechnicianEnding</text></g><g class="start_entity" data-qualified-name="NoAccess..start.NoAccess" data-source-line="8" id="ent0004"><ellipse cx="425.8125" cy="529.6875" fill="#222222" rx="15.625" ry="15.625" style="stroke:#222222;stroke-width:1.5625;"/></g><g class="entity" data-qualified-name="NoAccess.Idle" id="ent0005"><rect fill="#F1F1F1" height="78.125" rx="19.5313" ry="19.5313" style="stroke:#181818;stroke-width:0.7813;" width="78.125" x="378.9375" y="665.625"/><line style="stroke:#181818;stroke-width:0.7813;" x1="378.9375" x2="457.0625" y1="706.7139" y2="706.7139"/><text fill="#000000" font-family="sans-serif" font-size="21.875" lengthAdjust="spacing" textLength="39.8727" x="398.0636" y="693.7424">Idle</text></g><g class="start_entity" data-qualified-name="TechnicianEnding..start.TechnicianEnding" data-source-line="25" id="ent0018"><ellipse cx="599.25" cy="93.75" fill="#222222" rx="15.625" ry="15.625" style="stroke:#222222;stroke-width:1.5625;"/></g><g class="entity" data-qualified-name="TechnicianEnding.Logout" id="ent0019"><rect fill="#F1F1F1" height="78.125" rx="19.5313" ry="19.5313" style="stroke:#181818;stroke-width:0.7813;" width="106.5308" x="545.9844" y="229.6875"/><line style="stroke:#181818;stroke-width:0.7813;" x1="545.9844" x2="652.5151" y1="270.7764" y2="270.7764"/><text fill="#000000" font-family="sans-serif" font-size="21.875" lengthAdjust="spacing" textLength="75.2808" x="561.6094" y="257.8049">Logout</text></g><g class="entity" data-qualified-name="Authenticated" id="ent0003"><rect fill="#F1F1F1" height="78.125" rx="19.5313" ry="19.5313" style="stroke:#181818;stroke-width:0.7813;" width="185.849" x="62.5625" y="892.1875"/><line style="stroke:#181818;stroke-width:0.7813;" x1="62.5625" x2="248.4115" y1="933.2764" y2="933.2764"/><text fill="#000000" font-family="sans-serif" font-size="21.875" lengthAdjust="spacing" textLength="154.599" x="78.1875" y="920.3049">Authenticated</text></g><path d="M30.4688,1090.625 L1083.6421,1090.625 A19.5313,19.5313 0 0 1 1103.1733,1110.1563 L1103.1733,1131.7139 L10.9375,1131.7139 L10.9375,1110.1563 A19.5313,19.5313 0 0 1 30.4688,1090.625" fill="#F1F1F1"/><rect fill="none" height="402.0264" rx="19.5313" ry="19.5313" style="stroke:#181818;stroke-width:0.7813;" width="1092.2358" x="10.9375" y="1090.625"/><line style="stroke:#181818;stroke-width:0.7813;" x1="10.9375" x2="1103.1733" y1="1131.7139" y2="1131.7139"/><text fill="#000000" font-family="sans-serif" font-size="21.875" lengthAdjust="spacing" textLength="112.7716" x="500.6696" y="1118.7424">TechMenu</text><g class="start_entity" data-qualified-name="TechMenu..start.TechMenu" data-source-line="17" id="ent0009"><ellipse cx="553.6563" cy="1164.5264" fill="#222222" rx="15.625" ry="15.625" style="stroke:#222222;stroke-width:1.5625;"/></g><g class="entity" data-qualified-name="TechMenu.Available" id="ent0010"><rect fill="#F1F1F1" height="78.125" rx="19.5313" ry="19.5313" style="stroke:#181818;stroke-width:0.7813;" width="131.546" x="487.875" y="1237.9639"/><line style="stroke:#181818;stroke-width:0.7813;" x1="487.875" x2="619.421" y1="1279.0527" y2="1279.0527"/><text fill="#000000" font-family="sans-serif" font-size="21.875" lengthAdjust="spacing" textLength="100.296" x="503.5" y="1266.0812">Available</text></g><g class="entity" data-qualified-name="TechMenu.RetrieveCards" id="ent0012"><rect fill="#F1F1F1" height="78.125" rx="19.5313" ry="19.5313" style="stroke:#181818;stroke-width:0.7813;" width="186.3724" x="279.2188" y="1398.9014"/><line style="stroke:#181818;stroke-width:0.7813;" x1="279.2188" x2="465.5911" y1="1439.9902" y2="1439.9902"/><text fill="#000000" font-family="sans-serif" font-size="21.875" lengthAdjust="spacing" textLength="155.1224" x="294.8438" y="1427.0187">RetrieveCards</text></g><g class="entity" data-qualified-name="TechMenu.Reboot" id="ent0014"><rect fill="#F1F1F1" height="78.125" rx="19.5313" ry="19.5313" style="stroke:#181818;stroke-width:0.7813;" width="109.137" x="680.3437" y="1398.9014"/><line style="stroke:#181818;stroke-width:0.7813;" x1="680.3437" x2="789.4807" y1="1439.9902" y2="1439.9902"/><text fill="#000000" font-family="sans-serif" font-size="21.875" lengthAdjust="spacing" textLength="77.887" x="695.9687" y="1427.0187">Reboot</text></g><!--link *start*TechMenu to Available--><g class="link" data-entity-1="ent0009" data-entity-2="ent0010" data-link-type="dependency" data-source-line="17" id="lnk11"><path d="M553.6563,1180.8389 C553.6563,1195.3076 553.6563,1208.5732 553.6563,1228.0889" fill="none" id="*start*TechMenu-to-Available" style="stroke:#181818;stroke-width:1.5625;"/><polygon fill="#181818" points="553.6563,1237.4639,559.9063,1223.4014,553.6563,1229.6514,547.4063,1223.4014,553.6563,1237.4639" style="stroke:#181818;stroke-width:1.5625;"/></g><!--link Available to RetrieveCards--><g class="link" data-entity-1="ent0010" data-entity-2="ent0012" data-link-type="dependency" data-source-line="18" id="lnk13"><path d="M487.1406,1277.7139 C370.75,1277.7607 137.5781,1285.417 86.4688,1344.2139 C28.125,1411.3232 164.9637,1429.4874 269.1356,1434.4405" fill="none" id="Available-to-RetrieveCards" style="stroke:#181818;stroke-width:1.5625;"/><polygon fill="#181818" points="278.5,1434.8857,264.7502,1427.9749,270.6963,1434.5147,264.1565,1440.4608,278.5,1434.8857" style="stroke:#181818;stroke-width:1.5625;"/><text fill="#000000" font-family="sans-serif" font-size="20.3125" lengthAdjust="spacing" textLength="351.9379" x="88.0313" y="1364.6309">1. &#1048;&#1079;&#1074;&#1083;&#1077;&#1095;&#1077;&#1085;&#1080;&#1077; &#1091;&#1076;&#1077;&#1088;&#1078;&#1072;&#1085;&#1085;&#1099;&#1093; &#1082;&#1072;&#1088;&#1090;</text></g><!--link Available to Reboot--><g class="link" data-entity-1="ent0010" data-entity-2="ent0014" data-link-type="dependency" data-source-line="19" id="lnk15"><path d="M583.2031,1316.5889 C597.7813,1334.1045 616.2188,1354.5576 634.9063,1370.7764 C648.7031,1382.7451 656.994,1389.1194 672.2128,1399.0569" fill="none" id="Available-to-Reboot" style="stroke:#181818;stroke-width:1.5625;"/><polygon fill="#181818" points="680.0625,1404.1826,671.7051,1391.2609,673.5211,1399.9112,664.8708,1401.7272,680.0625,1404.1826" style="stroke:#181818;stroke-width:1.5625;"/><text fill="#000000" font-family="sans-serif" font-size="20.3125" lengthAdjust="spacing" textLength="173.3505" x="636.4688" y="1364.6309">2. &#1055;&#1077;&#1088;&#1077;&#1079;&#1072;&#1075;&#1088;&#1091;&#1079;&#1082;&#1072;</text></g><!--link RetrieveCards to Available--><g class="link" data-entity-1="ent0012" data-entity-2="ent0010" data-link-type="dependency" data-source-line="20" id="lnk16"><path d="M415.875,1398.5576 C444.2969,1373.8076 474.2105,1347.7604 502.7105,1322.9479" fill="none" id="RetrieveCards-to-Available" style="stroke:#181818;stroke-width:1.5625;"/><polygon fill="#181818" points="509.7813,1316.792,495.0712,1321.312,503.889,1321.9219,503.2791,1330.7397,509.7813,1316.792" style="stroke:#181818;stroke-width:1.5625;"/><text fill="#000000" font-family="sans-serif" font-size="20.3125" lengthAdjust="spacing" textLength="119.6236" x="475.5313" y="1364.6309">&#1047;&#1072;&#1074;&#1077;&#1088;&#1096;&#1077;&#1085;&#1086;</text></g><!--link Reboot to Available--><g class="link" data-entity-1="ent0014" data-entity-2="ent0010" data-link-type="dependency" data-source-line="21" id="lnk17"><path d="M789.7969,1401.6826 C810.0625,1384.542 824.8281,1363.4482 809.9063,1344.2139 C786.8125,1314.4639 697.4253,1297.1997 629.4878,1287.6997" fill="none" id="Reboot-to-Available" style="stroke:#181818;stroke-width:1.5625;"/><polygon fill="#181818" points="620.2031,1286.4014,633.2646,1294.5386,627.9403,1287.4833,634.9957,1282.1591,620.2031,1286.4014" style="stroke:#181818;stroke-width:1.5625;"/><text fill="#000000" font-family="sans-serif" font-size="20.3125" lengthAdjust="spacing" textLength="271.3921" x="816.1563" y="1364.6309">&#1055;&#1077;&#1088;&#1077;&#1079;&#1072;&#1075;&#1088;&#1091;&#1079;&#1082;&#1072; &#1079;&#1072;&#1074;&#1077;&#1088;&#1096;&#1077;&#1085;&#1072;</text></g><g class="start_entity" data-qualified-name=".start." data-source-line="5" id="ent0002"><ellipse cx="772.6875" cy="268.75" fill="#222222" rx="15.625" ry="15.625" style="stroke:#222222;stroke-width:1.5625;"/></g><g class="entity" data-qualified-name="GMN2" data-source-line="32" id="ent0003"><path d="M303.0625,911.625 L303.0625,925 L248.8125,931.25 L303.0625,937.5 L303.0625,950.895 A0,0 0 0 0 303.0625,950.895 L876.6854,950.895 A0,0 0 0 0 876.6854,950.895 L876.6854,927.25 L861.0604,911.625 L303.0625,911.625 A0,0 0 0 0 303.0625,911.625" fill="#FAFAFA" style="stroke:#181818;stroke-width:0.7813;"/><path d="M861.0604,911.625 L861.0604,927.25 L876.6854,927.25 L861.0604,911.625" fill="#FAFAFA" style="stroke:#181818;stroke-width:0.7813;"/><text fill="#000000" font-family="sans-serif" font-size="20.3125" lengthAdjust="spacing" textLength="540.8104" x="312.4375" y="938.292">&#1042; &#1088;&#1077;&#1072;&#1083;&#1080;&#1079;&#1072;&#1094;&#1080;&#1080;: &#1082;&#1072;&#1088;&#1090;&#1072; 1000000000000002, PIN 2222</text></g><g class="entity" data-qualified-name="GMN5" data-source-line="36" id="ent0006"><path d="M1157.6719,1260.1875 L1157.6719,1285.3906 L1103.7031,1291.6406 L1157.6719,1297.8906 L1157.6719,1323.1025 A0,0 0 0 0 1157.6719,1323.1025 L1681.4359,1323.1025 A0,0 0 0 0 1681.4359,1323.1025 L1681.4359,1275.8125 L1665.8109,1260.1875 L1157.6719,1260.1875 A0,0 0 0 0 1157.6719,1260.1875" fill="#FAFAFA" style="stroke:#181818;stroke-width:0.7813;"/><path d="M1665.8109,1260.1875 L1665.8109,1275.8125 L1681.4359,1275.8125 L1665.8109,1260.1875" fill="#FAFAFA" style="stroke:#181818;stroke-width:0.7813;"/><text fill="#000000" font-family="sans-serif" font-size="20.3125" lengthAdjust="spacing" textLength="422.3869" x="1167.0469" y="1286.8545">&#1042; &#1088;&#1077;&#1072;&#1083;&#1080;&#1079;&#1072;&#1094;&#1080;&#1080;: &#1090;&#1086;&#1083;&#1100;&#1082;&#1086; &#1080;&#1079;&#1074;&#1083;&#1077;&#1095;&#1077;&#1085;&#1080;&#1077; &#1082;&#1072;&#1088;&#1090;</text><text fill="#000000" font-family="sans-serif" font-size="20.3125" lengthAdjust="spacing" textLength="490.9515" x="1167.0469" y="1310.4995">&#1080; &#1087;&#1077;&#1088;&#1077;&#1079;&#1072;&#1075;&#1088;&#1091;&#1079;&#1082;&#1072; (&#1073;&#1077;&#1079; &#1074;&#1082;&#1083;/&#1074;&#1099;&#1082;&#1083; &#1080; &#1076;&#1080;&#1072;&#1075;&#1085;&#1086;&#1089;&#1090;&#1080;&#1082;&#1080;)</text></g><!--link *start* to NoAccess--><g class="link" data-entity-1="ent0002" data-entity-2="ent0002" data-link-type="dependency" data-source-line="5" id="lnk3"><path d="M764.8125,282.6875 C749.2344,307.0625 713.3125,363.0312 682.0625,409.375 C664.6328,435.2187 644.6563,463.8867 628.6895,486.5801 C624.6978,492.2534 620.9567,497.5533 617.5686,502.3424 C615.8746,504.7369 614.2689,507.0037 612.7642,509.1256 C612.5761,509.3908 612.3896,509.6538 612.2047,509.9144 C612.1122,510.0448 617.4446,502.5282 617.353,502.6574" fill="none" id="*start*-to-NoAccess" style="stroke:#181818;stroke-width:1.5625;"/><polygon fill="#181818" points="611.9285,510.3037,625.1628,502.4506,616.4489,503.9318,614.9677,495.218,611.9285,510.3037" style="stroke:#181818;stroke-width:1.5625;"/></g><!--link *start*NoAccess to Idle--><g class="link" data-entity-1="ent0004" data-entity-2="ent0005" data-link-type="dependency" data-source-line="8" id="lnk6"><path d="M425.1406,545.9063 C423.9531,572.0469 421.8662,618.1348 420.1475,655.6817" fill="none" id="*start*NoAccess-to-Idle" style="stroke:#181818;stroke-width:1.5625;"/><polygon fill="#181818" points="419.7188,665.0469,426.6053,651.2849,420.076,657.2425,414.1183,650.7133,419.7188,665.0469" style="stroke:#181818;stroke-width:1.5625;"/><text fill="#000000" font-family="sans-serif" font-size="20.3125" lengthAdjust="spacing" textLength="133.2809" x="425.8125" y="612.6045">&#1053;&#1077;&#1090; &#1076;&#1086;&#1089;&#1090;&#1091;&#1087;&#1072;</text></g><!--link Idle to Authenticated--><g class="link" data-entity-1="ent0005" data-entity-2="ent0003" data-link-type="dependency" data-source-line="9" id="lnk7"><path d="M378.6875,739.7031 C330.9219,780.375 257.6393,842.7519 207.4831,885.4394" fill="none" id="Idle-to-Authenticated" style="stroke:#181818;stroke-width:1.5625;"/><polygon fill="#181818" points="200.3438,891.5156,215.1036,887.1609,206.2932,886.4521,207.0019,877.6417,200.3438,891.5156" style="stroke:#181818;stroke-width:1.5625;"/><text fill="#000000" font-family="sans-serif" font-size="20.3125" lengthAdjust="spacing" textLength="333.3115" x="280.5" y="839.167">&#1050;&#1072;&#1088;&#1090;&#1072; &#1090;&#1077;&#1093;&#1085;&#1080;&#1082;&#1072; (16 &#1094;&#1080;&#1092;&#1088;) + PIN</text></g><!--link Authenticated to TechMenu--><g class="link" data-entity-1="ent0003" data-entity-2="ent0004" data-link-type="dependency" data-source-line="13" id="lnk8"><path d="M198.4688,971.0469 C231.8438,1000.75 273.9486,1038.2063 325.183,1083.7844" fill="none" id="Authenticated-to-TechMenu" style="stroke:#181818;stroke-width:1.5625;"/><polygon fill="#181818" points="332.1875,1090.0156,325.8349,1075.9992,326.3504,1084.823,317.5266,1085.3385,332.1875,1090.0156" style="stroke:#181818;stroke-width:1.5625;"/><text fill="#000000" font-family="sans-serif" font-size="20.3125" lengthAdjust="spacing" textLength="188.9519" x="275.8125" y="1037.6045">&#1044;&#1086;&#1089;&#1090;&#1091;&#1087; &#1088;&#1072;&#1079;&#1088;&#1077;&#1096;&#1105;&#1085;</text></g><!--link *start*TechnicianEnding to Logout--><g class="link" data-entity-1="ent0018" data-entity-2="ent0019" data-link-type="dependency" data-source-line="25" id="lnk20"><path d="M599.25,109.9688 C599.25,136.1094 599.25,182.1875 599.25,219.7344" fill="none" id="*start*TechnicianEnding-to-Logout" style="stroke:#181818;stroke-width:1.5625;"/><polygon fill="#181818" points="599.25,229.1094,605.5,215.0469,599.25,221.2969,593,215.0469,599.25,229.1094" style="stroke:#181818;stroke-width:1.5625;"/><text fill="#000000" font-family="sans-serif" font-size="20.3125" lengthAdjust="spacing" textLength="64.2998" x="600.8125" y="176.667">3. Exit</text></g><!--link Logout to NoAccess--><g class="link" data-entity-1="ent0019" data-entity-2="ent0002" data-link-type="dependency" data-source-line="26" id="lnk21"><path d="M599.25,308.3594 C599.25,343.6562 599.25,397.4453 599.25,442.9727 C599.25,443.684 599.25,444.3934 599.25,445.1006 C599.25,445.4542 599.25,436.4323 599.25,436.7848" fill="none" id="Logout-to-NoAccess" style="stroke:#181818;stroke-width:1.5625;"/><polygon fill="#181818" points="599.25,446.1598,605.5,432.0973,599.25,438.3473,593,432.0973,599.25,446.1598" style="stroke:#181818;stroke-width:1.5625;"/><text fill="#000000" font-family="sans-serif" font-size="20.3125" lengthAdjust="spacing" textLength="68.4654" x="600.8125" y="403.2295">&#1042;&#1099;&#1093;&#1086;&#1076;</text></g><!--link TechMenu to TechnicianEnding--><g class="link" data-entity-1="ent0004" data-entity-2="ent0005" data-link-type="dependency" data-source-line="29" id="lnk22"><path d="M896.75,1090.1563 C934.7813,1045.3281 960.1875,992.9063 960.1875,932.8125 C960.1875,267.1875 960.1875,267.1875 960.1875,267.1875 C960.1875,200.2578 898.8672,157.5781 836.5879,131.4902 C805.4482,118.4463 774.0688,109.5503 749.9949,103.845 C737.9579,100.9923 727.7473,98.9373 720.3061,97.5603 C720.0736,97.5173 729.0645,99.1685 728.8374,99.1268" fill="none" id="TechMenu-to-TechnicianEnding" style="stroke:#181818;stroke-width:1.5625;"/><polygon fill="#181818" points="719.6167,97.4332,732.3188,106.1207,727.3006,98.8445,734.5768,93.8264,719.6167,97.4332" style="stroke:#181818;stroke-width:1.5625;"/><text fill="#000000" font-family="sans-serif" font-size="20.3125" lengthAdjust="spacing" textLength="64.2998" x="961.75" y="612.6045">3. Exit</text></g><?plantuml-src VLFDRjD04BxlKyon1LgQ83ZqW1IX7Yf1XH0tn65hR-CLoMvbEmK98OMKGgLoeK828I5UmOIOMebYNc7sZPXPOSSkXJsirlFpVVFDZ9DdsXpAM0vXQ8qDejWE5QJnI8cazYIH3ErpRVfm80T9qnCUQkZStXBYoRMdiB5n5_PiBmXKaWYHf39LzJUy501Lq6uuKB0D-1LpDm6SOUbUkuaxnb-OKPXtSrnlb4RAf3eWf90Jlc3cncw26T2LknDSOe5p-bpht07t5WltnetNuJeytDqJhweQsZ1SIDl2L8zL43rGPiGi7rVrW1jZXXTqv-xKVS3b2hNEQ2hh7KazaFi3nIJLstiUgJJMwaZTat6O44jd4_0pNk0K5uJz3dEl9GTYdP5XZ3-9U8bBT-PEW3Moy2jGzwrD2QvBSDzyNawW6VwWy6DwpNr7s-IjGbdm9qgOSh8xzNMKFiKZ_nNx3nBmXYP8rcwLqO6MPiU4l4RDbjstVJjY2RSsOUU5JidrnzJS9wO-vrvWYJD6hjjVJQz5i48Jnb85iUv7ATY3zkI92i_1oybe30Lhu2t2OhjkEKdhRBLEzmQl5tJf26L2O8BBD5Lr_sCWx18NxZqnbU1TbtUXCNOiWFwEgrk_Xj_P2fG_nyLDdBepVlYS6G5HD0-LTzh_BiLwNVTl?></g></svg>