<?plantuml 1.2026.2beta3?><svg xmlns="http://www.w3.org/2000/svg" xmlns:xlink="http://www.w3.org/1999/xlink" contentStyleType="text/css" data-diagram-type="STATE" height="1501.5625px" preserveAspectRatio="none" style="width:1331px;height:1501px;background:#FFFFFF;" version="1.1" viewBox="0 0 1331 1501" width="1331.25px" zoomAndPan="magnify"><defs/><g><!--cluster NoAccess--><g class="cluster" data-qualified-name="NoAccess" data-source-line="7" id="ent0002"><path d="M353.9375,446.875 L593,446.875 A19.5313,19.5313 0 0 1 612.5313,466.4063 L612.5313,480.1514 L334.4063,480.1514 L334.4063,466.4063 A19.5313,19.5313 0 0 1 353.9375,446.875" fill="#F1F1F1"/><rect fill="none" height="334.375" rx="19.5313" ry="19.5313" style="stroke:#181818;stroke-width:0.7813;" width="278.125" x="334.4063" y="446.875"/><line style="stroke:#181818;stroke-width:0.7813;" x1="334.4063" x2="612.5313" y1="480.1514" y2="480.1514"/><text fill="#000000" font-family="sans-serif" font-size="21.875" lengthAdjust="spacing" textLength="105.0171" x="420.9602" y="473.4299">NoAccess</text></g><!--cluster ServiceEnding--><g class="cluster" data-qualified-name="ServiceEnding" data-source-line="26" id="ent0005"><path d="M505.5,10.9375 L675.8125,10.9375 A19.5313,19.5313 0 0 1 695.3438,30.4688 L695.3438,44.2139 L485.9688,44.2139 L485.9688,30.4688 A19.5313,19.5313 0 0 1 505.5,10.9375" fill="#F1F1F1"/><rect fill="none" height="334.375" rx="19.5313" ry="19.5313" style="stroke:#181818;stroke-width:0.7813;" width="209.375" x="485.9688" y="10.9375"/><line style="stroke:#181818;stroke-width:0.7813;" x1="485.9688" x2="695.3438" y1="44.2139" y2="44.2139"/><text fill="#000000" font-family="sans-serif" font-size="21.875" lengthAdjust="spacing" textLength="156.2439" x="512.5343" y="37.4924">ServiceEnding</text></g><g class="start_entity" data-qualified-name="NoAccess..start.NoAccess" data-source-line="8" id="ent0004"><ellipse cx="426.5938" cy="529.6875" fill="#222222" rx="15.625" ry="15.625" style="stroke:#222222;stroke-width:1.5625;"/></g><g class="entity" data-qualified-name="NoAccess.Idle" id="ent0005"><rect fill="#F1F1F1" height="78.125" rx="19.5313" ry="19.5313" style="stroke:#181818;stroke-width:0.7813;" width="78.125" x="387.5313" y="665.625"/><line style="stroke:#181818;stroke-width:0.7813;" x1="387.5313" x2="465.6563" y1="706.7139" y2="706.7139"/><text fill="#000000" font-family="sans-serif" font-size="21.875" lengthAdjust="spacing" textLength="39.8727" x="406.6574" y="693.7424">Idle</text></g><g class="start_entity" data-qualified-name="ServiceEnding..start.ServiceEnding" data-source-line="27" id="ent0021"><ellipse cx="578.1563" cy="93.75" fill="#222222" rx="15.625" ry="15.625" style="stroke:#222222;stroke-width:1.5625;"/></g><g class="entity" data-qualified-name="ServiceEnding.Logout" id="ent0022"><rect fill="#F1F1F1" height="78.125" rx="19.5313" ry="19.5313" style="stroke:#181818;stroke-width:0.7813;" width="106.5308" x="529.5781" y="229.6875"/><line style="stroke:#181818;stroke-width:0.7813;" x1="529.5781" x2="636.1089" y1="270.7764" y2="270.7764"/><text fill="#000000" font-family="sans-serif" font-size="21.875" lengthAdjust="spacing" textLength="75.2808" x="545.2031" y="257.8049">Logout</text></g><g class="entity" data-qualified-name="CardAndPIN" id="ent0003"><rect fill="#F1F1F1" height="78.125" rx="19.5313" ry="19.5313" style="stroke:#181818;stroke-width:0.7813;" width="161.528" x="370.8438" y="892.1875"/><line style="stroke:#181818;stroke-width:0.7813;" x1="370.8438" x2="532.3718" y1="933.2764" y2="933.2764"/><text fill="#000000" font-family="sans-serif" font-size="21.875" lengthAdjust="spacing" textLength="130.278" x="386.4688" y="920.3049">CardAndPIN</text></g><path d="M30.4688,1090.625 L1291.4829,1090.625 A19.5313,19.5313 0 0 1 1311.0142,1110.1563 L1311.0142,1131.7139 L10.9375,1131.7139 L10.9375,1110.1563 A19.5313,19.5313 0 0 1 30.4688,1090.625" fill="#F1F1F1"/><rect fill="none" height="402.0264" rx="19.5313" ry="19.5313" style="stroke:#181818;stroke-width:0.7813;" width="1300.0767" x="10.9375" y="1090.625"/><line style="stroke:#181818;stroke-width:0.7813;" x1="10.9375" x2="1311.0142" y1="1131.7139" y2="1131.7139"/><text fill="#000000" font-family="sans-serif" font-size="21.875" lengthAdjust="spacing" textLength="140.9058" x="590.523" y="1118.7424">ServiceMenu</text><g class="start_entity" data-qualified-name="ServiceMenu..start.ServiceMenu" data-source-line="17" id="ent0009"><ellipse cx="674.2031" cy="1164.5264" fill="#222222" rx="15.625" ry="15.625" style="stroke:#222222;stroke-width:1.5625;"/></g><g class="entity" data-qualified-name="ServiceMenu.Available" id="ent0010"><rect fill="#F1F1F1" height="78.125" rx="19.5313" ry="19.5313" style="stroke:#181818;stroke-width:0.7813;" width="131.546" x="608.4219" y="1237.9639"/><line style="stroke:#181818;stroke-width:0.7813;" x1="608.4219" x2="739.9679" y1="1279.0527" y2="1279.0527"/><text fill="#000000" font-family="sans-serif" font-size="21.875" lengthAdjust="spacing" textLength="100.296" x="624.0469" y="1266.0812">Available</text></g><g class="entity" data-qualified-name="ServiceMenu.Replenish" id="ent0012"><rect fill="#F1F1F1" height="78.125" rx="19.5313" ry="19.5313" style="stroke:#181818;stroke-width:0.7813;" width="138.5315" x="153.375" y="1398.9014"/><line style="stroke:#181818;stroke-width:0.7813;" x1="153.375" x2="291.9065" y1="1439.9902" y2="1439.9902"/><text fill="#000000" font-family="sans-serif" font-size="21.875" lengthAdjust="spacing" textLength="107.2815" x="169" y="1427.0187">Replenish</text></g><g class="entity" data-qualified-name="ServiceMenu.Collect" id="ent0014"><rect fill="#F1F1F1" height="78.125" rx="19.5313" ry="19.5313" style="stroke:#181818;stroke-width:0.7813;" width="106.1249" x="605.5156" y="1398.9014"/><line style="stroke:#181818;stroke-width:0.7813;" x1="605.5156" x2="711.6405" y1="1439.9902" y2="1439.9902"/><text fill="#000000" font-family="sans-serif" font-size="21.875" lengthAdjust="spacing" textLength="74.8749" x="621.1406" y="1427.0187">Collect</text></g><g class="entity" data-qualified-name="ServiceMenu.ReplaceCassette" id="ent0016"><rect fill="#F1F1F1" height="78.125" rx="19.5313" ry="19.5313" style="stroke:#181818;stroke-width:0.7813;" width="214.3036" x="976.4219" y="1398.9014"/><line style="stroke:#181818;stroke-width:0.7813;" x1="976.4219" x2="1190.7255" y1="1439.9902" y2="1439.9902"/><text fill="#000000" font-family="sans-serif" font-size="21.875" lengthAdjust="spacing" textLength="183.0536" x="992.0469" y="1427.0187">ReplaceCassette</text></g><!--link *start*ServiceMenu to Available--><g class="link" data-entity-1="ent0009" data-entity-2="ent0010" data-link-type="dependency" data-source-line="17" id="lnk11"><path d="M674.2031,1180.8389 C674.2031,1195.3076 674.2031,1208.5732 674.2031,1228.0889" fill="none" id="*start*ServiceMenu-to-Available" style="stroke:#181818;stroke-width:1.5625;"/><polygon fill="#181818" points="674.2031,1237.4639,680.4531,1223.4014,674.2031,1229.6514,667.9531,1223.4014,674.2031,1237.4639" style="stroke:#181818;stroke-width:1.5625;"/></g><!--link Available to Replenish--><g class="link" data-entity-1="ent0010" data-entity-2="ent0012" data-link-type="dependency" data-source-line="18" id="lnk13"><path d="M608.1875,1280.7764 C457.3906,1286.4482 97.75,1304.0889 61.7031,1344.2139 C28.125,1381.5732 86.1494,1405.3219 143.6963,1419.9782" fill="none" id="Available-to-Replenish" style="stroke:#181818;stroke-width:1.5625;"/><polygon fill="#181818" points="152.7813,1422.292,140.6963,1412.7646,145.2104,1420.3638,137.6112,1424.878,152.7813,1422.292" style="stroke:#181818;stroke-width:1.5625;"/><text fill="#000000" font-family="sans-serif" font-size="20.3125" lengthAdjust="spacing" textLength="285.1982" x="63.2656" y="1364.6309">1. &#1055;&#1086;&#1087;&#1086;&#1083;&#1085;&#1077;&#1085;&#1080;&#1077; &#1085;&#1072;&#1083;&#1080;&#1095;&#1085;&#1099;&#1084;&#1080;</text></g><!--link Available to Collect--><g class="link" data-entity-1="ent0010" data-entity-2="ent0014" data-link-type="dependency" data-source-line="19" id="lnk15"><path d="M607.8125,1295.5576 C583.0313,1305.4795 557.4063,1320.8076 542.9531,1344.2139 C522.7031,1376.9795 557.1881,1399.4698 596.4224,1415.3917" fill="none" id="Available-to-Collect" style="stroke:#181818;stroke-width:1.5625;"/><polygon fill="#181818" points="605.1094,1418.917,594.4292,1407.8378,597.8703,1415.9793,589.7288,1419.4204,605.1094,1418.917" style="stroke:#181818;stroke-width:1.5625;"/><text fill="#000000" font-family="sans-serif" font-size="20.3125" lengthAdjust="spacing" textLength="227.6428" x="544.5156" y="1364.6309">2. &#1048;&#1079;&#1098;&#1103;&#1090;&#1080;&#1077; &#1085;&#1072;&#1083;&#1080;&#1095;&#1085;&#1099;&#1093;</text></g><!--link Available to ReplaceCassette--><g class="link" data-entity-1="ent0010" data-entity-2="ent0016" data-link-type="dependency" data-source-line="20" id="lnk17"><path d="M740.6563,1293.667 C787.5156,1305.2139 851.3125,1322.7764 905.4531,1344.2139 C943.8125,1359.4014 976.6037,1375.7921 1009.588,1393.839" fill="none" id="Available-to-ReplaceCassette" style="stroke:#181818;stroke-width:1.5625;"/><polygon fill="#181818" points="1017.8125,1398.3389,1008.4757,1386.1061,1010.9588,1394.589,1002.4759,1397.072,1017.8125,1398.3389" style="stroke:#181818;stroke-width:1.5625;"/><text fill="#000000" font-family="sans-serif" font-size="20.3125" lengthAdjust="spacing" textLength="198.7312" x="963.2656" y="1364.6309">3. &#1047;&#1072;&#1084;&#1077;&#1085;&#1072; &#1082;&#1072;&#1089;&#1089;&#1077;&#1090;&#1099;</text></g><!--link Replenish to Available--><g class="link" data-entity-1="ent0012" data-entity-2="ent0010" data-link-type="dependency" data-source-line="21" id="lnk18"><path d="M292.3281,1400.1982 C335.5,1378.167 386.9688,1352.6826 410.1406,1344.2139 C475.7969,1320.2295 544.6123,1303.9219 598.7373,1292.8437" fill="none" id="Replenish-to-Available" style="stroke:#181818;stroke-width:1.5625;"/><polygon fill="#181818" points="607.9219,1290.9639,592.8917,1287.6606,600.268,1292.5304,595.3982,1299.9067,607.9219,1290.9639" style="stroke:#181818;stroke-width:1.5625;"/><text fill="#000000" font-family="sans-serif" font-size="20.3125" lengthAdjust="spacing" textLength="119.6236" x="411.7031" y="1364.6309">&#1047;&#1072;&#1074;&#1077;&#1088;&#1096;&#1077;&#1085;&#1086;</text></g><!--link Collect to Available--><g class="link" data-entity-1="ent0014" data-entity-2="ent0010" data-link-type="dependency" data-source-line="22" id="lnk19"><path d="M712.2969,1419.3076 C735.125,1409.0732 759.4844,1393.5264 772.6406,1370.7764 C786.5781,1346.6514 774.2246,1330.0462 748.5058,1313.8118" fill="none" id="Collect-to-Available" style="stroke:#181818;stroke-width:1.5625;"/><polygon fill="#181818" points="740.5781,1308.8076,749.1336,1321.599,747.1846,1312.9778,755.8058,1311.0288,740.5781,1308.8076" style="stroke:#181818;stroke-width:1.5625;"/><text fill="#000000" font-family="sans-serif" font-size="20.3125" lengthAdjust="spacing" textLength="119.6236" x="778.8906" y="1364.6309">&#1047;&#1072;&#1074;&#1077;&#1088;&#1096;&#1077;&#1085;&#1086;</text></g><!--link ReplaceCassette to Available--><g class="link" data-entity-1="ent0016" data-entity-2="ent0010" data-link-type="dependency" data-source-line="23" id="lnk20"><path d="M1149.9375,1398.167 C1170.2969,1381.7139 1183.6719,1362.167 1167.9531,1344.2139 C1113.1719,1281.6826 871.5778,1275.9745 749.984,1277.0526" fill="none" id="ReplaceCassette-to-Available" style="stroke:#181818;stroke-width:1.5625;"/><polygon fill="#181818" points="740.6094,1277.1357,754.7267,1283.2608,748.4216,1277.0665,754.6159,1270.7613,740.6094,1277.1357" style="stroke:#181818;stroke-width:1.5625;"/><text fill="#000000" font-family="sans-serif" font-size="20.3125" lengthAdjust="spacing" textLength="119.6236" x="1175.7656" y="1364.6309">&#1047;&#1072;&#1074;&#1077;&#1088;&#1096;&#1077;&#1085;&#1086;</text></g><g class="start_entity" data-qualified-name=".start." data-source-line="5" id="ent0002"><ellipse cx="748.4688" cy="268.75" fill="#222222" rx="15.625" ry="15.625" style="stroke:#222222;stroke-width:1.5625;"/></g><!--link *start* to NoAccess--><g class="link" data-entity-1="ent0002" data-entity-2="ent0002" data-link-type="dependency" data-source-line="5" id="lnk3"><path d="M741.9219,283.5312 C729.4688,308.4687 701.2969,364.0156 675.0313,409.375 C659.8906,435.5469 641.8242,464.2266 627.2187,486.8438 C623.5674,492.498 620.1323,497.7734 617.0134,502.536 C615.4539,504.9173 619.1313,499.3418 617.7424,501.4499" fill="none" id="*start*-to-NoAccess" style="stroke:#181818;stroke-width:1.5625;"/><polygon fill="#181818" points="612.5845,509.2785,625.5404,500.9742,616.8827,502.7547,615.1023,494.097,612.5845,509.2785" style="stroke:#181818;stroke-width:1.5625;"/></g><!--link *start*NoAccess to Idle--><g class="link" data-entity-1="ent0004" data-entity-2="ent0005" data-link-type="dependency" data-source-line="8" id="lnk6"><path d="M426.5938,545.9063 C426.5938,572.0469 426.5938,618.125 426.5938,655.6719" fill="none" id="*start*NoAccess-to-Idle" style="stroke:#181818;stroke-width:1.5625;"/><polygon fill="#181818" points="426.5938,665.0469,432.8438,650.9844,426.5938,657.2344,420.3438,650.9844,426.5938,665.0469" style="stroke:#181818;stroke-width:1.5625;"/><text fill="#000000" font-family="sans-serif" font-size="20.3125" lengthAdjust="spacing" textLength="133.2809" x="428.1563" y="612.6045">&#1053;&#1077;&#1090; &#1076;&#1086;&#1089;&#1090;&#1091;&#1087;&#1072;</text></g><!--link Idle to CardAndPIN--><g class="link" data-entity-1="ent0005" data-entity-2="ent0003" data-link-type="dependency" data-source-line="9" id="lnk7"><path d="M421.2031,744.3125 C418.2188,772.4219 416.1406,811.5 421.9063,845.3125 C424.5781,860.9375 426.5342,868.7227 431.8936,883.004" fill="none" id="Idle-to-CardAndPIN" style="stroke:#181818;stroke-width:1.5625;"/><polygon fill="#181818" points="435.1875,891.7813,436.0982,876.4194,432.4426,884.4668,424.3951,880.8112,435.1875,891.7813" style="stroke:#181818;stroke-width:1.5625;"/><text fill="#000000" font-family="sans-serif" font-size="20.3125" lengthAdjust="spacing" textLength="381.3454" x="423.4688" y="839.167">&#1050;&#1072;&#1088;&#1090;&#1072; &#1080;&#1085;&#1082;&#1072;&#1089;&#1089;&#1072;&#1090;&#1086;&#1088;&#1072; (16 &#1094;&#1080;&#1092;&#1088;) + PIN</text></g><!--link CardAndPIN to ServiceMenu--><g class="link" data-entity-1="ent0003" data-entity-2="ent0004" data-link-type="dependency" data-source-line="13" id="lnk8"><path d="M474,971.0469 C491.4219,1000.75 512.2744,1036.3497 538.9932,1081.9279" fill="none" id="CardAndPIN-to-ServiceMenu" style="stroke:#181818;stroke-width:1.5625;"/><polygon fill="#181818" points="543.7344,1090.0156,542.0144,1074.7232,539.7834,1083.2758,531.2308,1081.0448,543.7344,1090.0156" style="stroke:#181818;stroke-width:1.5625;"/><text fill="#000000" font-family="sans-serif" font-size="20.3125" lengthAdjust="spacing" textLength="282.8278" x="515.6563" y="1037.6045">&#1040;&#1091;&#1090;&#1077;&#1085;&#1090;&#1080;&#1092;&#1080;&#1082;&#1072;&#1094;&#1080;&#1103; &#1091;&#1089;&#1087;&#1077;&#1096;&#1085;&#1072;</text></g><!--link *start*ServiceEnding to Logout--><g class="link" data-entity-1="ent0021" data-entity-2="ent0022" data-link-type="dependency" data-source-line="27" id="lnk23"><path d="M578.5625,109.9688 C579.2813,136.1094 580.5239,182.191 581.5551,219.7379" fill="none" id="*start*ServiceEnding-to-Logout" style="stroke:#181818;stroke-width:1.5625;"/><polygon fill="#181818" points="581.8125,229.1094,587.6741,214.8806,581.598,221.2998,575.1788,215.2238,581.8125,229.1094" style="stroke:#181818;stroke-width:1.5625;"/><text fill="#000000" font-family="sans-serif" font-size="20.3125" lengthAdjust="spacing" textLength="64.2998" x="582.8438" y="176.667">4. Exit</text></g><!--link Logout to NoAccess--><g class="link" data-entity-1="ent0022" data-entity-2="ent0002" data-link-type="dependency" data-source-line="28" id="lnk24"><path d="M585.3906,308.3594 C587.7422,343.6562 591.3281,397.4453 594.3633,442.9727 C594.4107,443.684 594.458,444.3934 594.5051,445.1006 C594.5287,445.4542 593.9286,436.4531 593.9521,436.8056" fill="none" id="Logout-to-NoAccess" style="stroke:#181818;stroke-width:1.5625;"/><polygon fill="#181818" points="594.5758,446.1598,599.8765,431.7127,594.0561,438.3646,587.4042,432.5442,594.5758,446.1598" style="stroke:#181818;stroke-width:1.5625;"/><text fill="#000000" font-family="sans-serif" font-size="20.3125" lengthAdjust="spacing" textLength="68.4654" x="593.7813" y="403.2295">&#1042;&#1099;&#1093;&#1086;&#1076;</text></g><!--link ServiceMenu to ServiceEnding--><g class="link" data-entity-1="ent0004" data-entity-2="ent0005" data-link-type="dependency" data-source-line="31" id="lnk25"><path d="M806.1094,1090.2656 C829.875,1041.125 846.9063,987 846.9063,932.8125 C846.9063,267.1875 846.9063,267.1875 846.9063,267.1875 C846.9063,215.2109 807.1641,172.7617 766.8008,143.0527 C746.6191,128.1982 726.2822,116.5288 710.6802,108.446 C706.7797,106.4254 703.1751,104.6288 699.9428,103.0627 C698.3267,102.2797 705.2895,105.5393 703.8691,104.8723" fill="none" id="ServiceMenu-to-ServiceEnding" style="stroke:#181818;stroke-width:1.5625;"/><polygon fill="#181818" points="695.3833,100.8872,705.4554,112.5221,702.4548,104.2081,710.7688,101.2076,695.3833,100.8872" style="stroke:#181818;stroke-width:1.5625;"/><text fill="#000000" font-family="sans-serif" font-size="20.3125" lengthAdjust="spacing" textLength="64.2998" x="848.4688" y="612.6045">4. Exit</text></g><?plantuml-src ZPB9IWD148RlynHrT44nRWSFGWWv13I87iL3EzCcWvEPC3rHGOGiRkX1yQ88uYi4IJ2eYQzGzKPMXIpjSl0oJDVo_NzNjTdtmxAALGbAKHYvnJWgQKZYYdRCA6EAoeiE_R00UoemTiOh-v1QcdESxQaTc9bPXNoKTbrjZEEOH2LwT8PZ1s1ObFC23Ik0JzYcEc0BUrIZEZNm4vjSrazBNKR5NZhqDd9vgNx49bMfZat03dRnZOyrgl6tplrL3a-abe7EiKEdL9s4QU0-vsHen6A95UieIbiwFl1TlQx3YaZTKeEfRUpobt6i9sg2lW5ErTXecoxPH7CiO2FiowOFb1-etK1pRFJVpspgSg13tnHPCZKB-8mz1lVmdS6ipQfj40qETEY2pLpZ1tP-OJ9H46WtOSWyGnxmbQxeHep_QgUpFpqeLsUKCJf9P2iB3Bddhe--1nxsSD2yAxfcmDZsj-l9tAJlXGkhF1pfxica1_R-LVpJpZ-QVYuW6thoKkqLh4M5g283Mfo5x96VS6eGif-iuEzaIBo2bc3jZLgFP20medq1?></g></svg>