<?plantuml 1.2026.2beta3?><svg xmlns="http://www.w3.org/2000/svg" xmlns:xlink="http://www.w3.org/1999/xlink" contentStyleType="text/css" data-diagram-type="STATE" height="1862.5px" preserveAspectRatio="none" style="width:5134px;height:1862px;background:#FFFFFF;" version="1.1" viewBox="0 0 5134 1862" width="5134.375px" zoomAndPan="magnify"><defs/><g><!--cluster PIN_Entry--><g class="cluster" data-qualified-name="PIN_Entry" data-source-line="15" id="ent0004"><path d="M30.4688,10.9375 L378.9063,10.9375 A19.5313,19.5313 0 0 1 398.4375,30.4688 L398.4375,44.2139 L10.9375,44.2139 L10.9375,30.4688 A19.5313,19.5313 0 0 1 30.4688,10.9375" fill="#F1F1F1"/><rect fill="none" height="563.0625" rx="19.5313" ry="19.5313" style="stroke:#181818;stroke-width:0.7813;" width="387.5" x="10.9375" y="10.9375"/><line style="stroke:#181818;stroke-width:0.7813;" x1="10.9375" x2="398.4375" y1="44.2139" y2="44.2139"/><text fill="#000000" font-family="sans-serif" font-size="21.875" lengthAdjust="spacing" textLength="105.1453" x="152.1149" y="37.4924">PIN_Entry</text></g><!--cluster Authenticated--><g class="cluster" data-qualified-name="Authenticated" data-source-line="23" id="ent0005"><path d="M963.2813,448.4375 L3710.1563,448.4375 A19.5313,19.5313 0 0 1 3729.6875,467.9688 L3729.6875,481.7139 L943.75,481.7139 L943.75,467.9688 A19.5313,19.5313 0 0 1 963.2813,448.4375" fill="#F1F1F1"/><rect fill="none" height="642.4063" rx="19.5313" ry="19.5313" style="stroke:#181818;stroke-width:0.7813;" width="2785.9375" x="943.75" y="448.4375"/><line style="stroke:#181818;stroke-width:0.7813;" x1="943.75" x2="3729.6875" y1="481.7139" y2="481.7139"/><text fill="#000000" font-family="sans-serif" font-size="21.875" lengthAdjust="spacing" textLength="154.599" x="2259.4193" y="474.9924">Authenticated</text></g><!--cluster SessionEnding--><g class="cluster" data-qualified-name="SessionEnding" data-source-line="39" id="ent0006"><path d="M3811.7188,703.3438 L4116.4063,703.3438 A19.5313,19.5313 0 0 1 4135.9375,722.875 L4135.9375,736.6201 L3792.1875,736.6201 L3792.1875,722.875 A19.5313,19.5313 0 0 1 3811.7188,703.3438" fill="#F1F1F1"/><rect fill="none" height="387.5" rx="19.5313" ry="19.5313" style="stroke:#181818;stroke-width:0.7813;" width="343.75" x="3792.1875" y="703.3438"/><line style="stroke:#181818;stroke-width:0.7813;" x1="3792.1875" x2="4135.9375" y1="736.6201" y2="736.6201"/><text fill="#000000" font-family="sans-serif" font-size="21.875" lengthAdjust="spacing" textLength="158.8608" x="3884.6321" y="729.8986">SessionEnding</text></g><!--cluster CardRetainedBlocked--><g class="cluster" data-qualified-name="CardRetainedBlocked" data-source-line="44" id="ent0007"><path d="M480.4688,448.4375 L817.9688,448.4375 A19.5313,19.5313 0 0 1 837.5,467.9688 L837.5,481.7139 L460.9375,481.7139 L460.9375,467.9688 A19.5313,19.5313 0 0 1 480.4688,448.4375" fill="#F1F1F1"/><rect fill="none" height="642.4063" rx="19.5313" ry="19.5313" style="stroke:#181818;stroke-width:0.7813;" width="376.5625" x="460.9375" y="448.4375"/><line style="stroke:#181818;stroke-width:0.7813;" x1="460.9375" x2="837.5" y1="481.7139" y2="481.7139"/><text fill="#000000" font-family="sans-serif" font-size="21.875" lengthAdjust="spacing" textLength="235.9894" x="531.2241" y="474.9924">CardRetainedBlocked</text></g><g class="start_entity" data-qualified-name="PIN_Entry..start.PIN_Entry" data-source-line="16" id="ent0010"><ellipse cx="265.625" cy="123.4375" fill="#222222" rx="15.625" ry="15.625" style="stroke:#222222;stroke-width:1.5625;"/></g><g class="entity" data-qualified-name="PIN_Entry.EnteringPIN" id="ent0011"><rect fill="#F1F1F1" height="78.125" rx="19.5313" ry="19.5313" style="stroke:#181818;stroke-width:0.7813;" width="159.7977" x="201.3438" y="259.375"/><line style="stroke:#181818;stroke-width:0.7813;" x1="201.3438" x2="361.1414" y1="300.4639" y2="300.4639"/><text fill="#000000" font-family="sans-serif" font-size="21.875" lengthAdjust="spacing" textLength="128.5477" x="216.9688" y="287.4924">EnteringPIN</text></g><g class="start_entity" data-qualified-name="Authenticated..start.Authenticated" data-source-line="24" id="ent0017"><ellipse cx="2723.4375" cy="560.9375" fill="#222222" rx="15.625" ry="15.625" style="stroke:#222222;stroke-width:1.5625;"/></g><g class="entity" data-qualified-name="Authenticated.Menu" id="ent0018"><rect fill="#F1F1F1" height="78.125" rx="19.5313" ry="19.5313" style="stroke:#181818;stroke-width:0.7813;" width="91.3101" x="2448.0938" y="776.7813"/><line style="stroke:#181818;stroke-width:0.7813;" x1="2448.0938" x2="2539.4039" y1="817.8701" y2="817.8701"/><text fill="#000000" font-family="sans-serif" font-size="21.875" lengthAdjust="spacing" textLength="60.0601" x="2463.7188" y="804.8986">Menu</text></g><g class="entity" data-qualified-name="Authenticated.CheckBalance" id="ent0020"><rect fill="#F1F1F1" height="78.125" rx="19.5313" ry="19.5313" style="stroke:#181818;stroke-width:0.7813;" width="185.7849" x="1082.1094" y="975.2188"/><line style="stroke:#181818;stroke-width:0.7813;" x1="1082.1094" x2="1267.8943" y1="1016.3076" y2="1016.3076"/><text fill="#000000" font-family="sans-serif" font-size="21.875" lengthAdjust="spacing" textLength="154.5349" x="1097.7344" y="1003.3361">CheckBalance</text></g><g class="entity" data-qualified-name="Authenticated.Withdraw" id="ent0022"><rect fill="#F1F1F1" height="78.125" rx="19.5313" ry="19.5313" style="stroke:#181818;stroke-width:0.7813;" width="135.5728" x="1560.3438" y="975.2188"/><line style="stroke:#181818;stroke-width:0.7813;" x1="1560.3438" x2="1695.9166" y1="1016.3076" y2="1016.3076"/><text fill="#000000" font-family="sans-serif" font-size="21.875" lengthAdjust="spacing" textLength="104.3228" x="1575.9688" y="1003.3361">Withdraw</text></g><g class="entity" data-qualified-name="Authenticated.Deposit" id="ent0024"><rect fill="#F1F1F1" height="78.125" rx="19.5313" ry="19.5313" style="stroke:#181818;stroke-width:0.7813;" width="114.8727" x="2006.625" y="975.2188"/><line style="stroke:#181818;stroke-width:0.7813;" x1="2006.625" x2="2121.4977" y1="1016.3076" y2="1016.3076"/><text fill="#000000" font-family="sans-serif" font-size="21.875" lengthAdjust="spacing" textLength="83.6227" x="2022.25" y="1003.3361">Deposit</text></g><g class="entity" data-qualified-name="Authenticated.Transfer" id="ent0026"><rect fill="#F1F1F1" height="78.125" rx="19.5313" ry="19.5313" style="stroke:#181818;stroke-width:0.7813;" width="122.4243" x="2432.5313" y="975.2188"/><line style="stroke:#181818;stroke-width:0.7813;" x1="2432.5313" x2="2554.9556" y1="1016.3076" y2="1016.3076"/><text fill="#000000" font-family="sans-serif" font-size="21.875" lengthAdjust="spacing" textLength="91.1743" x="2448.1563" y="1003.3361">Transfer</text></g><g class="entity" data-qualified-name="Authenticated.Payment" id="ent0028"><rect fill="#F1F1F1" height="78.125" rx="19.5313" ry="19.5313" style="stroke:#181818;stroke-width:0.7813;" width="127.9999" x="2865.6875" y="975.2188"/><line style="stroke:#181818;stroke-width:0.7813;" x1="2865.6875" x2="2993.6874" y1="1016.3076" y2="1016.3076"/><text fill="#000000" font-family="sans-serif" font-size="21.875" lengthAdjust="spacing" textLength="96.7499" x="2881.3125" y="1003.3361">Payment</text></g><g class="entity" data-qualified-name="Authenticated.PinChange" id="ent0030"><rect fill="#F1F1F1" height="78.125" rx="19.5313" ry="19.5313" style="stroke:#181818;stroke-width:0.7813;" width="148.1339" x="3307.1875" y="975.2188"/><line style="stroke:#181818;stroke-width:0.7813;" x1="3307.1875" x2="3455.3214" y1="1016.3076" y2="1016.3076"/><text fill="#000000" font-family="sans-serif" font-size="21.875" lengthAdjust="spacing" textLength="116.8839" x="3322.8125" y="1003.3361">PinChange</text></g><g class="start_entity" data-qualified-name="SessionEnding..start.SessionEnding" data-source-line="40" id="ent0038"><ellipse cx="3884.375" cy="815.8438" fill="#222222" rx="15.625" ry="15.625" style="stroke:#222222;stroke-width:1.5625;"/></g><g class="entity" data-qualified-name="SessionEnding.EjectCard" id="ent0039"><rect fill="#F1F1F1" height="78.125" rx="19.5313" ry="19.5313" style="stroke:#181818;stroke-width:0.7813;" width="136.7691" x="3830.0469" y="975.2188"/><line style="stroke:#181818;stroke-width:0.7813;" x1="3830.0469" x2="3966.816" y1="1016.3076" y2="1016.3076"/><text fill="#000000" font-family="sans-serif" font-size="21.875" lengthAdjust="spacing" textLength="105.5191" x="3845.6719" y="1003.3361">EjectCard</text></g><g class="start_entity" data-qualified-name="CardRetainedBlocked..start.CardRetainedBlocked" data-source-line="45" id="ent0042"><ellipse cx="562.5" cy="560.9375" fill="#222222" rx="15.625" ry="15.625" style="stroke:#222222;stroke-width:1.5625;"/></g><g class="entity" data-qualified-name="CardRetainedBlocked.Retained" id="ent0043"><rect fill="#F1F1F1" height="78.125" rx="19.5313" ry="19.5313" style="stroke:#181818;stroke-width:0.7813;" width="129.1748" x="497.9063" y="776.7813"/><line style="stroke:#181818;stroke-width:0.7813;" x1="497.9063" x2="627.0811" y1="817.8701" y2="817.8701"/><text fill="#000000" font-family="sans-serif" font-size="21.875" lengthAdjust="spacing" textLength="97.9248" x="513.5313" y="804.8986">Retained</text></g><g class="entity" data-qualified-name="CardRetainedBlocked.Blocked" id="ent0045"><rect fill="#F1F1F1" height="78.125" rx="19.5313" ry="19.5313" style="stroke:#181818;stroke-width:0.7813;" width="117.7567" x="525.5" y="975.2188"/><line style="stroke:#181818;stroke-width:0.7813;" x1="525.5" x2="643.2567" y1="1016.3076" y2="1016.3076"/><text fill="#000000" font-family="sans-serif" font-size="21.875" lengthAdjust="spacing" textLength="86.5067" x="541.125" y="1003.3361">Blocked</text></g><path d="M651.2656,1201.7813 L798.7433,1201.7813 A19.5313,19.5313 0 0 1 818.2746,1221.3125 L818.2746,1242.8701 L631.7344,1242.8701 L631.7344,1221.3125 A19.5313,19.5313 0 0 1 651.2656,1201.7813" fill="#F1F1F1"/><rect fill="none" height="266.0889" rx="19.5313" ry="19.5313" style="stroke:#181818;stroke-width:0.7813;" width="186.5402" x="631.7344" y="1201.7813"/><line style="stroke:#181818;stroke-width:0.7813;" x1="631.7344" x2="818.2746" y1="1242.8701" y2="1242.8701"/><text fill="#000000" font-family="sans-serif" font-size="21.875" lengthAdjust="spacing" textLength="81.3049" x="684.352" y="1229.8986">NoCard</text><g class="start_entity" data-qualified-name="NoCard..start.NoCard" data-source-line="8" id="ent0004"><ellipse cx="689.5469" cy="1275.6826" fill="#222222" rx="15.625" ry="15.625" style="stroke:#222222;stroke-width:1.5625;"/></g><g class="entity" data-qualified-name="NoCard.Idle" id="ent0005"><rect fill="#F1F1F1" height="78.125" rx="19.5313" ry="19.5313" style="stroke:#181818;stroke-width:0.7813;" width="78.125" x="650.4844" y="1374.1201"/><line style="stroke:#181818;stroke-width:0.7813;" x1="650.4844" x2="728.6094" y1="1415.209" y2="1415.209"/><text fill="#000000" font-family="sans-serif" font-size="21.875" lengthAdjust="spacing" textLength="39.8727" x="669.6105" y="1402.2375">Idle</text></g><!--link *start*NoCard to Idle--><g class="link" data-entity-1="ent0004" data-entity-2="ent0005" data-link-type="dependency" data-source-line="8" id="lnk6"><path d="M689.5469,1291.6201 C689.5469,1310.9951 689.5469,1336.792 689.5469,1364.0576" fill="none" id="*start*NoCard-to-Idle" style="stroke:#181818;stroke-width:1.5625;"/><polygon fill="#181818" points="689.5469,1373.4326,695.7969,1359.3701,689.5469,1365.6201,683.2969,1359.3701,689.5469,1373.4326" style="stroke:#181818;stroke-width:1.5625;"/><text fill="#000000" font-family="sans-serif" font-size="20.3125" lengthAdjust="spacing" textLength="111.5402" x="691.1094" y="1339.8496">&#1053;&#1077;&#1090; &#1082;&#1072;&#1088;&#1090;&#1099;</text></g><path d="M202.7188,1588.1719 L544.1502,1588.1719 A19.5313,19.5313 0 0 1 563.6814,1607.7031 L563.6814,1629.2607 L183.1875,1629.2607 L183.1875,1607.7031 A19.5313,19.5313 0 0 1 202.7188,1588.1719" fill="#F1F1F1"/><rect fill="none" height="266.0889" rx="19.5313" ry="19.5313" style="stroke:#181818;stroke-width:0.7813;" width="380.4939" x="183.1875" y="1588.1719"/><line style="stroke:#181818;stroke-width:0.7813;" x1="183.1875" x2="563.6814" y1="1629.2607" y2="1629.2607"/><text fill="#000000" font-family="sans-serif" font-size="21.875" lengthAdjust="spacing" textLength="141.6428" x="302.6131" y="1616.2892">CardInserted</text><g class="start_entity" data-qualified-name="CardInserted..start.CardInserted" data-source-line="12" id="ent0007"><ellipse cx="253.5" cy="1662.0732" fill="#222222" rx="15.625" ry="15.625" style="stroke:#222222;stroke-width:1.5625;"/></g><g class="entity" data-qualified-name="CardInserted.CardIn" id="ent0008"><rect fill="#F1F1F1" height="78.125" rx="19.5313" ry="19.5313" style="stroke:#181818;stroke-width:0.7813;" width="103.1235" x="201.9375" y="1760.5107"/><line style="stroke:#181818;stroke-width:0.7813;" x1="201.9375" x2="305.061" y1="1801.5996" y2="1801.5996"/><text fill="#000000" font-family="sans-serif" font-size="21.875" lengthAdjust="spacing" textLength="71.8735" x="217.5625" y="1788.6281">CardIn</text></g><!--link *start*CardInserted to CardIn--><g class="link" data-entity-1="ent0007" data-entity-2="ent0008" data-link-type="dependency" data-source-line="12" id="lnk9"><path d="M253.5,1678.0107 C253.5,1697.3857 253.5,1723.1826 253.5,1750.4482" fill="none" id="*start*CardInserted-to-CardIn" style="stroke:#181818;stroke-width:1.5625;"/><polygon fill="#181818" points="253.5,1759.8232,259.75,1745.7607,253.5,1752.0107,247.25,1745.7607,253.5,1759.8232" style="stroke:#181818;stroke-width:1.5625;"/><text fill="#000000" font-family="sans-serif" font-size="20.3125" lengthAdjust="spacing" textLength="292.9939" x="255.0625" y="1726.2403">&#1050;&#1072;&#1088;&#1090;&#1072; &#1074;&#1089;&#1090;&#1072;&#1074;&#1083;&#1077;&#1085;&#1072; (16 &#1094;&#1080;&#1092;&#1088;)</text></g><g class="start_entity" data-qualified-name=".start." data-source-line="5" id="ent0002"><ellipse cx="890.625" cy="1014.2813" fill="#222222" rx="15.625" ry="15.625" style="stroke:#222222;stroke-width:1.5625;"/></g><g class="entity" data-qualified-name="GMN2" data-source-line="56" id="ent0003"><path d="M3771.9531,541.3125 L3771.9531,580.5825 L4121.7914,580.5825 L4121.7914,556.9375 L4106.1664,541.3125 L3771.9531,541.3125" fill="#FAFAFA" style="stroke:#181818;stroke-width:0.7813;"/><path d="M4106.1664,541.3125 L4106.1664,556.9375 L4121.7914,556.9375 L4106.1664,541.3125" fill="#FAFAFA" style="stroke:#181818;stroke-width:1.5625;"/><text fill="#000000" font-family="sans-serif" font-size="20.3125" lengthAdjust="spacing" textLength="317.0258" x="3781.3281" y="567.9795">&#1055;&#1088;&#1086;&#1074;&#1077;&#1088;&#1082;&#1072; &#1095;&#1077;&#1088;&#1077;&#1079; BankGateway</text></g><g class="entity" data-qualified-name="GMN5" data-source-line="60" id="ent0006"><path d="M4176.5625,541.3125 L4176.5625,580.5825 L4614.0778,580.5825 L4614.0778,556.9375 L4598.4528,541.3125 L4176.5625,541.3125" fill="#FAFAFA" style="stroke:#181818;stroke-width:0.7813;"/><path d="M4598.4528,541.3125 L4598.4528,556.9375 L4614.0778,556.9375 L4598.4528,541.3125" fill="#FAFAFA" style="stroke:#181818;stroke-width:1.5625;"/><text fill="#000000" font-family="sans-serif" font-size="20.3125" lengthAdjust="spacing" textLength="404.7028" x="4185.9375" y="567.9795">&#1041;&#1083;&#1086;&#1082;&#1080;&#1088;&#1086;&#1074;&#1082;&#1072; &#1074; &#1073;&#1072;&#1085;&#1082;&#1077; + &#1080;&#1079;&#1098;&#1103;&#1090;&#1080;&#1077; &#1082;&#1072;&#1088;&#1090;&#1099;</text></g><g class="entity" data-qualified-name="GMN8" data-source-line="64" id="ent0009"><path d="M4668.7656,529.4844 L4668.7656,592.3994 L5124.9866,592.3994 L5124.9866,545.1094 L5109.3616,529.4844 L4668.7656,529.4844" fill="#FAFAFA" style="stroke:#181818;stroke-width:0.7813;"/><path d="M5109.3616,529.4844 L5109.3616,545.1094 L5124.9866,545.1094 L5109.3616,529.4844" fill="#FAFAFA" style="stroke:#181818;stroke-width:1.5625;"/><text fill="#000000" font-family="sans-serif" font-size="20.3125" lengthAdjust="spacing" textLength="270.5688" x="4678.1406" y="556.1514">&#1055;&#1086;&#1089;&#1083;&#1077; &#1082;&#1072;&#1078;&#1076;&#1086;&#1081; &#1086;&#1087;&#1077;&#1088;&#1072;&#1094;&#1080;&#1080;:</text><text fill="#000000" font-family="sans-serif" font-size="20.3125" lengthAdjust="spacing" textLength="423.4085" x="4678.1406" y="579.7964">&#1088;&#1077;&#1079;&#1091;&#1083;&#1100;&#1090;&#1072;&#1090; &#1085;&#1072; &#1101;&#1082;&#1088;&#1072;&#1085;, *Beep* &#1074; &#1083;&#1086;&#1075;, Enter</text></g><!--link *start* to NoCard--><g class="link" data-entity-1="ent0002" data-entity-2="ent0002" data-link-type="dependency" data-source-line="5" id="lnk3"><path d="M887.5937,1030.1719 C881.8125,1056 867.8906,1111.6406 846.875,1154.9063 C838.6875,1171.7656 833.9662,1180.8631 823.7474,1197.4412" fill="none" id="*start*-to-NoCard" style="stroke:#181818;stroke-width:1.5625;"/><polygon fill="#181818" points="818.8281,1205.4219,831.5275,1196.7304,822.9275,1198.7713,820.8866,1190.1713,818.8281,1205.4219" style="stroke:#181818;stroke-width:1.5625;"/></g><!--link *start*PIN_Entry to EnteringPIN--><g class="link" data-entity-1="ent0010" data-entity-2="ent0011" data-link-type="dependency" data-source-line="16" id="lnk12"><path d="M266.9531,139.6563 C269.3281,165.7969 273.528,211.9133 276.9342,249.4602" fill="none" id="*start*PIN_Entry-to-EnteringPIN" style="stroke:#181818;stroke-width:1.5625;"/><polygon fill="#181818" points="277.7813,258.7969,282.7352,244.2272,277.0754,251.0163,270.2863,245.3566,277.7813,258.7969" style="stroke:#181818;stroke-width:1.5625;"/><text fill="#000000" font-family="sans-serif" font-size="20.3125" lengthAdjust="spacing" textLength="92.2691" x="275" y="206.3545">&#1042;&#1074;&#1086;&#1076; PIN</text></g><!--link EnteringPIN to PIN_Entry--><g class="link" data-entity-1="ent0011" data-entity-2="ent0004" data-link-type="dependency" data-source-line="17" id="lnk13"><path d="M201.0781,311.2969 C129.6094,325.2344 40.9375,354.3906 73.4375,410.9375 C137.6875,522.7656 313.0245,556.5137 318.7745,557.6075" fill="none" id="EnteringPIN-to-PIN_Entry" style="stroke:#181818;stroke-width:1.5625;"/><polygon fill="#181818" points="327.9844,559.3594,315.3375,550.5917,320.3095,557.8995,313.0017,562.8715,327.9844,559.3594" style="stroke:#181818;stroke-width:1.5625;"/><text fill="#000000" font-family="sans-serif" font-size="20.3125" lengthAdjust="spacing" textLength="305.0346" x="75" y="404.792">&#1053;&#1077;&#1074;&#1077;&#1088;&#1085;&#1099;&#1081; PIN [&#1087;&#1086;&#1087;&#1099;&#1090;&#1082;&#1080; &lt; 3]</text></g><!--link EnteringPIN to Authenticated--><g class="link" data-entity-1="ent0011" data-entity-2="ent0005" data-link-type="dependency" data-source-line="18" id="lnk14"><path d="M361.75,299.9375 C866.6406,299.8437 3579.3125,304.8594 3704.6875,423.4375 C3710.1113,428.5684 3714.3896,434.4949 3717.7222,440.9435 C3718.5554,442.5557 3719.3294,444.2005 3720.0475,445.8737 C3720.4065,446.7103 3717.3466,438.8191 3717.6781,439.6693" fill="none" id="EnteringPIN-to-Authenticated" style="stroke:#181818;stroke-width:1.5625;"/><polygon fill="#181818" points="3721.0829,448.4042,3721.7989,433.032,3718.2455,441.1251,3710.1524,437.5718,3721.0829,448.4042" style="stroke:#181818;stroke-width:1.5625;"/><text fill="#000000" font-family="sans-serif" font-size="20.3125" lengthAdjust="spacing" textLength="171.6446" x="3673.4375" y="404.792">&#1050;&#1086;&#1088;&#1088;&#1077;&#1082;&#1090;&#1085;&#1099;&#1081; PIN</text></g><!--link EnteringPIN to CardRetainedBlocked--><g class="link" data-entity-1="ent0011" data-entity-2="ent0007" data-link-type="dependency" data-source-line="19" id="lnk15"><path d="M330.0156,337.7969 C368.4844,366.7344 419.5625,403.0313 443.75,410.9375 C463.2344,417.3281 797.5938,409.375 812.5,423.4375 C817.9297,428.5625 822.2124,434.4846 825.5482,440.9301 C826.3821,442.5415 827.1569,444.1855 827.8756,445.858 C828.235,446.6943 825.1718,438.8042 825.5035,439.6542" fill="none" id="EnteringPIN-to-CardRetainedBlocked" style="stroke:#181818;stroke-width:1.5625;"/><polygon fill="#181818" points="828.912,448.3876,829.6215,433.0151,826.0716,441.1097,817.977,437.5598,828.912,448.3876" style="stroke:#181818;stroke-width:1.5625;"/><text fill="#000000" font-family="sans-serif" font-size="20.3125" lengthAdjust="spacing" textLength="322.0543" x="445.3125" y="404.792">&#1053;&#1077;&#1074;&#1077;&#1088;&#1085;&#1099;&#1081; PIN [&#1087;&#1086;&#1087;&#1099;&#1090;&#1082;&#1080; &gt;= 3]</text></g><!--link EnteringPIN to CardRetainedBlocked--><g class="link" data-entity-1="ent0011" data-entity-2="ent0007" data-link-type="dependency" data-source-line="20" id="lnk16"><path d="M361.8281,298.6406 C463.8438,300.1875 642.2813,314 775,384.375 C796.2656,395.6563 802.5,401.5469 812.5,423.4375 C815.5508,430.1211 818.0459,437.1794 820.0752,444.4238 C820.3289,445.3293 820.5752,446.2378 820.8145,447.1487 C820.8743,447.3765 818.5881,438.5276 818.647,438.7556" fill="none" id="EnteringPIN-to-CardRetainedBlocked-1" style="stroke:#181818;stroke-width:1.5625;"/><polygon fill="#181818" points="820.9927,447.8324,823.5254,432.6535,819.0379,440.2684,811.423,435.781,820.9927,447.8324" style="stroke:#181818;stroke-width:1.5625;"/><text fill="#000000" font-family="sans-serif" font-size="20.3125" lengthAdjust="spacing" textLength="281.8954" x="807.8125" y="404.792">&#1050;&#1072;&#1088;&#1090;&#1072; &#1091;&#1078;&#1077; &#1079;&#1072;&#1073;&#1083;&#1086;&#1082;&#1080;&#1088;&#1086;&#1074;&#1072;&#1085;&#1072;</text></g><!--link *start*Authenticated to Menu--><g class="link" data-entity-1="ent0017" data-entity-2="ent0018" data-link-type="dependency" data-source-line="24" id="lnk19"><path d="M2717.1563,576.0938 C2707.2656,596.7188 2686.6563,636.625 2662.5,665.8438 C2625.9375,710.0313 2583.1377,746.6702 2546.997,774.7483" fill="none" id="*start*Authenticated-to-Menu" style="stroke:#181818;stroke-width:1.5625;"/><polygon fill="#181818" points="2539.5938,780.5,2554.5331,776.808,2545.7631,775.7069,2546.8642,766.9369,2539.5938,780.5" style="stroke:#181818;stroke-width:1.5625;"/><text fill="#000000" font-family="sans-serif" font-size="20.3125" lengthAdjust="spacing" textLength="170.6329" x="2682.8125" y="659.6983">&#1052;&#1077;&#1085;&#1102; &#1086;&#1087;&#1077;&#1088;&#1072;&#1094;&#1080;&#1081;</text></g><!--link Menu to CheckBalance--><g class="link" data-entity-1="ent0018" data-entity-2="ent0020" data-link-type="dependency" data-source-line="25" id="lnk21"><path d="M2447.6719,818.2969 C2204.6719,823.2656 1081.0625,849.0156 1031.25,901.7813 C1003.7656,930.8906 1030.4848,954.3668 1072.8911,974.7106" fill="none" id="Menu-to-CheckBalance" style="stroke:#181818;stroke-width:1.5625;"/><polygon fill="#181818" points="1081.3438,978.7656,1071.3681,967.048,1074.2999,975.3864,1065.9614,978.3182,1081.3438,978.7656" style="stroke:#181818;stroke-width:1.5625;"/><text fill="#000000" font-family="sans-serif" font-size="20.3125" lengthAdjust="spacing" textLength="175.7904" x="1032.8125" y="922.1983">1. Check Balance</text></g><!--link CheckBalance to Menu--><g class="link" data-entity-1="ent0020" data-entity-2="ent0018" data-link-type="dependency" data-source-line="31" id="lnk32"><path d="M1209.5,974.7188 C1235.1719,949.2188 1272.5469,917.5 1312.5,901.7813 C1524.6094,818.2656 2246.2032,816.0799 2437.9845,817.0018" fill="none" id="CheckBalance-to-Menu" style="stroke:#181818;stroke-width:1.5625;"/><polygon fill="#181818" points="2447.3594,817.0469,2433.3271,810.7294,2439.547,817.0093,2433.267,823.2292,2447.3594,817.0469" style="stroke:#181818;stroke-width:1.5625;"/><text fill="#000000" font-family="sans-serif" font-size="20.3125" lengthAdjust="spacing" textLength="193.7325" x="1314.0625" y="922.1983">&#1088;&#1077;&#1079;&#1091;&#1083;&#1100;&#1090;&#1072;&#1090; + Enter</text></g><!--link Menu to Withdraw--><g class="link" data-entity-1="ent0018" data-entity-2="ent0022" data-link-type="dependency" data-source-line="26" id="lnk23"><path d="M2447.5156,817.875 C2263.7813,820.2031 1592.3281,833.4063 1529.6875,901.7813 C1507.7656,925.7031 1523.6884,947.417 1553.2197,968.9326" fill="none" id="Menu-to-Withdraw" style="stroke:#181818;stroke-width:1.5625;"/><polygon fill="#181818" points="1560.7969,974.4531,1553.1114,961.1208,1554.4825,969.8527,1545.7507,971.2238,1560.7969,974.4531" style="stroke:#181818;stroke-width:1.5625;"/><text fill="#000000" font-family="sans-serif" font-size="20.3125" lengthAdjust="spacing" textLength="122.7081" x="1531.25" y="922.1983">2. Withdraw</text></g><!--link Withdraw to Menu--><g class="link" data-entity-1="ent0022" data-entity-2="ent0018" data-link-type="dependency" data-source-line="32" id="lnk33"><path d="M1660.9688,974.6875 C1685.0625,949.5156 1720.0625,918.2188 1757.8125,901.7813 C1882.9375,847.2656 2297.1021,825.5368 2438.2115,819.5681" fill="none" id="Withdraw-to-Menu" style="stroke:#181818;stroke-width:1.5625;"/><polygon fill="#181818" points="2447.5781,819.1719,2433.2641,813.5218,2439.7726,819.502,2433.7923,826.0106,2447.5781,819.1719" style="stroke:#181818;stroke-width:1.5625;"/><text fill="#000000" font-family="sans-serif" font-size="20.3125" lengthAdjust="spacing" textLength="193.7325" x="1759.375" y="922.1983">&#1088;&#1077;&#1079;&#1091;&#1083;&#1100;&#1090;&#1072;&#1090; + Enter</text></g><!--link Menu to Deposit--><g class="link" data-entity-1="ent0018" data-entity-2="ent0024" data-link-type="dependency" data-source-line="27" id="lnk25"><path d="M2447.4063,817.625 C2331.7969,819.2813 2035.5938,830.5313 1975,901.7813 C1954.0313,926.4219 1970.4376,949.1426 1998.7032,971.0801" fill="none" id="Menu-to-Deposit" style="stroke:#181818;stroke-width:1.5625;"/><polygon fill="#181818" points="2006.1094,976.8281,1998.8322,963.2687,1999.9376,972.0381,1991.1682,973.1435,2006.1094,976.8281" style="stroke:#181818;stroke-width:1.5625;"/><text fill="#000000" font-family="sans-serif" font-size="20.3125" lengthAdjust="spacing" textLength="103.4866" x="1976.5625" y="922.1983">3. Deposit</text></g><!--link Deposit to Menu--><g class="link" data-entity-1="ent0024" data-entity-2="ent0018" data-link-type="dependency" data-source-line="33" id="lnk34"><path d="M2097.8594,974.8594 C2121.2813,950.75 2154.3906,920.625 2189.0625,901.7813 C2273.6875,855.7656 2376.2213,834.6316 2438.1588,824.9754" fill="none" id="Deposit-to-Menu" style="stroke:#181818;stroke-width:1.5625;"/><polygon fill="#181818" points="2447.4219,823.5313,2432.5645,819.5221,2439.7026,824.7347,2434.49,831.8729,2447.4219,823.5313" style="stroke:#181818;stroke-width:1.5625;"/><text fill="#000000" font-family="sans-serif" font-size="20.3125" lengthAdjust="spacing" textLength="193.7325" x="2190.625" y="922.1983">&#1088;&#1077;&#1079;&#1091;&#1083;&#1100;&#1090;&#1072;&#1090; + Enter</text></g><!--link Menu to Transfer--><g class="link" data-entity-1="ent0018" data-entity-2="ent0026" data-link-type="dependency" data-source-line="28" id="lnk27"><path d="M2447.375,847.1094 C2429.5469,861.2813 2411.1875,879.9375 2401.5625,901.7813 C2389.5469,929.0469 2401.4241,948.9344 2425.2835,968.825" fill="none" id="Menu-to-Transfer" style="stroke:#181818;stroke-width:1.5625;"/><polygon fill="#181818" points="2432.4844,974.8281,2425.6851,961.0228,2426.4836,969.8255,2417.6809,970.6241,2432.4844,974.8281" style="stroke:#181818;stroke-width:1.5625;"/><text fill="#000000" font-family="sans-serif" font-size="20.3125" lengthAdjust="spacing" textLength="110.4988" x="2403.125" y="922.1983">4. Transfer</text></g><!--link Transfer to Menu--><g class="link" data-entity-1="ent0026" data-entity-2="ent0018" data-link-type="dependency" data-source-line="34" id="lnk35"><path d="M2510.4531,974.5156 C2517.8281,953.2656 2524.0781,926.25 2520.3125,901.7813 C2517.9375,886.2969 2516.2165,878.6381 2511.4196,864.3412" fill="none" id="Transfer-to-Menu" style="stroke:#181818;stroke-width:1.5625;"/><polygon fill="#181818" points="2508.4375,855.4531,2506.9853,870.7733,2510.9226,862.8598,2518.836,866.7971,2508.4375,855.4531" style="stroke:#181818;stroke-width:1.5625;"/><text fill="#000000" font-family="sans-serif" font-size="20.3125" lengthAdjust="spacing" textLength="193.7325" x="2521.875" y="922.1983">&#1088;&#1077;&#1079;&#1091;&#1083;&#1100;&#1090;&#1072;&#1090; + Enter</text></g><!--link Menu to Payment--><g class="link" data-entity-1="ent0018" data-entity-2="ent0028" data-link-type="dependency" data-source-line="29" id="lnk29"><path d="M2539.9688,831.6563 C2587.8594,846.9688 2664.4688,873.0156 2728.125,901.7813 C2775.8125,923.3125 2819.3659,947.144 2858.4596,969.894" fill="none" id="Menu-to-Payment" style="stroke:#181818;stroke-width:1.5625;"/><polygon fill="#181818" points="2866.5625,974.6094,2857.5518,962.1345,2859.8101,970.6799,2851.2647,972.9383,2866.5625,974.6094" style="stroke:#181818;stroke-width:1.5625;"/><text fill="#000000" font-family="sans-serif" font-size="20.3125" lengthAdjust="spacing" textLength="115.6761" x="2779.6875" y="922.1983">5. Payment</text></g><!--link Payment to Menu--><g class="link" data-entity-1="ent0028" data-entity-2="ent0018" data-link-type="dependency" data-source-line="35" id="lnk36"><path d="M2932.7656,974.4375 C2932.5156,950.4688 2927.8906,920.6406 2909.375,901.7813 C2858.2031,849.6094 2645.8489,828.308 2548.8333,821.058" fill="none" id="Payment-to-Menu" style="stroke:#181818;stroke-width:1.5625;"/><polygon fill="#181818" points="2539.4844,820.3594,2553.042,827.64,2547.2752,820.9416,2553.9735,815.1747,2539.4844,820.3594" style="stroke:#181818;stroke-width:1.5625;"/><text fill="#000000" font-family="sans-serif" font-size="20.3125" lengthAdjust="spacing" textLength="193.7325" x="2925" y="922.1983">&#1088;&#1077;&#1079;&#1091;&#1083;&#1100;&#1090;&#1072;&#1090; + Enter</text></g><!--link Menu to PinChange--><g class="link" data-entity-1="ent0018" data-entity-2="ent0030" data-link-type="dependency" data-source-line="30" id="lnk31"><path d="M2539.875,819 C2646.1094,823.6563 2915.5313,841 3131.25,901.7813 C3193.8594,919.4219 3252.6837,945.7477 3301.6212,970.3102" fill="none" id="Menu-to-PinChange" style="stroke:#181818;stroke-width:1.5625;"/><polygon fill="#181818" points="3310,974.5156,3300.2354,962.6215,3303.0176,971.0111,3294.6281,973.7933,3310,974.5156" style="stroke:#181818;stroke-width:1.5625;"/><text fill="#000000" font-family="sans-serif" font-size="20.3125" lengthAdjust="spacing" textLength="140.8287" x="3203.125" y="922.1983">6. Pin Change</text></g><!--link PinChange to Menu--><g class="link" data-entity-1="ent0030" data-entity-2="ent0018" data-link-type="dependency" data-source-line="36" id="lnk37"><path d="M3383.7969,974.75 C3383.2031,950.2656 3377.9063,919.7656 3357.8125,901.7813 C3296.4531,846.875 2719.7452,824.5186 2549.3546,819.0655" fill="none" id="PinChange-to-Menu" style="stroke:#181818;stroke-width:1.5625;"/><polygon fill="#181818" points="2539.9844,818.7656,2553.8398,825.4622,2547.7929,819.0155,2554.2396,812.9686,2539.9844,818.7656" style="stroke:#181818;stroke-width:1.5625;"/><text fill="#000000" font-family="sans-serif" font-size="20.3125" lengthAdjust="spacing" textLength="193.7325" x="3375" y="922.1983">&#1088;&#1077;&#1079;&#1091;&#1083;&#1100;&#1090;&#1072;&#1090; + Enter</text></g><!--link *start*SessionEnding to EjectCard--><g class="link" data-entity-1="ent0038" data-entity-2="ent0039" data-link-type="dependency" data-source-line="40" id="lnk40"><path d="M3885.4375,832.0781 C3887.5938,862.0625 3891.8876,921.8368 3895.0283,965.3524" fill="none" id="*start*SessionEnding-to-EjectCard" style="stroke:#181818;stroke-width:1.5625;"/><polygon fill="#181818" points="3895.7031,974.7031,3900.9246,960.2272,3895.1407,966.9109,3888.457,961.127,3895.7031,974.7031" style="stroke:#181818;stroke-width:1.5625;"/><text fill="#000000" font-family="sans-serif" font-size="20.3125" lengthAdjust="spacing" textLength="198.8602" x="3893.75" y="922.1983">&#1048;&#1079;&#1074;&#1083;&#1077;&#1095;&#1077;&#1085;&#1080;&#1077; &#1082;&#1072;&#1088;&#1090;&#1099;</text></g><!--link EjectCard to NoCard--><g class="link" data-entity-1="ent0039" data-entity-2="ent0002" data-link-type="dependency" data-source-line="41" id="lnk41"><path d="M3839.9531,1053.9531 C3802.7969,1076.125 3752.7813,1102.2813 3704.6875,1115.8438 C3142.1094,1274.3594 1270.0449,1322.0865 827.9511,1331.274" fill="none" id="EjectCard-to-NoCard" style="stroke:#181818;stroke-width:1.5625;"/><polygon fill="#181818" points="818.5781,1331.4688,832.7674,1337.4252,826.3889,1331.3064,832.5077,1324.9279,818.5781,1331.4688" style="stroke:#181818;stroke-width:1.5625;"/><text fill="#000000" font-family="sans-serif" font-size="20.3125" lengthAdjust="spacing" textLength="182.1777" x="3620.3125" y="1148.7608">&#1050;&#1072;&#1088;&#1090;&#1072; &#1080;&#1079;&#1074;&#1083;&#1077;&#1095;&#1077;&#1085;&#1072;</text></g><!--link *start*CardRetainedBlocked to Retained--><g class="link" data-entity-1="ent0042" data-entity-2="ent0043" data-link-type="dependency" data-source-line="45" id="lnk44"><path d="M562.5,576.7656 C562.5,614.7344 562.5,709.8906 562.5,766.7969" fill="none" id="*start*CardRetainedBlocked-to-Retained" style="stroke:#181818;stroke-width:1.5625;"/><polygon fill="#181818" points="562.5,776.1719,568.75,762.1094,562.5,768.3594,556.25,762.1094,562.5,776.1719" style="stroke:#181818;stroke-width:1.5625;"/><text fill="#000000" font-family="sans-serif" font-size="20.3125" lengthAdjust="spacing" textLength="145.3514" x="564.0625" y="659.6983">&#1050;&#1072;&#1088;&#1090;&#1072; &#1080;&#1079;&#1098;&#1103;&#1090;&#1072;</text></g><!--link Retained to Blocked--><g class="link" data-entity-1="ent0043" data-entity-2="ent0045" data-link-type="dependency" data-source-line="46" id="lnk46"><path d="M566.7656,855.5156 C570.625,889.9375 575.2243,930.9799 579.068,965.3705" fill="none" id="Retained-to-Blocked" style="stroke:#181818;stroke-width:1.5625;"/><polygon fill="#181818" points="580.1094,974.6875,584.7587,960.0178,579.2416,966.9233,572.336,961.4062,580.1094,974.6875" style="stroke:#181818;stroke-width:1.5625;"/><text fill="#000000" font-family="sans-serif" font-size="20.3125" lengthAdjust="spacing" textLength="232.6218" x="576.5625" y="922.1983">&#1050;&#1072;&#1088;&#1090;&#1072; &#1079;&#1072;&#1073;&#1083;&#1086;&#1082;&#1080;&#1088;&#1086;&#1074;&#1072;&#1085;&#1072;</text></g><!--link Blocked to NoCard--><g class="link" data-entity-1="ent0045" data-entity-2="ent0002" data-link-type="dependency" data-source-line="47" id="lnk47"><path d="M601.0625,1053.5 C617.2813,1090.125 639.0935,1139.3346 662.8279,1192.9128" fill="none" id="Blocked-to-NoCard" style="stroke:#181818;stroke-width:1.5625;"/><polygon fill="#181818" points="666.625,1201.4844,666.6437,1186.0955,663.4607,1194.3414,655.2149,1191.1584,666.625,1201.4844" style="stroke:#181818;stroke-width:1.5625;"/><text fill="#000000" font-family="sans-serif" font-size="20.3125" lengthAdjust="spacing" textLength="189.6858" x="643.75" y="1148.7608">&#1055;&#1086;&#1089;&#1083;&#1077; &#1089;&#1086;&#1086;&#1073;&#1097;&#1077;&#1085;&#1080;&#1103;</text></g><!--link NoCard to CardInserted--><g class="link" data-entity-1="ent0002" data-entity-2="ent0003" data-link-type="dependency" data-source-line="50" id="lnk48"><path d="M631.25,1438.5938 C589.3438,1484.2656 545.7579,1531.7777 501.0704,1580.5121" fill="none" id="NoCard-to-CardInserted" style="stroke:#181818;stroke-width:1.5625;"/><polygon fill="#181818" points="494.7344,1587.4219,508.8449,1581.2812,500.0144,1581.6637,499.6319,1572.8331,494.7344,1587.4219" style="stroke:#181818;stroke-width:1.5625;"/><text fill="#000000" font-family="sans-serif" font-size="20.3125" lengthAdjust="spacing" textLength="269.9043" x="562.5" y="1535.1514">&#1042;&#1089;&#1090;&#1072;&#1074;&#1082;&#1072; &#1082;&#1072;&#1088;&#1090;&#1099; (16 &#1094;&#1080;&#1092;&#1088;)</text></g><!--link CardInserted to PIN_Entry--><g class="link" data-entity-1="ent0003" data-entity-2="ent0004" data-link-type="dependency" data-source-line="51" id="lnk49"><path d="M350.0469,1587.5156 C338.9688,1513.8594 328.125,1420.3125 328.125,1336.375 C328.125,814.2813 328.125,814.2813 328.125,814.2813 C328.125,759.2031 328.125,697.3516 328.125,648.7363 C328.125,624.4287 328.125,603.4302 328.125,588.2419 C328.125,584.4449 328.125,581.011 328.125,577.9793 C328.125,577.2214 328.125,576.4886 328.125,575.7815 C328.125,575.428 328.125,575.0809 328.125,574.7404 C328.125,574.5701 328.125,583.7764 328.125,583.6094" fill="none" id="CardInserted-to-PIN_Entry" style="stroke:#181818;stroke-width:1.5625;"/><polygon fill="#181818" points="328.125,574.2344,321.875,588.2969,328.125,582.0469,334.375,588.2969,328.125,574.2344" style="stroke:#181818;stroke-width:1.5625;"/><text fill="#000000" font-family="sans-serif" font-size="20.3125" lengthAdjust="spacing" textLength="92.2691" x="329.6875" y="1021.417">&#1042;&#1074;&#1086;&#1076; PIN</text></g><!--link Authenticated to SessionEnding--><g class="link" data-entity-1="ent0005" data-entity-2="ent0006" data-link-type="dependency" data-source-line="52" id="lnk50"><path d="M3729.7801,583.9581 C3729.9657,584.204 3730.1532,584.4498 3730.3424,584.6952 C3730.721,585.1862 3731.1068,585.676 3731.4997,586.1636 C3732.2856,587.1387 3733.1,588.1048 3733.9421,589.053 C3737.3105,592.8457 3741.1211,596.3516 3745.3125,599 C3885.8438,687.8906 4000.75,553.8125 4110.9375,678.3438 C4115.8066,683.8457 4119.6799,690.0083 4122.7271,696.5909 C4123.4889,698.2365 4124.1991,699.9084 4124.8603,701.6028 C4125.0256,702.0264 4121.908,693.6688 4122.0673,694.0952" fill="none" id="Authenticated-to-SessionEnding" style="stroke:#181818;stroke-width:1.5625;"/><polygon fill="#181818" points="4125.3471,702.8777,4126.2824,687.5174,4122.6139,695.5589,4114.5723,691.8904,4125.3471,702.8777" style="stroke:#181818;stroke-width:1.5625;"/><text fill="#000000" font-family="sans-serif" font-size="20.3125" lengthAdjust="spacing" textLength="173.7373" x="4098.4375" y="659.6983">7. Exit / &#1058;&#1072;&#1081;&#1084;&#1072;&#1091;&#1090;</text></g><!--link Menu to SessionEnding--><g class="link" data-entity-1="ent0018" data-entity-2="ent0006" data-link-type="dependency" data-source-line="53" id="lnk51"><path d="M2540.0625,809.4219 C2708.9375,786.4219 3307.7656,708.0313 3804.6875,682.8906 C3940.625,676.0156 4010.2813,591.2656 4110.9375,682.8906 C4116.0801,687.5723 4120.189,692.9824 4123.4358,698.886 C4123.8417,699.624 4124.2341,700.3697 4124.6133,701.1226 C4124.8029,701.499 4124.9893,701.8773 4125.1724,702.2573 C4125.2639,702.4473 4121.3589,694.157 4121.4488,694.3479" fill="none" id="Menu-to-SessionEnding" style="stroke:#181818;stroke-width:1.5625;"/><polygon fill="#181818" points="4125.4446,702.8287,4125.1048,687.4436,4122.1148,695.7613,4113.7971,692.7713,4125.4446,702.8287" style="stroke:#181818;stroke-width:1.5625;"/><text fill="#000000" font-family="sans-serif" font-size="20.3125" lengthAdjust="spacing" textLength="64.2998" x="2594.5313" y="659.6983">7. Exit</text></g><!--link PIN_Entry to GMN2--><g class="link" data-entity-1="ent0004" data-entity-2="ent0003" data-link-type="association" data-source-line="56" id="lnk4"><path d="M399.1007,467.4435 C399.3679,467.1615 399.6358,466.8795 399.9043,466.5976 C402.0522,464.3421 404.2394,462.0902 406.4644,459.8477 C415.3648,450.8777 424.8724,442.057 434.9065,433.7493 C454.9746,417.1338 477.1484,402.5703 500.7813,392.9688 C583.5,359.375 3629.9063,365.4531 3714.8438,392.9688 C3806.1563,422.5625 3891.6719,503 3928.2188,540.8125" fill="none" id="PIN_Entry-GMN2" style="stroke:#181818;stroke-width:1.5625;stroke-dasharray:10.9375,10.9375;"/></g><!--link CardRetainedBlocked to GMN5--><g class="link" data-entity-1="ent0007" data-entity-2="ent0006" data-link-type="association" data-source-line="60" id="lnk7"><path d="M837.7037,538.4467 C837.9378,538.0585 838.1749,537.6663 838.4151,537.2702 C838.8954,536.4781 839.3879,535.6706 839.8926,534.8484 C847.9668,521.6929 859.1367,504.7725 872.9375,486.9824 C900.5391,451.4023 938.6641,412.3438 983.5938,392.9688 C1063.625,358.4688 4037.2031,369.3281 4121.0938,392.9688 C4224.7969,422.2188 4328,502.8281 4372.5,540.75" fill="none" id="CardRetainedBlocked-GMN5" style="stroke:#181818;stroke-width:1.5625;stroke-dasharray:10.9375,10.9375;"/></g><!--link Authenticated to GMN8--><g class="link" data-entity-1="ent0005" data-entity-2="ent0009" data-link-type="association" data-source-line="64" id="lnk10"><path d="M3727.3685,447.8299 C3727.5626,447.279 3727.7598,446.7296 3727.9601,446.1818 C3728.3606,445.0862 3728.7734,443.997 3729.1989,442.9151 C3730.9007,438.5871 3732.8049,434.3743 3734.9333,430.3274 C3743.4473,414.1396 3755.5508,400.6055 3772.6563,392.9688 C3858.1094,354.8438 4524.625,368.1406 4614.8438,392.9688 C4710.7188,419.3594 4806.9375,487.8281 4858.4688,528.7344" fill="none" id="Authenticated-GMN8" style="stroke:#181818;stroke-width:1.5625;stroke-dasharray:10.9375,10.9375;"/></g><?plantuml-src ZLLTQnD157tVNt4VjH-hjRP2qOAjGV9WAIhuK8eCsKbsJJ8RTZVK8aAQYg9LYpw9A0L_GLeRcwGs_Gip_yXxTxEp7qqav26PcNFld7lkt1E_weW6yrWTwgvmIxRdrZa4NfCRlZxnRMQvEuweG9dL_FI9rN1WOUccOMpDRCFy_2fikElCimp33rZ0HojuPG34WA9Lux02ygVigZR8WUoebcgh0-Dr74GXHU5pB-3PqEY0Whz7KR83yaJjqGzv8izbLrxWrhM5PL1lPK-zKQthIThDuiRpWWYytKnEtE4ULeQdbFWhvXdAKm8ZA7r8u2H5L022kwebBzI1xDCXRCbB3BzK1qXf87jm5nQtn-IvtmniBWAdnAZ4i9uXrjF2Z0ECrFd6X986Ztd07C6jjPfRgaO9fY6pUcyycmaf4utLllmZko3FKEPZb7b8wV2g8LxP8SaJaRELfOL-n4MJqlwWBgdFGDH2mXtgbUmZD8I4Z6nUggwn6XCbUYiBPhG3ewqqz9aJs9R7TX1sozIhDE81RxY-4o1WqOmNwVEd7XD-cNi8k6tgLHgnoNRhM1G2binuaJbtnBhDH8MuBfkqX6YDe4mfAHt2Pf-XikVg8ucCip0RTGQ3T57J1iGrJelNDKyR44imDLvBCbs4Va1FkEyxhYW8Y-mcCwalU2a8xGHVqJTyZE74gtVXrFVeVIPU0Ybquaevv-ZbSdIo5fGVYJIN-EngHlL17T82mHf44MC7wpyJ1JeYo_y8dMAFI0D-3V5phDv72gX3uZz29dOvyb7oDksK0xfRgvKpp4pO5TTB6sHss0cQxTuAt36Xy1BVvGsGl_3clloBb-whjg5dPqA4OGWN--0v5Ji0jvnmG67aqKWfSWygXVeNlIrq255zY7HssAx1XGMK9PzhJ7CfwvTS7qAHJW3xGnqPeEApwGxdNjoaop8QXUHr0oaQZVKKR-ldxR2tWjWnynB-mQbF-3VH8bfpCBF6UMCc94hqVy-D1Yhcymy0?></g></svg>