<?plantuml 1.2026.2beta3?><svg xmlns="http://www.w3.org/2000/svg" xmlns:xlink="http://www.w3.org/1999/xlink" contentStyleType="text/css" data-diagram-type="DESCRIPTION" height="310.9375px" preserveAspectRatio="none" style="width:1335px;height:310px;background:#FFFFFF;" version="1.1" viewBox="0 0 1335 310" width="1335.9375px" zoomAndPan="magnify"><defs/><g><!--cluster ?????? ?????????--><g class="cluster" data-qualified-name="...... ........." data-source-line="9" id="ent0003"><rect fill="none" height="290.625" rx="3.9063" ry="3.9063" style="stroke:#181818;stroke-width:1.5625;" width="432.9219" x="368.6875" y="10.9375"/><text fill="#000000" font-family="sans-serif" font-size="21.875" font-weight="bold" lengthAdjust="spacing" textLength="241.8747" x="464.2111" y="34.3674">&#1052;&#1086;&#1076;&#1077;&#1083;&#1100; &#1073;&#1072;&#1085;&#1082;&#1086;&#1084;&#1072;&#1090;&#1072;</text></g><!--entity RetrieveCards--><g class="entity" data-qualified-name="...... ..........RetrieveCards" data-source-line="11" id="ent0004"><ellipse cx="585.1357" cy="107.8084" fill="#F1F1F1" rx="191.4638" ry="42.0428" style="stroke:#181818;stroke-width:0.7813;"/><text fill="#000000" font-family="sans-serif" font-size="21.875" lengthAdjust="spacing" textLength="351.1856" x="409.5429" y="115.0716">&#1048;&#1079;&#1074;&#1083;&#1077;&#1095;&#1077;&#1085;&#1080;&#1077; &#1091;&#1076;&#1077;&#1088;&#1078;&#1072;&#1085;&#1085;&#1099;&#1093; &#1082;&#1072;&#1088;&#1090;</text></g><!--entity Reboot--><g class="entity" data-qualified-name="...... ..........Reboot" data-source-line="12" id="ent0005"><ellipse cx="585.1418" cy="240.6252" fill="#F1F1F1" rx="162.8918" ry="36.3284" style="stroke:#181818;stroke-width:0.7813;"/><text fill="#000000" font-family="sans-serif" font-size="21.875" lengthAdjust="spacing" textLength="289.6622" x="440.3107" y="247.8884">&#1055;&#1077;&#1088;&#1077;&#1079;&#1072;&#1075;&#1088;&#1091;&#1079;&#1082;&#1072; &#1073;&#1072;&#1085;&#1082;&#1086;&#1084;&#1072;&#1090;&#1072;</text></g><!--entity Technician--><g class="entity" data-qualified-name="Technician" data-source-line="7" id="ent0002"><ellipse cx="154.6547" cy="128.6719" fill="#F1F1F1" rx="12.5" ry="12.5" style="stroke:#181818;stroke-width:0.7813;"/><path d="M154.6547,141.1719 L154.6547,183.3594 M134.3422,153.6719 L174.9672,153.6719 M154.6547,183.3594 L134.3422,206.7969 M154.6547,183.3594 L174.9672,206.7969" fill="none" style="stroke:#181818;stroke-width:0.7813;"/><text fill="#000000" font-family="sans-serif" font-size="21.875" lengthAdjust="spacing" textLength="290.5594" x="9.375" y="229.4455">&#1058;&#1077;&#1093;&#1085;&#1080;&#1095;&#1077;&#1089;&#1082;&#1080;&#1081; &#1089;&#1087;&#1077;&#1094;&#1080;&#1072;&#1083;&#1080;&#1089;&#1090;</text></g><g class="entity" data-qualified-name="GMN8" data-source-line="19" id="ent0009"><path d="M919.0156,76.3594 L919.0156,101.5625 L777.2188,107.8125 L919.0156,114.0625 L919.0156,139.2744 A0,0 0 0 0 919.0156,139.2744 L1276.9174,139.2744 A0,0 0 0 0 1276.9174,139.2744 L1276.9174,91.9844 L1261.2924,76.3594 L919.0156,76.3594 A0,0 0 0 0 919.0156,76.3594" fill="#FAFAFA" style="stroke:#181818;stroke-width:0.7813;"/><path d="M1261.2924,76.3594 L1261.2924,91.9844 L1276.9174,91.9844 L1261.2924,76.3594" fill="#FAFAFA" style="stroke:#181818;stroke-width:0.7813;"/><text fill="#000000" font-family="sans-serif" font-size="20.3125" lengthAdjust="spacing" textLength="325.0893" x="928.3906" y="103.0264">&#1048;&#1079; &#1083;&#1086;&#1074;&#1091;&#1096;&#1082;&#1080; &#1091;&#1076;&#1077;&#1088;&#1078;&#1072;&#1085;&#1085;&#1099;&#1093; &#1082;&#1072;&#1088;&#1090;</text><text fill="#000000" font-family="sans-serif" font-size="20.3125" lengthAdjust="spacing" textLength="113.4941" x="928.3906" y="126.6714">(retain bin)</text></g><g class="entity" data-qualified-name="GMN11" data-source-line="24" id="ent0012"><path d="M870.3594,209.1719 L870.3594,234.375 L748.6719,240.625 L870.3594,246.875 L870.3594,272.0869 A0,0 0 0 0 870.3594,272.0869 L1325.5588,272.0869 A0,0 0 0 0 1325.5588,272.0869 L1325.5588,224.7969 L1309.9338,209.1719 L870.3594,209.1719 A0,0 0 0 0 870.3594,209.1719" fill="#FAFAFA" style="stroke:#181818;stroke-width:0.7813;"/><path d="M1309.9338,209.1719 L1309.9338,224.7969 L1325.5588,224.7969 L1309.9338,209.1719" fill="#FAFAFA" style="stroke:#181818;stroke-width:0.7813;"/><text fill="#000000" font-family="sans-serif" font-size="20.3125" lengthAdjust="spacing" textLength="422.3869" x="879.7344" y="235.8389">&#1042; &#1088;&#1077;&#1072;&#1083;&#1080;&#1079;&#1072;&#1094;&#1080;&#1080;: &#1090;&#1086;&#1083;&#1100;&#1082;&#1086; &#1080;&#1079;&#1074;&#1083;&#1077;&#1095;&#1077;&#1085;&#1080;&#1077; &#1082;&#1072;&#1088;&#1090;</text><text fill="#000000" font-family="sans-serif" font-size="20.3125" lengthAdjust="spacing" textLength="165.1779" x="879.7344" y="259.4839">&#1080; &#1087;&#1077;&#1088;&#1077;&#1079;&#1072;&#1075;&#1088;&#1091;&#1079;&#1082;&#1072;</text></g><!--link Technician to RetrieveCards--><g class="link" data-entity-1="ent0002" data-entity-2="ent0004" data-link-type="dependency" data-source-line="15" id="lnk6"><path d="M300.3125,152.3438 C341.2656,145.9063 376.7858,140.3321 418.3952,133.7853" fill="none" id="Technician-to-RetrieveCards" style="stroke:#181818;stroke-width:1.5625;"/><polygon fill="#181818" points="427.6563,132.3281,412.7932,128.3398,419.9387,133.5424,414.7361,140.6879,427.6563,132.3281" style="stroke:#181818;stroke-width:1.5625;"/></g><!--link Technician to Reboot--><g class="link" data-entity-1="ent0002" data-entity-2="ent0005" data-link-type="dependency" data-source-line="16" id="lnk7"><path d="M300.3125,197.125 C348.5313,204.5313 392.7961,211.3272 440.218,218.6085" fill="none" id="Technician-to-Reboot" style="stroke:#181818;stroke-width:1.5625;"/><polygon fill="#181818" points="449.4844,220.0313,436.5333,211.7195,441.7624,218.8456,434.6362,224.0747,449.4844,220.0313" style="stroke:#181818;stroke-width:1.5625;"/></g><?plantuml-src VP4zJWCn48LxdsAK2ef8KD1Gq703n0MSNIThaTYHxK21aFAZ019KL1H8I9nW2Im4abskCBuHOoiAKHBXQgpH-zwy6NicLPSRte6ELZh9ZEu8SAOdc5rsRCPJVI5L2vgyRLSxQLV2_i4UOstHTE0q6DdA7AJIYCH9hHZZYTC6QlY2XHzZYLD_GzK0lt6ANq353tslwPFZZ9e3Fwm1jt0gaap9H79211PNhROWp1DM-8u5plmzu2k9IY9LECVS3p6lmILZGAzdHS9j43pY9qu8NGJVu8y5-55W-3v-H43fx_mOY9Fx_iB-H3WZnRauvYQrQyJdA2s8c-CRAKPKaNRhE17LqDgnAyR-Ca6zVhJciT6CAgQq4ukbwkR6M24TKBWA9txaRyDI_mz7cXqZ79SA6bBjCg5I21QRHj6U71uWXetN2P7ZhQQ7GFcgS8MG5s9hVSihdZHMlFEMjIr7-0K0?></g></svg>