<?plantuml 1.2026.2beta3?><svg xmlns="http://www.w3.org/2000/svg" xmlns:xlink="http://www.w3.org/1999/xlink" contentStyleType="text/css" data-diagram-type="STATE" height="1501.5625px" preserveAspectRatio="none" style="width:1709px;height:1501px;background:#FFFFFF;" version="1.1" viewBox="0 0 1709 1501" width="1709.375px" zoomAndPan="magnify"><defs/><g><!--cluster NoAccess--><g class="cluster" data-qualified-name="NoAccess" data-source-line="7" id="ent0002"><path d="M455.5,446.875 L694.5625,446.875 A19.5313,19.5313 0 0 1 714.0938,466.4063 L714.0938,480.1514 L435.9688,480.1514 L435.9688,466.4063 A19.5313,19.5313 0 0 1 455.5,446.875" fill="#F1F1F1"/><rect fill="none" height="334.375" rx="19.5313" ry="19.5313" style="stroke:#181818;stroke-width:0.7813;" width="278.125" x="435.9688" y="446.875"/><line style="stroke:#181818;stroke-width:0.7813;" x1="435.9688" x2="714.0938" y1="480.1514" y2="480.1514"/><text fill="#000000" font-family="sans-serif" font-size="21.875" lengthAdjust="spacing" textLength="105.0171" x="522.5227" y="473.4299">NoAccess</text></g><!--cluster ServiceEnding--><g class="cluster" data-qualified-name="ServiceEnding" data-source-line="26" id="ent0005"><path d="M628.9375,10.9375 L799.25,10.9375 A19.5313,19.5313 0 0 1 818.7813,30.4688 L818.7813,44.2139 L609.4063,44.2139 L609.4063,30.4688 A19.5313,19.5313 0 0 1 628.9375,10.9375" fill="#F1F1F1"/><rect fill="none" height="334.375" rx="19.5313" ry="19.5313" style="stroke:#181818;stroke-width:0.7813;" width="209.375" x="609.4063" y="10.9375"/><line style="stroke:#181818;stroke-width:0.7813;" x1="609.4063" x2="818.7813" y1="44.2139" y2="44.2139"/><text fill="#000000" font-family="sans-serif" font-size="21.875" lengthAdjust="spacing" textLength="156.2439" x="635.9718" y="37.4924">ServiceEnding</text></g><g class="start_entity" data-qualified-name="NoAccess..start.NoAccess" data-source-line="8" id="ent0004"><ellipse cx="528.1563" cy="529.6875" fill="#222222" rx="15.625" ry="15.625" style="stroke:#222222;stroke-width:1.5625;"/></g><g class="entity" data-qualified-name="NoAccess.Idle" id="ent0005"><rect fill="#F1F1F1" height="78.125" rx="19.5313" ry="19.5313" style="stroke:#181818;stroke-width:0.7813;" width="78.125" x="481.2813" y="665.625"/><line style="stroke:#181818;stroke-width:0.7813;" x1="481.2813" x2="559.4063" y1="706.7139" y2="706.7139"/><text fill="#000000" font-family="sans-serif" font-size="21.875" lengthAdjust="spacing" textLength="39.8727" x="500.4074" y="693.7424">Idle</text></g><g class="start_entity" data-qualified-name="ServiceEnding..start.ServiceEnding" data-source-line="27" id="ent0021"><ellipse cx="701.5938" cy="93.75" fill="#222222" rx="15.625" ry="15.625" style="stroke:#222222;stroke-width:1.5625;"/></g><g class="entity" data-qualified-name="ServiceEnding.Logout" id="ent0022"><rect fill="#F1F1F1" height="78.125" rx="19.5313" ry="19.5313" style="stroke:#181818;stroke-width:0.7813;" width="106.5308" x="648.3281" y="229.6875"/><line style="stroke:#181818;stroke-width:0.7813;" x1="648.3281" x2="754.8589" y1="270.7764" y2="270.7764"/><text fill="#000000" font-family="sans-serif" font-size="21.875" lengthAdjust="spacing" textLength="75.2808" x="663.9531" y="257.8049">Logout</text></g><g class="entity" data-qualified-name="CardAndPIN" id="ent0003"><rect fill="#F1F1F1" height="78.125" rx="19.5313" ry="19.5313" style="stroke:#181818;stroke-width:0.7813;" width="161.528" x="183.3438" y="892.1875"/><line style="stroke:#181818;stroke-width:0.7813;" x1="183.3438" x2="344.8718" y1="933.2764" y2="933.2764"/><text fill="#000000" font-family="sans-serif" font-size="21.875" lengthAdjust="spacing" textLength="130.278" x="198.9688" y="920.3049">CardAndPIN</text></g><path d="M30.4688,1090.625 L1291.4829,1090.625 A19.5313,19.5313 0 0 1 1311.0142,1110.1563 L1311.0142,1131.7139 L10.9375,1131.7139 L10.9375,1110.1563 A19.5313,19.5313 0 0 1 30.4688,1090.625" fill="#F1F1F1"/><rect fill="none" height="402.0264" rx="19.5313" ry="19.5313" style="stroke:#181818;stroke-width:0.7813;" width="1300.0767" x="10.9375" y="1090.625"/><line style="stroke:#181818;stroke-width:0.7813;" x1="10.9375" x2="1311.0142" y1="1131.7139" y2="1131.7139"/><text fill="#000000" font-family="sans-serif" font-size="21.875" lengthAdjust="spacing" textLength="140.9058" x="590.523" y="1118.7424">ServiceMenu</text><g class="start_entity" data-qualified-name="ServiceMenu..start.ServiceMenu" data-source-line="17" id="ent0009"><ellipse cx="674.2031" cy="1164.5264" fill="#222222" rx="15.625" ry="15.625" style="stroke:#222222;stroke-width:1.5625;"/></g><g class="entity" data-qualified-name="ServiceMenu.Available" id="ent0010"><rect fill="#F1F1F1" height="78.125" rx="19.5313" ry="19.5313" style="stroke:#181818;stroke-width:0.7813;" width="131.546" x="608.4219" y="1237.9639"/><line style="stroke:#181818;stroke-width:0.7813;" x1="608.4219" x2="739.9679" y1="1279.0527" y2="1279.0527"/><text fill="#000000" font-family="sans-serif" font-size="21.875" lengthAdjust="spacing" textLength="100.296" x="624.0469" y="1266.0812">Available</text></g><g class="entity" data-qualified-name="ServiceMenu.Replenish" id="ent0012"><rect fill="#F1F1F1" height="78.125" rx="19.5313" ry="19.5313" style="stroke:#181818;stroke-width:0.7813;" width="138.5315" x="153.375" y="1398.9014"/><line style="stroke:#181818;stroke-width:0.7813;" x1="153.375" x2="291.9065" y1="1439.9902" y2="1439.9902"/><text fill="#000000" font-family="sans-serif" font-size="21.875" lengthAdjust="spacing" textLength="107.2815" x="169" y="1427.0187">Replenish</text></g><g class="entity" data-qualified-name="ServiceMenu.Collect" id="ent0014"><rect fill="#F1F1F1" height="78.125" rx="19.5313" ry="19.5313" style="stroke:#181818;stroke-width:0.7813;" width="106.1249" x="605.5156" y="1398.9014"/><line style="stroke:#181818;stroke-width:0.7813;" x1="605.5156" x2="711.6405" y1="1439.9902" y2="1439.9902"/><text fill="#000000" font-family="sans-serif" font-size="21.875" lengthAdjust="spacing" textLength="74.8749" x="621.1406" y="1427.0187">Collect</text></g><g class="entity" data-qualified-name="ServiceMenu.ReplaceCassette" id="ent0016"><rect fill="#F1F1F1" height="78.125" rx="19.5313" ry="19.5313" style="stroke:#181818;stroke-width:0.7813;" width="214.3036" x="976.4219" y="1398.9014"/><line style="stroke:#181818;stroke-width:0.7813;" x1="976.4219" x2="1190.7255" y1="1439.9902" y2="1439.9902"/><text fill="#000000" font-family="sans-serif" font-size="21.875" lengthAdjust="spacing" textLength="183.0536" x="992.0469" y="1427.0187">ReplaceCassette</text></g><!--link *start*ServiceMenu to Available--><g class="link" data-entity-1="ent0009" data-entity-2="ent0010" data-link-type="dependency" data-source-line="17" id="lnk11"><path d="M674.2031,1180.8389 C674.2031,1195.3076 674.2031,1208.5732 674.2031,1228.0889" fill="none" id="*start*ServiceMenu-to-Available" style="stroke:#181818;stroke-width:1.5625;"/><polygon fill="#181818" points="674.2031,1237.4639,680.4531,1223.4014,674.2031,1229.6514,667.9531,1223.4014,674.2031,1237.4639" style="stroke:#181818;stroke-width:1.5625;"/></g><!--link Available to Replenish--><g class="link" data-entity-1="ent0010" data-entity-2="ent0012" data-link-type="dependency" data-source-line="18" id="lnk13"><path d="M608.1875,1280.7764 C457.3906,1286.4482 97.75,1304.0889 61.7031,1344.2139 C28.125,1381.5732 86.1494,1405.3219 143.6963,1419.9782" fill="none" id="Available-to-Replenish" style="stroke:#181818;stroke-width:1.5625;"/><polygon fill="#181818" points="152.7813,1422.292,140.6963,1412.7646,145.2104,1420.3638,137.6112,1424.878,152.7813,1422.292" style="stroke:#181818;stroke-width:1.5625;"/><text fill="#000000" font-family="sans-serif" font-size="20.3125" lengthAdjust="spacing" textLength="285.1982" x="63.2656" y="1364.6309">1. &#1055;&#1086;&#1087;&#1086;&#1083;&#1085;&#1077;&#1085;&#1080;&#1077; &#1085;&#1072;&#1083;&#1080;&#1095;&#1085;&#1099;&#1084;&#1080;</text></g><!--link Available to Collect--><g class="link" data-entity-1="ent0010" data-entity-2="ent0014" data-link-type="dependency" data-source-line="19" id="lnk15"><path d="M607.8125,1295.5576 C583.0313,1305.4795 557.4063,1320.8076 542.9531,1344.2139 C522.7031,1376.9795 557.1881,1399.4698 596.4224,1415.3917" fill="none" id="Available-to-Collect" style="stroke:#181818;stroke-width:1.5625;"/><polygon fill="#181818" points="605.1094,1418.917,594.4292,1407.8378,597.8703,1415.9793,589.7288,1419.4204,605.1094,1418.917" style="stroke:#181818;stroke-width:1.5625;"/><text fill="#000000" font-family="sans-serif" font-size="20.3125" lengthAdjust="spacing" textLength="227.6428" x="544.5156" y="1364.6309">2. &#1048;&#1079;&#1098;&#1103;&#1090;&#1080;&#1077; &#1085;&#1072;&#1083;&#1080;&#1095;&#1085;&#1099;&#1093;</text></g><!--link Available to ReplaceCassette--><g class="link" data-entity-1="ent0010" data-entity-2="ent0016" data-link-type="dependency" data-source-line="20" id="lnk17"><path d="M740.6563,1293.667 C787.5156,1305.2139 851.3125,1322.7764 905.4531,1344.2139 C943.8125,1359.4014 976.6037,1375.7921 1009.588,1393.839" fill="none" id="Available-to-ReplaceCassette" style="stroke:#181818;stroke-width:1.5625;"/><polygon fill="#181818" points="1017.8125,1398.3389,1008.4757,1386.1061,1010.9588,1394.589,1002.4759,1397.072,1017.8125,1398.3389" style="stroke:#181818;stroke-width:1.5625;"/><text fill="#000000" font-family="sans-serif" font-size="20.3125" lengthAdjust="spacing" textLength="198.7312" x="963.2656" y="1364.6309">3. &#1047;&#1072;&#1084;&#1077;&#1085;&#1072; &#1082;&#1072;&#1089;&#1089;&#1077;&#1090;&#1099;</text></g><!--link Replenish to Available--><g class="link" data-entity-1="ent0012" data-entity-2="ent0010" data-link-type="dependency" data-source-line="21" id="lnk18"><path d="M292.3281,1400.1982 C335.5,1378.167 386.9688,1352.6826 410.1406,1344.2139 C475.7969,1320.2295 544.6123,1303.9219 598.7373,1292.8437" fill="none" id="Replenish-to-Available" style="stroke:#181818;stroke-width:1.5625;"/><polygon fill="#181818" points="607.9219,1290.9639,592.8917,1287.6606,600.268,1292.5304,595.3982,1299.9067,607.9219,1290.9639" style="stroke:#181818;stroke-width:1.5625;"/><text fill="#000000" font-family="sans-serif" font-size="20.3125" lengthAdjust="spacing" textLength="119.6236" x="411.7031" y="1364.6309">&#1047;&#1072;&#1074;&#1077;&#1088;&#1096;&#1077;&#1085;&#1086;</text></g><!--link Collect to Available--><g class="link" data-entity-1="ent0014" data-entity-2="ent0010" data-link-type="dependency" data-source-line="22" id="lnk19"><path d="M712.2969,1419.3076 C735.125,1409.0732 759.4844,1393.5264 772.6406,1370.7764 C786.5781,1346.6514 774.2246,1330.0462 748.5058,1313.8118" fill="none" id="Collect-to-Available" style="stroke:#181818;stroke-width:1.5625;"/><polygon fill="#181818" points="740.5781,1308.8076,749.1336,1321.599,747.1846,1312.9778,755.8058,1311.0288,740.5781,1308.8076" style="stroke:#181818;stroke-width:1.5625;"/><text fill="#000000" font-family="sans-serif" font-size="20.3125" lengthAdjust="spacing" textLength="119.6236" x="778.8906" y="1364.6309">&#1047;&#1072;&#1074;&#1077;&#1088;&#1096;&#1077;&#1085;&#1086;</text></g><!--link ReplaceCassette to Available--><g class="link" data-entity-1="ent0016" data-entity-2="ent0010" data-link-type="dependency" data-source-line="23" id="lnk20"><path d="M1149.9375,1398.167 C1170.2969,1381.7139 1183.6719,1362.167 1167.9531,1344.2139 C1113.1719,1281.6826 871.5778,1275.9745 749.984,1277.0526" fill="none" id="ReplaceCassette-to-Available" style="stroke:#181818;stroke-width:1.5625;"/><polygon fill="#181818" points="740.6094,1277.1357,754.7267,1283.2608,748.4216,1277.0665,754.6159,1270.7613,740.6094,1277.1357" style="stroke:#181818;stroke-width:1.5625;"/><text fill="#000000" font-family="sans-serif" font-size="20.3125" lengthAdjust="spacing" textLength="119.6236" x="1175.7656" y="1364.6309">&#1047;&#1072;&#1074;&#1077;&#1088;&#1096;&#1077;&#1085;&#1086;</text></g><g class="start_entity" data-qualified-name=".start." data-source-line="5" id="ent0002"><ellipse cx="871.9063" cy="268.75" fill="#222222" rx="15.625" ry="15.625" style="stroke:#222222;stroke-width:1.5625;"/></g><g class="entity" data-qualified-name="GMN2" data-source-line="34" id="ent0003"><path d="M399.1719,911.625 L399.1719,925 L345.2656,931.25 L399.1719,937.5 L399.1719,950.895 A0,0 0 0 0 399.1719,950.895 L972.7948,950.895 A0,0 0 0 0 972.7948,950.895 L972.7948,927.25 L957.1698,911.625 L399.1719,911.625 A0,0 0 0 0 399.1719,911.625" fill="#FAFAFA" style="stroke:#181818;stroke-width:0.7813;"/><path d="M957.1698,911.625 L957.1698,927.25 L972.7948,927.25 L957.1698,911.625" fill="#FAFAFA" style="stroke:#181818;stroke-width:0.7813;"/><text fill="#000000" font-family="sans-serif" font-size="20.3125" lengthAdjust="spacing" textLength="540.8104" x="408.5469" y="938.292">&#1042; &#1088;&#1077;&#1072;&#1083;&#1080;&#1079;&#1072;&#1094;&#1080;&#1080;: &#1082;&#1072;&#1088;&#1090;&#1072; 1000000000000001, PIN 1111</text></g><g class="entity" data-qualified-name="GMN5" data-source-line="38" id="ent0006"><path d="M1366.25,1260.1875 L1366.25,1285.3906 L1311.4688,1291.6406 L1366.25,1297.8906 L1366.25,1323.1025 A0,0 0 0 0 1366.25,1323.1025 L1699.4554,1323.1025 A0,0 0 0 0 1699.4554,1323.1025 L1699.4554,1275.8125 L1683.8304,1260.1875 L1366.25,1260.1875 A0,0 0 0 0 1366.25,1260.1875" fill="#FAFAFA" style="stroke:#181818;stroke-width:0.7813;"/><path d="M1683.8304,1260.1875 L1683.8304,1275.8125 L1699.4554,1275.8125 L1683.8304,1260.1875" fill="#FAFAFA" style="stroke:#181818;stroke-width:0.7813;"/><text fill="#000000" font-family="sans-serif" font-size="20.3125" lengthAdjust="spacing" textLength="284.98" x="1375.625" y="1286.8545">&#1054;&#1087;&#1077;&#1088;&#1072;&#1094;&#1080;&#1080; &#1089; CashInventory,</text><text fill="#000000" font-family="sans-serif" font-size="20.3125" lengthAdjust="spacing" textLength="300.3929" x="1375.625" y="1310.4995">&#1089;&#1086;&#1093;&#1088;&#1072;&#1085;&#1077;&#1085;&#1080;&#1077; &#1074; atm_state.json</text></g><!--link *start* to NoAccess--><g class="link" data-entity-1="ent0002" data-entity-2="ent0002" data-link-type="dependency" data-source-line="5" id="lnk3"><path d="M864.375,282.7187 C849.4688,307.1719 814.9844,363.25 784.4063,409.375 C767.1953,435.3594 747.2305,464.0352 731.2168,486.6973 C727.2134,492.3628 723.4569,497.6525 720.0522,502.4303 C718.3498,504.8192 716.7353,507.0801 715.2219,509.1961 C714.8435,509.7251 719.9286,502.6219 719.5631,503.1325" fill="none" id="*start*-to-NoAccess" style="stroke:#181818;stroke-width:1.5625;"/><polygon fill="#181818" points="714.106,510.7556,727.3736,502.9591,718.6535,504.403,717.2096,495.683,714.106,510.7556" style="stroke:#181818;stroke-width:1.5625;"/></g><!--link *start*NoAccess to Idle--><g class="link" data-entity-1="ent0004" data-entity-2="ent0005" data-link-type="dependency" data-source-line="8" id="lnk6"><path d="M527.5,545.9063 C526.3125,572.0469 524.2061,618.1346 522.5029,655.6815" fill="none" id="*start*NoAccess-to-Idle" style="stroke:#181818;stroke-width:1.5625;"/><polygon fill="#181818" points="522.0781,665.0469,528.9589,651.282,522.4321,657.2424,516.4718,650.7156,522.0781,665.0469" style="stroke:#181818;stroke-width:1.5625;"/><text fill="#000000" font-family="sans-serif" font-size="20.3125" lengthAdjust="spacing" textLength="133.2809" x="528.1563" y="612.6045">&#1053;&#1077;&#1090; &#1076;&#1086;&#1089;&#1090;&#1091;&#1087;&#1072;</text></g><!--link Idle to CardAndPIN--><g class="link" data-entity-1="ent0005" data-entity-2="ent0003" data-link-type="dependency" data-source-line="9" id="lnk7"><path d="M480.875,740.6719 C434.125,781.4375 363.5505,842.9794 314.988,885.3231" fill="none" id="Idle-to-CardAndPIN" style="stroke:#181818;stroke-width:1.5625;"/><polygon fill="#181818" points="307.9219,891.4844,322.6285,886.9533,313.8103,886.35,314.4135,877.5318,307.9219,891.4844" style="stroke:#181818;stroke-width:1.5625;"/><text fill="#000000" font-family="sans-serif" font-size="20.3125" lengthAdjust="spacing" textLength="381.3454" x="387.5313" y="839.167">&#1050;&#1072;&#1088;&#1090;&#1072; &#1080;&#1085;&#1082;&#1072;&#1089;&#1089;&#1072;&#1090;&#1086;&#1088;&#1072; (16 &#1094;&#1080;&#1092;&#1088;) + PIN</text></g><!--link CardAndPIN to ServiceMenu--><g class="link" data-entity-1="ent0003" data-entity-2="ent0004" data-link-type="dependency" data-source-line="13" id="lnk8"><path d="M306.5781,971.0469 C339.5625,1000.75 381.1421,1038.1648 431.7671,1083.7429" fill="none" id="CardAndPIN-to-ServiceMenu" style="stroke:#181818;stroke-width:1.5625;"/><polygon fill="#181818" points="438.7344,1090.0156,432.4652,1075.9617,432.9283,1084.7883,424.1016,1085.2514,438.7344,1090.0156" style="stroke:#181818;stroke-width:1.5625;"/><text fill="#000000" font-family="sans-serif" font-size="20.3125" lengthAdjust="spacing" textLength="282.8278" x="384.4063" y="1037.6045">&#1040;&#1091;&#1090;&#1077;&#1085;&#1090;&#1080;&#1092;&#1080;&#1082;&#1072;&#1094;&#1080;&#1103; &#1091;&#1089;&#1087;&#1077;&#1096;&#1085;&#1072;</text></g><!--link *start*ServiceEnding to Logout--><g class="link" data-entity-1="ent0021" data-entity-2="ent0022" data-link-type="dependency" data-source-line="27" id="lnk23"><path d="M701.5938,109.9688 C701.5938,136.1094 701.5938,182.1875 701.5938,219.7344" fill="none" id="*start*ServiceEnding-to-Logout" style="stroke:#181818;stroke-width:1.5625;"/><polygon fill="#181818" points="701.5938,229.1094,707.8438,215.0469,701.5938,221.2969,695.3438,215.0469,701.5938,229.1094" style="stroke:#181818;stroke-width:1.5625;"/><text fill="#000000" font-family="sans-serif" font-size="20.3125" lengthAdjust="spacing" textLength="64.2998" x="703.1563" y="176.667">4. Exit</text></g><!--link Logout to NoAccess--><g class="link" data-entity-1="ent0022" data-entity-2="ent0002" data-link-type="dependency" data-source-line="28" id="lnk24"><path d="M701.5938,308.3594 C701.5938,343.6562 701.5938,397.4453 701.5938,442.9727 C701.5938,443.684 701.5938,444.3934 701.5938,445.1006 C701.5938,445.4542 701.5938,436.4323 701.5938,436.7848" fill="none" id="Logout-to-NoAccess" style="stroke:#181818;stroke-width:1.5625;"/><polygon fill="#181818" points="701.5938,446.1598,707.8438,432.0973,701.5938,438.3473,695.3438,432.0973,701.5938,446.1598" style="stroke:#181818;stroke-width:1.5625;"/><text fill="#000000" font-family="sans-serif" font-size="20.3125" lengthAdjust="spacing" textLength="68.4654" x="703.1563" y="403.2295">&#1042;&#1099;&#1093;&#1086;&#1076;</text></g><!--link ServiceMenu to ServiceEnding--><g class="link" data-entity-1="ent0004" data-entity-2="ent0005" data-link-type="dependency" data-source-line="31" id="lnk25"><path d="M993.2188,1090.1094 C1031,1045.1719 1056.2813,992.7187 1056.2813,932.8125 C1056.2813,267.1875 1056.2813,267.1875 1056.2813,267.1875 C1056.2813,200.8281 995.7227,158.1562 934.2168,131.9297 C903.4639,118.8164 872.4741,109.8145 848.699,104.0186 C836.8114,101.1206 835.935,100.7884 828.5861,99.3803" fill="none" id="ServiceMenu-to-ServiceEnding" style="stroke:#181818;stroke-width:1.5625;"/><polygon fill="#181818" points="819.3786,97.6161,832.0138,106.4007,827.0516,99.0863,834.366,94.1241,819.3786,97.6161" style="stroke:#181818;stroke-width:1.5625;"/><text fill="#000000" font-family="sans-serif" font-size="20.3125" lengthAdjust="spacing" textLength="64.2998" x="1057.8438" y="612.6045">4. Exit</text></g><?plantuml-src ZL9DRzD04BtxLyoHZpQg-JhqW1H5FKI22i4H8RJOszZWx4PU9u0GaftIWkYXg1SG4l0NegfMBMZDNvZzHymuNzkKGtsml3ipxps_UUPLh0OY5NteQwM3ADLz2Lawb9vPL4maGlqwLZtO4ObnA-4W1l_kXkSzlV4CrjVlmxPk1u4qnlDC9ZAvECCx3s3Ur0qJ2Pk0Fx2qOy0Jh6rXntON_-A4sfeoztL46hPL-AYxpTtVSM9pEyO9O8Nd-9kEXIteFQRvdAwl-VV0xcDbFzZyEjm4clFUpuKuM2p5EJBJ4vcEua0-b6h8L5_iBg6MU4vlWYC-PcFeGw1IGK9B-ub4J9O4BeJxi-sHY1Fn8f5qj_XkAe_b894gDX5H-Yt0NrWJS8r_29YuYRK4vg2BoduaCGTuXjKbc8vE4Xba17ABGBxXgVri3rdufN6xzryD8f0TOOpCCjxARGBvIbDdZGOoUsuqxSeU4C1IzeNVOzzuxfWQSpA7fsjsUYRlIishSgumjBg0BHLoKjqLFD0zFMI3xhHWwqsSKMbsvKQMuO_O95h12SEw6tL2CYDOedbA4tqQzw8Cz8uJBUB18w1ibjCjuEaqHLXjJcsTnjdVkF3uQvnSyEdnf0g1qLSv76bCyhC9P3v71rkG2XDrrKYgJATlrwY9DbZRFMvoutKC8ki_RmnilJHQBHZ_0G00?></g></svg>